<svg width="418" height="295" viewBox="0 0 418 295" fill="none" xmlns="http://www.w3.org/2000/svg">
<g opacity="0.1">
<path d="M78.0264 192.636C68.8307 215.765 54.3403 238.616 34.9728 260.631C28.8421 267.598 28.0061 277.629 33.022 285.432C36.9237 291.563 43.3325 294.907 50.2992 294.907C52.25 294.907 54.2009 294.768 56.1517 294.071C97.1149 282.088 192.838 239.592 195.485 103.323C196.46 50.7952 158.004 5.65133 107.983 0.495992C80.2561 -2.29081 52.6684 6.7653 32.186 25.1574C11.7044 43.6891 0 70.1627 0 97.7504C0 143.73 32.6044 183.998 78.0264 192.636Z" fill="#B5CAFA"/>
<path d="M330.36 0.495992C302.771 -2.29081 275.183 6.7653 254.702 25.1574C234.219 43.6891 222.515 70.1627 222.515 97.7504C222.515 143.73 255.119 183.998 300.542 192.636C291.346 215.765 276.855 238.616 257.488 260.631C251.357 267.598 250.521 277.629 255.538 285.432C259.439 291.563 265.848 294.907 272.815 294.907C274.765 294.907 276.716 294.768 278.667 294.071C319.631 282.088 415.353 239.592 418 103.323V101.373C418 49.6802 379.962 5.65133 330.36 0.495992Z" fill="#B5CAFA"/>
</g>
</svg>
