<svg width="411" height="410" viewBox="0 0 411 410" fill="none"
  xmlns="http://www.w3.org/2000/svg">
  <g clip-path="url(#clip0_15_914)">
    <path d="M363.709 351.466C355.383 360.237 347.504 365.894 341.279 370.364C268.107 422.898 181.525 407.585 163.124 403.845C135.952 398.323 83.4272 387.649 45.454 342.964C-11.9982 275.358 -3.05108 168.851 41.5117 98.5444C49.6627 85.6836 92.7211 14.3055 180.236 2.85917C233.198 -4.06837 294.937 9.90385 339.644 47.3837C433.492 126.058 426.81 284.993 363.709 351.466Z" fill="url(#paint0_linear_15_914)"/>
    <g opacity="0.3">
      <path opacity="0.3" d="M90.4177 135.543C91.0455 134.689 92.2455 134.508 93.0972 135.136C94.7537 136.355 96.4863 137.522 98.2497 138.603C99.1424 139.149 99.4292 140.309 98.9024 141.208C98.8965 141.218 98.8892 141.23 98.8834 141.24C98.3302 142.144 97.1507 142.428 96.2478 141.874C94.3923 140.737 92.5674 139.509 90.8231 138.224C90.0255 137.637 89.8148 136.547 90.305 135.711C90.3401 135.654 90.3767 135.598 90.4177 135.543ZM107.192 143.273C109.086 144.102 111.032 144.859 112.979 145.52C113.98 145.862 114.517 146.951 114.177 147.953C113.832 148.959 112.747 149.492 111.745 149.15C109.696 148.453 107.648 147.658 105.656 146.786C104.686 146.361 104.244 145.229 104.67 144.26C104.7 144.189 104.735 144.122 104.773 144.056C105.256 143.23 106.294 142.879 107.192 143.273ZM122.728 148.095C124.752 148.481 126.818 148.783 128.868 148.994C129.92 149.102 130.687 150.044 130.579 151.098C130.469 152.151 129.529 152.918 128.476 152.81C126.316 152.588 124.14 152.269 122.009 151.864C120.969 151.666 120.287 150.661 120.484 149.62C120.527 149.399 120.606 149.193 120.714 149.008C121.114 148.329 121.91 147.938 122.728 148.095ZM138.949 149.319C141.011 149.243 143.094 149.074 145.139 148.822C146.19 148.693 147.147 149.44 147.276 150.49C147.405 151.542 146.658 152.498 145.609 152.628C143.455 152.895 141.263 153.07 139.093 153.151C138.035 153.19 137.145 152.364 137.105 151.306C137.091 150.927 137.187 150.569 137.366 150.266C137.686 149.721 138.27 149.345 138.949 149.319ZM155.039 146.897C157.028 146.365 159.022 145.74 160.966 145.04C161.962 144.681 163.06 145.198 163.418 146.195C163.777 147.193 163.26 148.291 162.264 148.65C160.219 149.386 158.121 150.044 156.028 150.603C155.005 150.877 153.955 150.269 153.683 149.246C153.545 148.73 153.63 148.207 153.88 147.78C154.126 147.36 154.531 147.033 155.039 146.897ZM170.192 140.974C172.017 140.013 173.823 138.963 175.56 137.852C176.451 137.281 177.638 137.542 178.207 138.433C178.778 139.325 178.518 140.511 177.626 141.082C175.799 142.252 173.898 143.358 171.978 144.368C171.041 144.86 169.882 144.5 169.389 143.563C169.069 142.953 169.109 142.251 169.433 141.699C169.607 141.401 169.865 141.147 170.192 140.974ZM210.751 82.4492C211.804 82.559 212.569 83.502 212.459 84.5563C212.234 86.7147 211.912 88.8921 211.501 91.0285C211.3 92.0681 210.296 92.749 209.256 92.5499C208.217 92.3507 207.536 91.3447 207.737 90.3051C208.128 88.2771 208.433 86.2095 208.646 84.1595C208.675 83.8784 208.763 83.6177 208.897 83.3893C209.266 82.7582 209.98 82.3687 210.751 82.4492ZM183.648 131.841C185.213 130.5 186.739 129.075 188.182 127.603C188.924 126.848 190.138 126.838 190.892 127.58C191.647 128.322 191.654 129.533 190.915 130.292C189.395 131.841 187.788 133.342 186.14 134.754C185.337 135.442 184.127 135.349 183.437 134.544C182.892 133.906 182.837 133.012 183.24 132.326C183.347 132.149 183.483 131.985 183.648 131.841ZM207.579 98.8595C208.58 99.2021 209.114 100.293 208.771 101.295C208.069 103.348 207.269 105.396 206.395 107.386C205.972 108.358 204.838 108.795 203.869 108.369C202.9 107.942 202.461 106.811 202.887 105.841C203.718 103.951 204.479 102.003 205.147 100.051C205.189 99.9269 205.243 99.8098 205.308 99.7014C205.757 98.9327 206.702 98.5593 207.579 98.8595ZM194.726 119.932C195.951 118.276 197.12 116.544 198.2 114.785C198.755 113.883 199.934 113.6 200.837 114.155C201.727 114.703 202.012 115.861 201.487 116.759C201.479 116.771 201.474 116.782 201.465 116.794C200.328 118.646 199.097 120.469 197.808 122.213C197.177 123.064 195.977 123.244 195.127 122.615C194.332 122.026 194.123 120.939 194.612 120.105C194.647 120.045 194.685 119.988 194.726 119.932Z" fill="#91B3FA"/>
      <path opacity="0.3" d="M209.077 69.9208C208.887 70.2458 208.789 70.6324 208.82 71.0366C208.896 72.022 208.953 73.0265 208.989 74.0208C209.028 75.0794 209.917 75.9068 210.975 75.8672C212.033 75.8292 212.861 74.9389 212.821 73.8802C212.782 72.8347 212.722 71.7789 212.642 70.7408C212.56 69.685 211.638 68.8943 210.583 68.9763C209.933 69.0276 209.383 69.398 209.077 69.9208Z" fill="#91B3FA"/>
    </g>
    <g opacity="0.3">
      <path opacity="0.3" d="M182.174 18.0146C181.706 18.8126 181.873 19.8552 182.611 20.4629C183.373 21.091 184.135 21.747 184.876 22.4104C185.665 23.1176 186.876 23.0503 187.583 22.261C188.293 21.4688 188.223 20.2593 187.434 19.5521C186.654 18.8536 185.852 18.1639 185.049 17.5006C184.232 16.827 183.023 16.9442 182.35 17.7613C182.283 17.8433 182.226 17.9282 182.174 18.0146Z" fill="#91B3FA"/>
      <path opacity="0.3" d="M72.288 34.5611C72.8675 33.6752 74.0557 33.4263 74.9411 34.0061C75.8264 34.586 76.0737 35.7735 75.4957 36.6609C74.3923 38.3477 73.3431 40.1093 72.3655 41.9133C71.8665 42.8416 70.6973 43.1901 69.7666 42.685C68.8358 42.1798 68.4905 41.0157 68.9954 40.0844C69.4183 39.3025 69.8544 38.5308 70.3007 37.7693C70.9373 36.6843 71.606 35.6051 72.288 34.5611ZM67.1222 48.4747C68.1115 48.8481 68.6119 49.9551 68.2373 50.9465C67.5203 52.8486 66.8749 54.8019 66.3203 56.7523C66.0335 57.7715 64.9711 58.3616 63.9525 58.0731C62.9355 57.7832 62.3443 56.7231 62.634 55.7039C63.2179 53.651 63.8969 51.5951 64.652 49.5935C64.6916 49.4895 64.7384 49.3914 64.7925 49.2991C65.2564 48.5055 66.2354 48.1394 67.1222 48.4747ZM78.5922 26.2278C79.9926 24.6186 81.4809 23.0474 83.0174 21.5582C83.7769 20.8217 84.9915 20.8407 85.7276 21.6007C86.4637 22.3607 86.4447 23.5746 85.6852 24.3126C84.2262 25.7271 82.8126 27.2177 81.4838 28.7464C80.7887 29.5445 79.5785 29.6294 78.7795 28.9338C78.0742 28.3188 77.9264 27.2997 78.3844 26.5192C78.4429 26.4182 78.5117 26.3201 78.5922 26.2278ZM62.6355 64.2993C63.6833 64.4472 64.415 65.4165 64.2672 66.465C63.9847 68.4754 63.7843 70.5225 63.673 72.5476C63.6145 73.6063 62.7116 74.416 61.6536 74.356C60.597 74.2974 59.7878 73.394 59.8463 72.3353C59.9634 70.2018 60.1741 68.0464 60.4712 65.929C60.5078 65.6728 60.5912 65.4356 60.7141 65.2262C61.096 64.5775 61.8438 64.1865 62.6355 64.2993ZM90.9929 14.824C92.7123 13.5632 94.5079 12.3581 96.3342 11.2438C97.2371 10.6918 98.4166 10.9773 98.9683 11.8808C99.52 12.7857 99.2346 13.9659 98.3317 14.518C96.5976 15.5781 94.8913 16.7217 93.2596 17.9195C92.405 18.5462 91.2065 18.3602 90.5802 17.5066C90.1134 16.8696 90.0973 16.0408 90.4734 15.4024C90.6007 15.1798 90.7763 14.9836 90.9929 14.824ZM105.593 6.41606C107.551 5.55945 109.566 4.77606 111.586 4.08638C112.588 3.7452 113.677 4.27967 114.019 5.2827C114.362 6.2872 113.826 7.37663 112.824 7.71635C110.905 8.37088 108.989 9.1162 107.128 9.92888C106.158 10.3535 105.028 9.90985 104.604 8.93902C104.349 8.35477 104.408 7.71049 104.708 7.19945C104.907 6.8656 105.208 6.58445 105.593 6.41606ZM121.678 1.39356C123.777 0.98356 125.916 0.658489 128.035 0.425667C129.088 0.309989 130.034 1.06995 130.15 2.12277C130.266 3.17706 129.506 4.12299 128.454 4.23867C126.439 4.45977 124.408 4.76874 122.413 5.15824C121.374 5.36177 120.367 4.68235 120.165 3.6427C120.072 3.16535 120.164 2.69531 120.392 2.30581C120.66 1.84749 121.117 1.50338 121.678 1.39356ZM138.475 0.00102458C140.612 0.0610603 142.772 0.211882 144.892 0.452025C145.944 0.570632 146.701 1.52095 146.582 2.57231C146.464 3.62367 145.514 4.3807 144.462 4.2621C142.448 4.03513 140.398 3.89163 138.368 3.83452C137.31 3.80524 136.476 2.92374 136.505 1.86506C136.514 1.5312 136.609 1.21931 136.767 0.949882C137.11 0.365632 137.751 -0.0194754 138.475 0.00102458ZM155.177 2.33656C157.243 2.8637 159.314 3.48749 161.333 4.18888C162.333 4.53592 162.862 5.62974 162.516 6.62985C162.169 7.62702 161.077 8.16002 160.076 7.81152C158.158 7.14527 156.191 6.55224 154.228 6.05145C153.203 5.78935 152.584 4.74531 152.845 3.71885C152.891 3.5402 152.96 3.37327 153.049 3.22245C153.469 2.50349 154.329 2.11985 155.177 2.33656ZM170.94 8.27717C172.342 8.98881 173.738 9.7517 175.092 10.5453C175.582 10.8323 176.066 11.1252 176.548 11.4225C177.449 11.9774 177.754 13.1591 177.174 14.0611C176.62 14.9631 175.439 15.2442 174.537 14.6878C174.081 14.4067 173.618 14.1285 173.153 13.8546C171.866 13.0991 170.539 12.3742 169.206 11.6977C168.262 11.2189 167.885 10.0651 168.363 9.1206C168.381 9.08545 168.4 9.05031 168.42 9.01663C168.929 8.14831 170.033 7.81592 170.94 8.27717Z" fill="#91B3FA"/>
      <path opacity="0.3" d="M60.2473 81.7127C60.0541 82.0421 59.9576 82.4302 59.9912 82.8387C60.0761 83.874 60.1858 84.9268 60.3146 85.9679C60.4449 87.0192 61.4019 87.766 62.4526 87.6357C63.5033 87.5054 64.2496 86.5477 64.1194 85.4964C63.9965 84.508 63.894 83.5079 63.8121 82.5254C63.7257 81.4696 62.7994 80.6848 61.7443 80.7711C61.0975 80.8239 60.5517 81.1929 60.2473 81.7127Z" fill="#91B3FA"/>
    </g>
    <path d="M85.2901 102.999C85.4232 103.358 85.7686 103.592 86.1505 103.583L97.0498 103.322C99.8653 107.567 103.379 111.394 107.519 114.606L106.459 125.457C106.423 125.837 106.631 126.199 106.977 126.359L118.867 131.807C119.214 131.967 119.625 131.888 119.889 131.611L127.408 123.72C132.544 124.758 137.733 124.921 142.785 124.281L149.708 132.709C149.951 133.005 150.353 133.113 150.712 132.98L162.971 128.42C163.329 128.287 163.563 127.942 163.554 127.559L163.294 116.653C167.536 113.836 171.36 110.32 174.571 106.178L185.414 107.238C185.795 107.275 186.156 107.067 186.316 106.72L191.761 94.8223C191.921 94.4738 191.842 94.0638 191.565 93.8002L183.679 86.2767C184.716 81.1371 184.879 75.9447 184.239 70.89L192.663 63.9624C192.958 63.7194 193.066 63.3167 192.933 62.9579L188.376 50.6916C188.243 50.3329 187.898 50.0986 187.516 50.1074L176.615 50.368C173.8 46.123 170.286 42.2969 166.146 39.0842L167.206 28.2339C167.244 27.8532 167.034 27.4915 166.688 27.3319L154.798 21.8833C154.451 21.7236 154.04 21.8027 153.776 22.0795L146.257 29.9705C141.121 28.9323 135.932 28.7698 130.88 29.4097L123.957 20.9813C123.714 20.6855 123.312 20.5771 122.953 20.7104L110.694 25.2701C110.336 25.4034 110.102 25.749 110.11 26.1312L110.371 37.0372C106.129 39.8544 102.305 43.3702 99.0941 47.5127L88.2505 46.4525C87.87 46.4159 87.5085 46.6238 87.349 46.9709L81.9038 58.8682C81.7443 59.2152 81.8233 59.6267 82.0999 59.8903L89.986 67.4138C88.9485 72.5534 88.7875 77.7458 89.4256 82.8005L81.0024 89.728C80.7068 89.9711 80.5985 90.3738 80.7316 90.7325L85.2901 102.999Z" fill="#91B3FA"/>
    <path d="M126.585 68.6057C131.125 62.9507 139.415 62.0457 145.066 66.588C147.804 68.7888 149.521 71.9238 149.903 75.4161C150.283 78.9085 149.284 82.3407 147.083 85.0804C142.543 90.7355 134.253 91.6404 128.602 87.0982C123.461 82.966 122.248 75.7266 125.489 70.196C125.81 69.6468 126.175 69.1153 126.585 68.6057ZM146.853 75.7485C146.56 73.0703 145.245 70.666 143.145 68.9791C138.812 65.4971 132.455 66.1911 128.975 70.5269C125.492 74.8626 126.189 81.2235 130.522 84.7056C134.855 88.1876 141.212 87.4936 144.691 83.1578C145.008 82.7639 145.29 82.3539 145.54 81.9264C146.628 80.0726 147.09 77.9259 146.853 75.7485Z" fill="#BDD0FB"/>
    <path d="M109.246 60.3529C108.689 61.3032 108.177 62.2858 107.712 63.3005C107.566 63.6197 107.425 63.9419 107.289 64.2655C106.619 65.863 106.077 67.5118 105.672 69.1855C105.666 69.2089 105.66 69.2309 105.656 69.2543C105.64 69.3187 105.625 69.3832 105.611 69.449C105.581 69.575 105.552 69.7024 105.524 69.8283C105.451 70.1607 105.605 70.4916 105.884 70.6556C105.952 70.6952 106.028 70.7259 106.108 70.7435C106.521 70.8343 106.929 70.5722 107.021 70.1592C107.491 68.0302 108.192 65.9377 109.108 63.9404C113.649 54.014 122.833 47.6546 132.914 46.2533C138.52 45.4728 144.405 46.2284 149.922 48.7558C150.889 49.1994 151.827 49.687 152.733 50.22C158.826 53.7973 163.467 59.3162 165.962 66.0314C168.828 73.7453 168.521 82.1137 165.097 89.5962C158.023 105.047 139.717 111.853 124.283 104.781C123.332 104.344 122.406 103.863 121.509 103.336C117.622 101.054 114.277 97.947 111.726 94.2248C111.66 94.1281 111.577 94.052 111.482 93.9978C111.234 93.8528 110.912 93.8528 110.661 94.0271C110.312 94.2687 110.222 94.7431 110.462 95.0945C113.141 99.0013 116.652 102.265 120.733 104.661C121.674 105.214 122.647 105.719 123.645 106.178C139.851 113.605 159.074 106.447 166.493 90.2375C170.088 82.3831 170.41 73.5974 167.402 65.4999C164.782 58.4493 159.911 52.6566 153.514 48.9007C152.563 48.3428 151.578 47.8303 150.564 47.3647C142.713 43.7669 133.933 43.4448 125.84 46.4554C118.79 49.0735 112.999 53.9496 109.246 60.3529Z" fill="#BDD0FB"/>
    <g opacity="0.3">
      <path opacity="0.3" d="M13.649 166.6C13.3899 167.042 13.4397 167.618 13.8085 168.01C14.4963 168.742 15.2177 169.464 15.9494 170.155C16.425 170.604 17.1742 170.582 17.6235 170.106C18.0742 169.631 18.0493 168.88 17.5738 168.431C16.8757 167.773 16.1894 167.085 15.5323 166.386C15.0845 165.91 14.3353 165.887 13.8597 166.335C13.7734 166.416 13.7046 166.505 13.649 166.6Z" fill="#91B3FA"/>
      <path opacity="0.3" d="M20.5371 172.533C20.9234 172.006 21.6639 171.891 22.1922 172.279C23.5239 173.254 24.9214 174.172 26.3438 175.007C26.6438 175.182 26.9467 175.357 27.2525 175.526C27.8233 175.846 28.0267 176.568 27.7077 177.139C27.3843 177.667 26.6672 177.913 26.0965 177.595C25.776 177.417 25.4599 177.235 25.1453 177.051C23.6541 176.175 22.1893 175.213 20.7932 174.19C20.2986 173.828 20.1669 173.154 20.4713 172.636C20.4903 172.601 20.5137 172.567 20.5371 172.533ZM32.67 178.136C34.5226 178.893 36.4382 179.542 38.364 180.063C38.9947 180.234 39.3679 180.884 39.1966 181.515C39.0254 182.144 38.3757 182.52 37.745 182.349C35.727 181.802 33.7178 181.121 31.7759 180.328C31.17 180.08 30.8803 179.389 31.1261 178.783C31.1481 178.73 31.1744 178.679 31.2022 178.631C31.4963 178.131 32.1183 177.91 32.67 178.136ZM44.2541 181.271C46.2326 181.55 48.2476 181.707 50.2481 181.738C50.9007 181.748 51.4232 182.287 51.4129 182.942C51.4027 183.598 50.8656 184.119 50.2115 184.107C48.1145 184.075 45.9999 183.908 43.9248 183.617C43.278 183.526 42.8258 182.925 42.9165 182.278C42.94 182.12 42.9912 181.974 43.0673 181.845C43.3029 181.444 43.7638 181.202 44.2541 181.271ZM56.2538 181.461C58.2425 181.246 60.2371 180.905 62.1775 180.448C62.8141 180.299 63.4521 180.692 63.6014 181.329C63.7507 181.965 63.357 182.603 62.7205 182.754C60.6834 183.234 58.5937 183.592 56.507 183.817C55.8572 183.887 55.2733 183.417 55.2016 182.766C55.1738 182.504 55.2338 182.252 55.3567 182.041C55.5426 181.728 55.866 181.502 56.2538 181.461ZM67.9359 178.714C69.812 178.022 71.6617 177.206 73.4368 176.291C74.0177 175.991 74.7319 176.219 75.0319 176.802C75.3318 177.383 75.105 178.098 74.5211 178.398C72.6612 179.357 70.7222 180.212 68.7554 180.938C68.1423 181.164 67.4618 180.851 67.235 180.237C67.1077 179.89 67.1516 179.522 67.3242 179.227C67.4589 178.998 67.6681 178.814 67.9359 178.714ZM78.5981 173.214C80.2473 172.087 81.8424 170.847 83.338 169.524C83.8282 169.091 84.576 169.138 85.0092 169.628C85.4409 170.119 85.3955 170.864 84.9053 171.301C83.338 172.686 81.6639 173.987 79.9342 175.171C79.3942 175.54 78.6581 175.401 78.2893 174.86C78.023 174.469 78.0215 173.974 78.2454 173.592C78.3303 173.446 78.4488 173.315 78.5981 173.214ZM87.5876 165.274C88.9062 163.78 90.1486 162.184 91.2797 160.529C91.65 159.99 92.3861 159.851 92.9246 160.22C93.4646 160.589 93.5948 161.32 93.2334 161.868C92.0466 163.603 90.7442 165.276 89.3613 166.842C88.9281 167.332 88.1803 167.378 87.6901 166.946C87.2598 166.565 87.172 165.938 87.453 165.459C87.4911 165.395 87.5364 165.334 87.5876 165.274ZM98.3128 149.162C98.9259 149.389 99.2391 150.07 99.0122 150.683C98.3845 152.382 97.6513 154.075 96.8391 155.712C96.7162 155.961 96.5918 156.208 96.4645 156.454C96.1821 157.041 95.4489 157.262 94.868 156.959C94.287 156.658 94.0616 155.943 94.3616 155.362C94.4816 155.132 94.5987 154.899 94.7158 154.662C95.4943 153.095 96.1923 151.481 96.7923 149.86C96.8172 149.793 96.8464 149.73 96.8816 149.672C97.1655 149.185 97.7669 148.958 98.3128 149.162Z" fill="#91B3FA"/>
    </g>
    <g opacity="0.3">
      <path opacity="0.3" d="M7.31253 106.449C8.37933 104.681 9.5632 102.965 10.8305 101.344C11.2344 100.83 11.9778 100.738 12.4929 101.142C13.008 101.546 13.0899 102.29 12.6948 102.806C11.4861 104.35 10.3564 105.989 9.33931 107.674C9.00127 108.235 8.27397 108.414 7.71496 108.075C7.16034 107.74 6.97888 107.02 7.30521 106.463C7.30667 106.459 7.3096 106.453 7.31253 106.449ZM5.99695 111.35C6.59255 111.618 6.85888 112.32 6.58962 112.916C5.78183 114.71 5.07502 116.571 4.48821 118.448C4.29212 119.068 3.6292 119.421 3.00434 119.225C2.38094 119.03 2.03412 118.365 2.22875 117.741C2.84337 115.775 3.5853 113.824 4.4326 111.944C4.45016 111.905 4.46918 111.867 4.49113 111.83C4.79113 111.314 5.4394 111.099 5.99695 111.35ZM14.9455 96.7024C16.4089 95.2454 17.9718 93.8646 19.5947 92.5994C20.1098 92.1968 20.8546 92.2905 21.2556 92.8059C21.658 93.3213 21.5658 94.0637 21.0507 94.4679C19.5025 95.6744 18.0113 96.9908 16.6152 98.3819C16.1513 98.8432 15.4021 98.8417 14.9411 98.379C14.5533 97.9895 14.4933 97.3964 14.7582 96.944C14.8094 96.8576 14.8723 96.7756 14.9455 96.7024ZM2.119 122.815C2.76142 122.932 3.18873 123.55 3.07166 124.193C2.71898 126.129 2.48045 128.105 2.36631 130.068C2.3268 130.719 1.76632 131.219 1.11659 131.18C0.463919 131.142 -0.0350933 130.582 0.00295451 129.929C0.122952 127.87 0.371726 125.796 0.74196 123.767C0.768301 123.626 0.816593 123.496 0.885371 123.38C1.12976 122.964 1.6156 122.723 2.119 122.815ZM24.7048 89.0939C26.4711 88.0338 28.3208 87.0703 30.2027 86.2298C30.7997 85.9633 31.5007 86.2327 31.7656 86.8302C32.0319 87.4276 31.7641 88.129 31.1656 88.3955C29.37 89.195 27.6067 90.1146 25.9223 91.1264C25.3618 91.4632 24.6345 91.2816 24.298 90.7193C24.0667 90.3357 24.0799 89.8715 24.2921 89.5098C24.3901 89.3443 24.5277 89.1994 24.7048 89.0939ZM36.0035 84.048C37.9761 83.4403 40.0029 82.9483 42.0268 82.5823C42.6692 82.4666 43.2853 82.8942 43.4009 83.537C43.518 84.1798 43.0907 84.7963 42.4453 84.9134C40.5151 85.2619 38.582 85.7319 36.6986 86.3118C36.0738 86.5051 35.4108 86.1537 35.2191 85.5284C35.1182 85.1975 35.1679 84.8578 35.3304 84.5795C35.4752 84.335 35.7094 84.1388 36.0035 84.048ZM48.1861 81.856C50.248 81.7388 52.3348 81.7462 54.3879 81.8794C55.0406 81.9219 55.5352 82.4856 55.4928 83.1387C55.4503 83.7918 54.8869 84.2852 54.2357 84.2442C52.2777 84.1168 50.2875 84.108 48.3222 84.2223C47.6696 84.2589 47.1091 83.7595 47.0725 83.1065C47.0579 82.8634 47.1179 82.635 47.232 82.4402C47.4252 82.1108 47.7749 81.8794 48.1861 81.856Z" fill="#91B3FA"/>
      <path opacity="0.3" d="M0.180031 135.516C0.0644243 135.714 0.00442583 135.945 0.020523 136.191C0.0849116 137.203 0.181495 138.218 0.304418 139.206C0.384904 139.855 0.976109 140.316 1.62585 140.236C2.27266 140.154 2.73363 139.564 2.6546 138.913C2.53753 137.97 2.4468 137.002 2.38388 136.038C2.34144 135.384 1.77804 134.89 1.12684 134.932C0.718554 134.96 0.371734 135.188 0.180031 135.516Z" fill="#91B3FA"/>
    </g>
    <path d="M16.9196 150.616C17.0088 150.856 17.2401 151.013 17.4961 151.007L24.7896 150.832C26.6744 153.673 29.0246 156.233 31.7948 158.382L31.0865 165.644C31.0617 165.899 31.2007 166.14 31.4334 166.247L39.3897 169.893C39.6224 170 39.8975 169.947 40.0731 169.761L45.1042 164.481C48.5417 165.177 52.0143 165.285 55.3947 164.856L60.0278 170.495C60.1902 170.693 60.4594 170.766 60.6994 170.676L68.9017 167.625C69.1417 167.536 69.2982 167.304 69.2924 167.048L69.1183 159.75C71.9572 157.864 74.5152 155.512 76.6634 152.739L83.9203 153.448C84.1749 153.473 84.4179 153.333 84.5232 153.101L88.167 145.139C88.2739 144.907 88.2212 144.633 88.0353 144.456L82.7584 139.421C83.4535 135.982 83.5618 132.507 83.133 129.124L88.7685 124.489C88.966 124.326 89.0392 124.057 88.95 123.816L85.9003 115.611C85.811 115.37 85.5798 115.214 85.3237 115.22L78.0302 115.394C76.1454 112.553 73.7952 109.994 71.025 107.844L71.7333 100.583C71.7582 100.328 71.6192 100.086 71.3865 99.9793L63.4301 96.3332C63.1974 96.2264 62.9238 96.2791 62.7467 96.465L57.7156 101.745C54.2781 101.05 50.8055 100.943 47.4251 101.37L42.7921 95.7314C42.6297 95.5338 42.3604 95.4605 42.1204 95.5499L33.9182 98.6014C33.6782 98.6907 33.5216 98.9221 33.5274 99.1784L33.7016 106.476C30.8626 108.362 28.3047 110.714 26.1564 113.486L18.8995 112.777C18.6449 112.752 18.4034 112.891 18.2966 113.124L14.6528 121.086C14.546 121.318 14.5987 121.592 14.7845 121.769L20.0614 126.804C19.3663 130.243 19.2595 133.718 19.6868 137.1L14.0514 141.736C13.8538 141.899 13.7806 142.168 13.8699 142.408L16.9196 150.616Z" fill="#91B3FA"/>
    <path d="M44.4282 127.502C45.9252 125.635 48.0603 124.465 50.4383 124.206C52.8148 123.945 55.1518 124.629 57.0161 126.127C60.8648 129.221 61.4795 134.862 58.3903 138.724C55.2967 142.575 49.6495 143.192 45.8023 140.098C43.9379 138.6 42.7672 136.463 42.5082 134.084C42.2975 132.15 42.7087 130.243 43.6745 128.594C43.897 128.218 44.1487 127.852 44.4282 127.502ZM55.5352 127.975C54.1626 126.872 52.4446 126.37 50.6944 126.56C48.9456 126.751 47.3754 127.613 46.2735 128.985C45.173 130.359 44.6696 132.078 44.8613 133.828C45.0516 135.578 45.9135 137.149 47.2847 138.251C50.1163 140.527 54.2694 140.074 56.5449 137.241C56.7498 136.985 56.9327 136.718 57.0937 136.444C58.7181 133.673 58.1108 130.045 55.5352 127.975Z" fill="#BDD0FB"/>
    <path d="M32.3612 121.759C31.9821 122.406 31.6339 123.077 31.3148 123.773C30.6827 125.153 30.1895 126.6 29.85 128.076C29.8354 128.142 29.8207 128.209 29.8061 128.275C29.6919 128.789 29.9319 129.299 30.3622 129.552C30.4675 129.614 30.5831 129.659 30.7075 129.687C31.3456 129.827 31.9748 129.422 32.1182 128.785C32.4226 127.404 32.8777 126.049 33.4689 124.759C33.5011 124.689 33.5348 124.617 33.567 124.547C34.9938 121.506 37.1244 118.936 39.7615 116.999C41.1926 115.947 42.7746 115.082 44.475 114.432C44.4882 114.426 44.5028 114.422 44.516 114.416C44.5584 114.4 44.6009 114.384 44.6433 114.369C49.6334 112.512 55.0479 112.711 59.8888 114.93C60.5151 115.217 61.1224 115.533 61.7092 115.877C65.6545 118.192 68.6573 121.765 70.2744 126.114C72.1299 131.107 71.9294 136.525 69.7124 141.367C67.4954 146.207 63.5267 149.901 58.5366 151.758C53.5465 153.615 48.132 153.416 43.2911 151.197C42.675 150.916 42.0751 150.603 41.4956 150.261C38.9785 148.784 36.8142 146.772 35.1621 144.363C35.0596 144.215 34.9308 144.097 34.7845 144.012C34.4011 143.788 33.9065 143.788 33.5158 144.057C32.9772 144.429 32.8382 145.164 33.2099 145.705C35.0582 148.4 37.48 150.651 40.2956 152.304C40.9453 152.686 41.6156 153.035 42.3048 153.351C47.7208 155.833 53.7792 156.056 59.3619 153.978C64.9447 151.9 69.3876 147.777 71.8651 142.353C74.3455 136.934 74.5679 130.873 72.4914 125.287C70.6841 120.422 67.3242 116.425 62.9106 113.834C62.255 113.449 61.576 113.095 60.8751 112.774C50.3885 107.971 38.0742 112.011 32.3612 121.759Z" fill="#BDD0FB"/>
    <path d="M386.074 257.302C382.268 344.07 303.306 411.076 209.707 406.964C116.107 402.852 43.3175 329.181 47.1237 242.414C50.93 155.646 129.892 88.6401 223.492 92.7518C317.089 96.8635 389.881 170.536 386.074 257.302Z" fill="url(#paint1_linear_15_914)"/>
    <path opacity="0.31" d="M207.418 364.34C280.934 364.34 340.531 308.005 340.531 238.513C340.531 169.02 280.934 112.685 207.418 112.685C133.901 112.685 74.3045 169.02 74.3045 238.513C74.3045 308.005 133.901 364.34 207.418 364.34Z" fill="#91B3FA"/>
    <g opacity="0.68">
      <path opacity="0.68" d="M259.935 250.618C259.895 278.354 257.994 306.147 253.109 333.489C251.872 340.319 250.438 347.117 248.73 353.85C247.017 360.58 245.038 367.253 242.616 373.775C240.174 380.281 237.339 386.693 233.495 392.554C231.558 395.464 229.361 398.25 226.65 400.543C225.294 401.682 223.806 402.693 222.169 403.432C220.536 404.167 218.749 404.633 216.937 404.665C215.127 404.718 213.315 404.364 211.648 403.693C209.976 403.028 208.451 402.063 207.064 400.962C204.288 398.741 202.043 395.984 200.07 393.097C196.159 387.278 193.285 380.879 190.817 374.382C188.365 367.871 186.367 361.204 184.639 354.478C182.914 347.75 181.466 340.956 180.218 334.128C177.729 320.469 176.033 306.678 174.887 292.851C173.75 279.021 173.179 265.147 173.11 251.27C173.077 244.332 173.266 237.395 173.511 230.464C173.77 223.532 174.152 216.604 174.663 209.687C175.689 195.852 177.22 182.048 179.497 168.359C180.639 161.515 181.971 154.701 183.574 147.947C185.18 141.195 187.048 134.496 189.363 127.943C190.526 124.669 191.799 121.431 193.251 118.268C194.7 115.107 196.321 112.015 198.228 109.09C200.138 106.179 202.334 103.4 205.069 101.176C206.436 100.073 207.942 99.1142 209.592 98.464C211.236 97.8051 213.02 97.4727 214.793 97.5401C216.568 97.5913 218.319 98.0335 219.933 98.7452C221.55 99.4597 223.035 100.432 224.399 101.535C227.127 103.753 229.385 106.465 231.386 109.311C235.368 115.047 238.37 121.371 240.97 127.807C243.552 134.26 245.682 140.88 247.539 147.569C249.389 154.261 250.955 161.027 252.311 167.833C257.676 195.081 259.855 222.877 259.935 250.618ZM257.884 250.618C257.909 236.798 257.385 222.974 256.236 209.202C255.105 195.43 253.39 181.698 250.836 168.119C249.56 161.33 248.075 154.578 246.309 147.903C244.535 141.23 242.488 134.626 239.996 128.192C237.486 121.777 234.574 115.473 230.71 109.78C228.768 106.952 226.578 104.268 223.95 102.084C222.635 100.999 221.21 100.044 219.666 99.3411C218.124 98.647 216.464 98.1917 214.774 98.1477C213.087 98.0936 211.401 98.4333 209.84 99.0776C208.272 99.7145 206.834 100.65 205.523 101.732C202.899 103.914 200.774 106.657 198.926 109.543C197.082 112.441 195.512 115.514 194.111 118.659C192.709 121.806 191.482 125.032 190.362 128.293C188.135 134.824 186.351 141.504 184.826 148.238C183.306 154.975 182.053 161.774 180.991 168.6C178.872 182.258 177.496 196.026 176.625 209.822C175.746 223.618 175.442 237.445 175.466 251.267C175.43 265.087 175.891 278.909 176.918 292.691C177.953 306.47 179.538 320.215 181.91 333.826C183.098 340.629 184.487 347.398 186.149 354.098C187.814 360.794 189.748 367.428 192.127 373.895C194.52 380.345 197.316 386.691 201.097 392.406C203 395.24 205.166 397.928 207.79 400.059C209.101 401.116 210.528 402.031 212.07 402.658C213.608 403.286 215.257 403.634 216.911 403.579C218.563 403.536 220.192 403.1 221.703 402.406C223.218 401.707 224.614 400.747 225.896 399.65C228.463 397.446 230.582 394.724 232.45 391.866C236.164 386.105 238.921 379.745 241.288 373.284C243.635 366.805 245.546 360.166 247.195 353.465C248.84 346.762 250.211 339.989 251.388 333.185C253.744 319.573 255.308 305.826 256.349 292.046C257.402 278.265 257.89 264.441 257.884 250.618Z" fill="white"/>
      <path opacity="0.68" d="M329.862 250.618C329.766 268.479 327.472 286.348 322.692 303.572C317.831 320.757 310.501 337.289 300.552 352.132C295.576 359.546 289.939 366.523 283.641 372.855C277.345 379.184 270.383 384.864 262.824 389.624C255.259 394.365 247.089 398.161 238.535 400.736C229.987 403.318 221.062 404.664 212.131 404.674C203.199 404.672 194.274 403.334 185.72 400.76C177.162 398.191 168.985 394.402 161.412 389.665C153.846 384.91 146.873 379.235 140.566 372.909C134.258 366.581 128.609 359.605 123.622 352.191C113.652 337.346 106.307 320.807 101.422 303.613C99.018 295 97.2313 286.219 96.0474 277.357C94.8694 268.495 94.2782 259.559 94.2372 250.618C94.284 241.677 94.8811 232.742 96.0635 223.881C97.2532 215.023 99.0458 206.243 101.456 197.633C106.352 180.446 113.709 163.919 123.685 149.089C128.673 141.682 134.322 134.714 140.631 128.394C146.936 122.077 153.905 116.407 161.469 111.667C169.039 106.942 177.215 103.18 185.758 100.613C194.296 98.0363 203.208 96.6907 212.128 96.6819C221.049 96.698 229.958 98.0495 238.491 100.634C247.03 103.208 255.199 106.977 262.761 111.707C270.318 116.453 277.277 122.127 283.572 128.447C289.87 134.769 295.507 141.739 300.486 149.146C310.443 163.973 317.783 180.493 322.657 197.672C327.447 214.891 329.753 232.757 329.862 250.618ZM327.508 250.618C327.482 232.96 325.284 215.282 320.628 198.236C315.945 181.217 308.896 164.786 299.191 150.01C294.341 142.63 288.831 135.673 282.662 129.349C276.489 123.035 269.671 117.322 262.215 112.574C254.751 107.853 246.689 104.052 238.235 101.482C229.787 98.9091 220.966 97.5575 212.128 97.5282C203.291 97.5648 194.473 98.9252 186.028 101.504C177.579 104.081 169.525 107.89 162.068 112.615C154.619 117.368 147.813 123.086 141.651 129.401C135.491 135.729 129.993 142.687 125.155 150.067C115.469 164.841 108.435 181.265 103.775 198.275C101.455 206.79 99.7731 215.474 98.6346 224.221C97.4932 232.97 96.9298 241.793 96.9108 250.616C96.9357 259.442 97.5049 268.263 98.6522 277.01C99.7966 285.756 101.484 294.437 103.811 302.949C108.482 319.953 115.528 336.365 125.22 351.125C130.061 358.499 135.559 365.449 141.718 371.767C147.88 378.074 154.682 383.786 162.129 388.524C169.584 393.238 177.637 397.019 186.07 399.594C194.499 402.177 203.304 403.542 212.128 403.587C220.954 403.551 229.761 402.193 238.194 399.618C246.632 397.048 254.692 393.274 262.154 388.565C269.608 383.831 276.422 378.125 282.593 371.821C288.763 365.506 294.272 358.556 299.123 351.184C308.836 336.422 315.897 320.003 320.591 302.99C325.261 285.95 327.472 268.276 327.508 250.618Z" fill="white"/>
      <path opacity="0.68" d="M74.7465 189.658L110.103 189.373L145.46 189.21L216.172 189.08L286.884 189.223L322.24 189.401L357.597 189.709C357.654 189.709 357.701 189.756 357.699 189.815C357.699 189.872 357.653 189.917 357.597 189.917L322.24 190.226L286.884 190.404L216.172 190.547L145.46 190.415L110.103 190.253L74.7465 189.967C74.6616 189.966 74.5928 189.897 74.5928 189.811C74.5943 189.727 74.6631 189.658 74.7465 189.658Z" fill="white"/>
      <path opacity="0.68" d="M115.765 130.403C124.133 130.27 132.5 130.214 140.866 130.117L165.968 129.955C174.335 129.886 182.703 129.893 191.069 129.871L216.17 129.823L266.374 129.967L291.476 130.144C299.843 130.249 308.211 130.311 316.577 130.453C316.634 130.454 316.679 130.501 316.679 130.558C316.678 130.614 316.633 130.659 316.577 130.661C308.209 130.803 299.842 130.864 291.476 130.97L266.374 131.147L216.17 131.29L191.069 131.242C182.701 131.22 174.334 131.229 165.968 131.158L140.866 130.996C132.499 130.899 124.131 130.842 115.765 130.71C115.68 130.709 115.611 130.639 115.613 130.554C115.613 130.47 115.682 130.404 115.765 130.403Z" fill="white"/>
      <path opacity="0.68" d="M62.4599 248.914L100.888 248.628L139.317 248.466L216.172 248.335L293.027 248.479L331.455 248.656L369.883 248.965C369.941 248.965 369.987 249.012 369.986 249.069C369.986 249.126 369.939 249.171 369.883 249.171L331.455 249.48L293.027 249.657L216.172 249.801L139.317 249.671L100.888 249.508L62.4599 249.223C62.3751 249.223 62.3063 249.152 62.3063 249.067C62.3077 248.982 62.3765 248.914 62.4599 248.914Z" fill="white"/>
      <path opacity="0.68" d="M74.7465 308.169L110.103 307.883L145.46 307.721L216.172 307.59L286.884 307.734L322.24 307.911L357.597 308.22C357.654 308.22 357.701 308.267 357.699 308.325C357.699 308.382 357.653 308.428 357.597 308.428L322.24 308.737L286.884 308.914L216.172 309.058L145.46 308.926L110.103 308.763L74.7465 308.478C74.6616 308.478 74.5928 308.407 74.5928 308.322C74.5943 308.238 74.6631 308.169 74.7465 308.169Z" fill="white"/>
      <path opacity="0.68" d="M321.639 368.121H120.824C120.524 368.121 120.282 367.878 120.282 367.579C120.282 367.279 120.525 367.037 120.824 367.037H321.639C321.939 367.037 322.18 367.28 322.18 367.579C322.18 367.878 321.937 368.121 321.639 368.121Z" fill="white"/>
    </g>
    <path d="M174.36 162.745C174.36 162.745 165.856 157.164 164.68 158.45C164.261 158.908 163.282 160.463 162.371 162.162C161.728 163.36 161.926 164.836 162.871 165.814L165.063 168.081C167.151 170.24 170.687 170.087 172.531 167.713C173.46 166.517 174.201 164.903 174.36 162.745Z" fill="url(#paint2_linear_15_914)"/>
    <path d="M183.029 152.142C183.029 152.142 180.111 144.456 176.703 145.16C173.295 145.864 169.566 148.484 169.566 148.484L164.09 155.893C164.09 155.893 179.461 161.952 184.867 158.48C184.867 158.48 200.568 161.195 220.394 157.94C217.524 151.877 215.813 145.807 214.808 141.095C204.766 146.782 193.95 151.03 183.029 152.142Z" fill="url(#paint3_linear_15_914)"/>
    <path d="M266.194 96.3918C266.194 96.3918 243.715 124.721 214.808 141.095C215.812 145.807 217.522 151.877 220.394 157.94C235.389 155.477 252.744 149.601 267.459 136.544L266.194 96.3918Z" fill="url(#paint4_linear_15_914)"/>
    <path d="M294.228 221.957C289.832 201.064 285.436 188.967 270.718 149.364C266.086 136.901 261.879 124.291 263.911 111.151L266.194 96.392C266.194 96.392 294.8 86.7058 326.509 95.9835C326.509 95.9835 369.769 114.788 340.386 207.66C327.141 222.489 311.64 226.713 294.228 221.957Z" fill="url(#paint5_linear_15_914)"/>
    <path d="M271.064 77.5568L278.481 95.3874C278.949 96.5134 279.962 97.3158 281.163 97.5223C285.439 98.2559 295.782 99.4024 302.576 94.9334C303.385 94.4004 303.591 93.2993 303.038 92.5042L289.335 72.8184L271.064 77.5568Z" fill="url(#paint6_linear_15_914)"/>
    
    <g class="head2">
      <path d="M278.735 50.2757C278.424 50.5686 265.589 75.7909 265.589 75.7909L280.136 82.818L295.851 60.7219C295.851 60.7219 283.95 45.3631 278.735 50.2757Z" fill="url(#paint7_linear_15_914)"/>
      <path d="M289.24 63.3723L281.984 75.4746C281.874 75.6576 281.743 75.8246 281.586 75.9695C280.723 76.7734 277.767 79.1133 275.482 75.9285C273.535 73.2137 271.708 70.745 269.75 69.7273C268.607 69.1328 267.2 69.6072 266.62 70.7581C265.425 73.1288 263.11 77.9624 261.655 82.5442C261.291 83.6922 261.883 84.9266 263 85.379C265.946 86.5739 271.768 88.7337 276.934 89.4468C277.783 89.5639 278.623 89.2052 279.128 88.514C281.351 85.4669 287.615 76.9521 289.753 74.8215C291.739 72.8418 295.406 73.5886 297.058 74.063C297.686 74.2431 298.354 74.1567 298.913 73.82C300.588 72.8096 303.513 70.294 300.838 66.0343C300.172 64.9757 300.512 63.5656 301.557 62.8774C303.428 61.6459 305.46 59.3338 303.524 55.5896C301.566 51.8 298.068 51.4589 295.686 51.7502C294.632 51.8791 293.562 51.3256 293.157 50.3431C292.977 49.9067 292.621 49.5333 291.96 49.4001C290.712 49.1467 289.892 48.0046 290.137 46.7526C290.557 44.6075 290.241 41.8209 286.818 39.9393C280.541 36.4865 275.042 42.1123 273.644 46.8625C272.245 51.6126 279.265 54.9687 283.679 55.5296C286.922 55.941 288.7 59.4831 289.415 61.334C289.673 62.0046 289.61 62.7544 289.24 63.3723Z" fill="url(#paint8_linear_15_914)"/>
      <path d="M286.696 78.4442C286.696 78.4442 289.819 71.0935 293.391 71.3937C296.963 71.6939 299.776 75.255 295.348 79.2584C289.84 84.2384 286.696 78.4442 286.696 78.4442Z" fill="url(#paint9_linear_15_914)"/>  
    </g>
   
    <path d="M291.411 406.096C298.32 406.693 310.311 407.664 319.764 408.08C325.447 408.33 328.717 407.774 330.602 407.018C330.599 407.231 330.593 407.431 330.584 407.619C330.539 408.614 329.731 409.411 328.726 409.467C310.864 410.464 296.659 409.812 291.602 409.503C290.555 409.439 289.933 408.302 290.467 407.411C290.737 406.966 291.06 406.528 291.411 406.096Z" fill="url(#paint10_linear_15_914)"/>
    <path d="M319.764 408.08C310.311 407.664 298.321 406.693 291.411 406.096C298.204 397.756 319.764 392.136 319.764 392.136H325.853C330.042 398.177 330.647 403.928 330.602 407.02C328.717 407.774 325.447 408.33 319.764 408.08Z" fill="url(#paint11_linear_15_914)"/>
    <path d="M326.879 382.19L326.31 393.472C326.248 394.693 325.334 395.721 324.112 395.895C322.896 396.07 321.266 396.092 319.537 395.516C318.475 395.162 317.685 394.266 317.489 393.172L315.519 382.188H326.879V382.19Z" fill="url(#paint12_linear_15_914)"/>
    <path d="M405.967 407.995C408.963 407.577 410.319 406.019 410.887 404.354C410.892 404.369 410.895 404.385 410.899 404.4C411.339 406.156 410.318 407.976 408.275 408.843C405.806 409.89 403.106 410.067 401.009 409.98C398.762 409.888 396.697 408.957 395.563 407.466L395.545 407.444C397.803 408.561 400.971 408.693 405.967 407.995Z" fill="url(#paint13_linear_15_914)"/>
    <path d="M391.841 382.116H396.862C404.511 381.96 409.314 398.103 410.887 404.355C410.32 406.019 408.963 407.577 405.967 407.995C400.971 408.692 397.802 408.56 395.545 407.443C391.413 402.001 389.364 394.033 388.379 389.381C387.26 384.093 391.841 382.116 391.841 382.116Z" fill="url(#paint14_linear_15_914)"/>
    <path d="M396.218 371.646L399.006 382.743C399.348 384.104 398.697 385.511 397.44 386.156C395.88 386.957 393.684 387.799 391.666 387.555C390.716 387.441 389.927 386.771 389.614 385.877L385.521 374.202L396.218 371.646Z" fill="url(#paint15_linear_15_914)"/>
    <path d="M399.545 374.852C396.075 377.932 384.791 378.337 384.791 378.337C344.144 280.719 327.198 253.847 327.198 253.847C333.068 290.692 328.463 385.269 328.463 385.269C321.754 388.231 313.107 385.269 313.107 385.269C312.563 324.948 304.075 260.131 293.129 218.658C320.603 218.04 335.532 212.047 340.303 208.272C363.203 245.215 399.545 374.852 399.545 374.852Z" fill="url(#paint16_linear_15_914)"/>
    <path d="M286.208 245.937L291.262 277.398C292.143 282.883 297.222 286.689 302.76 286.014L378.419 276.78C382.12 276.328 384.927 273.237 385.002 269.523C385.164 261.394 384.845 246.926 381.435 233.746L286.208 245.937Z" fill="url(#paint17_linear_15_914)"/>
    <path d="M304.346 283.942C304.261 283.942 304.188 283.879 304.176 283.791C304.165 283.697 304.232 283.613 304.324 283.601L305.679 283.435C305.779 283.424 305.858 283.491 305.869 283.585C305.881 283.678 305.814 283.763 305.722 283.775L304.367 283.941C304.361 283.942 304.353 283.942 304.346 283.942ZM301.178 283.841C301.168 283.841 301.156 283.84 301.146 283.838C300.695 283.75 300.244 283.629 299.807 283.479C299.717 283.449 299.671 283.352 299.7 283.263C299.732 283.173 299.827 283.126 299.916 283.157C300.339 283.302 300.774 283.419 301.209 283.504C301.301 283.522 301.361 283.613 301.343 283.705C301.33 283.785 301.258 283.841 301.178 283.841ZM308.862 283.391C308.777 283.391 308.704 283.328 308.692 283.241C308.681 283.147 308.748 283.062 308.84 283.05L310.195 282.885C310.295 282.87 310.374 282.94 310.385 283.034C310.397 283.128 310.33 283.213 310.238 283.225L308.883 283.39C308.875 283.39 308.868 283.391 308.862 283.391ZM313.377 282.839C313.292 282.839 313.219 282.776 313.207 282.69C313.195 282.596 313.262 282.511 313.355 282.5L314.71 282.334C314.809 282.321 314.888 282.39 314.9 282.484C314.912 282.577 314.844 282.662 314.752 282.674L313.397 282.839C313.39 282.839 313.384 282.839 313.377 282.839ZM317.891 282.289C317.806 282.289 317.733 282.226 317.721 282.139C317.71 282.046 317.777 281.961 317.869 281.949L319.224 281.784C319.324 281.772 319.403 281.839 319.414 281.933C319.426 282.027 319.359 282.112 319.267 282.123L317.912 282.289C317.904 282.289 317.898 282.289 317.891 282.289ZM297.069 281.99C297.032 281.99 296.996 281.978 296.965 281.955C296.599 281.675 296.249 281.368 295.924 281.038C295.858 280.971 295.858 280.863 295.926 280.797C295.993 280.729 296.101 280.731 296.167 280.798C296.48 281.116 296.82 281.413 297.173 281.684C297.247 281.741 297.262 281.848 297.205 281.923C297.171 281.967 297.12 281.99 297.069 281.99ZM322.406 281.738C322.321 281.738 322.248 281.675 322.236 281.587C322.224 281.494 322.292 281.409 322.384 281.397L323.739 281.232C323.838 281.217 323.917 281.287 323.929 281.381C323.941 281.475 323.873 281.56 323.781 281.571L322.426 281.737C322.42 281.737 322.413 281.738 322.406 281.738ZM326.922 281.186C326.837 281.186 326.764 281.123 326.752 281.037C326.74 280.943 326.808 280.858 326.9 280.847L328.255 280.681C328.354 280.668 328.433 280.737 328.445 280.83C328.457 280.924 328.389 281.009 328.297 281.021L326.942 281.186C326.935 281.186 326.927 281.186 326.922 281.186ZM331.436 280.636C331.351 280.636 331.278 280.573 331.266 280.485C331.255 280.391 331.322 280.306 331.414 280.294L332.769 280.129C332.869 280.117 332.948 280.185 332.96 280.278C332.971 280.372 332.904 280.457 332.812 280.469L331.457 280.634C331.449 280.636 331.443 280.636 331.436 280.636ZM335.951 280.085C335.866 280.085 335.793 280.022 335.781 279.934C335.769 279.841 335.837 279.756 335.929 279.744L337.284 279.578C337.383 279.564 337.462 279.634 337.474 279.728C337.486 279.822 337.418 279.906 337.326 279.918L335.971 280.084C335.964 280.084 335.958 280.085 335.951 280.085ZM340.465 279.533C340.38 279.533 340.307 279.47 340.295 279.384C340.284 279.29 340.351 279.205 340.443 279.193L341.798 279.028C341.898 279.015 341.977 279.084 341.989 279.177C342 279.271 341.933 279.356 341.841 279.368L340.486 279.533C340.48 279.533 340.473 279.533 340.465 279.533ZM344.981 278.982C344.896 278.982 344.823 278.92 344.811 278.833C344.8 278.739 344.867 278.654 344.959 278.643L346.314 278.477C346.414 278.466 346.493 278.533 346.505 278.627C346.516 278.72 346.449 278.805 346.357 278.817L345.002 278.982C344.994 278.982 344.987 278.982 344.981 278.982ZM294.209 278.505C294.146 278.505 294.085 278.47 294.056 278.41C293.852 277.996 293.678 277.562 293.535 277.123C293.505 277.034 293.555 276.937 293.644 276.908C293.734 276.88 293.83 276.928 293.859 277.017C293.997 277.441 294.167 277.859 294.363 278.261C294.404 278.346 294.369 278.448 294.285 278.489C294.26 278.499 294.234 278.505 294.209 278.505ZM349.496 278.432C349.411 278.432 349.338 278.369 349.326 278.281C349.314 278.187 349.382 278.102 349.474 278.091L350.829 277.925C350.927 277.912 351.007 277.981 351.019 278.075C351.031 278.168 350.963 278.253 350.871 278.265L349.516 278.43C349.51 278.43 349.503 278.432 349.496 278.432ZM354.01 277.88C353.925 277.88 353.852 277.817 353.84 277.731C353.829 277.637 353.896 277.552 353.988 277.54L355.343 277.375C355.441 277.362 355.522 277.43 355.534 277.524C355.545 277.618 355.478 277.703 355.386 277.714L354.031 277.88C354.025 277.88 354.018 277.88 354.01 277.88ZM358.526 277.329C358.441 277.329 358.368 277.266 358.357 277.179C358.345 277.085 358.412 277 358.504 276.988L359.859 276.823C359.957 276.811 360.038 276.878 360.05 276.972C360.061 277.066 359.994 277.151 359.902 277.162L358.547 277.328C358.539 277.329 358.532 277.329 358.526 277.329ZM363.041 276.779C362.956 276.779 362.883 276.716 362.871 276.628C362.859 276.534 362.927 276.449 363.019 276.438L364.374 276.272C364.472 276.259 364.552 276.328 364.564 276.421C364.576 276.515 364.509 276.6 364.416 276.612L363.061 276.777C363.054 276.777 363.048 276.779 363.041 276.779ZM367.555 276.227C367.47 276.227 367.397 276.164 367.386 276.077C367.374 275.984 367.441 275.899 367.533 275.887L368.888 275.722C368.987 275.708 369.067 275.777 369.079 275.871C369.09 275.965 369.023 276.05 368.931 276.061L367.576 276.227C367.568 276.227 367.563 276.227 367.555 276.227ZM372.07 275.676C371.985 275.676 371.912 275.613 371.9 275.525C371.888 275.432 371.956 275.347 372.048 275.335L373.403 275.169C373.501 275.158 373.581 275.225 373.593 275.319C373.605 275.413 373.538 275.498 373.445 275.509L372.09 275.675C372.084 275.676 372.077 275.676 372.07 275.676ZM376.584 275.118C376.502 275.118 376.429 275.058 376.416 274.975C376.4 274.882 376.463 274.795 376.557 274.779C376.996 274.707 377.427 274.591 377.843 274.439C377.931 274.405 378.029 274.452 378.062 274.54C378.095 274.628 378.049 274.726 377.961 274.76C377.527 274.921 377.073 275.041 376.612 275.115C376.603 275.118 376.593 275.118 376.584 275.118ZM293.077 274.12C292.995 274.12 292.921 274.06 292.908 273.976L292.692 272.627C292.677 272.534 292.74 272.447 292.832 272.431C292.927 272.415 293.014 272.48 293.028 272.573L293.245 273.922C293.26 274.016 293.197 274.102 293.104 274.118C293.094 274.118 293.085 274.12 293.077 274.12ZM380.547 273.046C380.505 273.046 380.461 273.03 380.429 272.998C380.361 272.932 380.36 272.824 380.426 272.756C380.734 272.437 381.014 272.089 381.257 271.718C381.308 271.639 381.415 271.617 381.493 271.668C381.572 271.72 381.594 271.827 381.542 271.904C381.288 272.294 380.995 272.66 380.67 272.994C380.635 273.03 380.591 273.046 380.547 273.046ZM292.354 269.626C292.272 269.626 292.199 269.566 292.185 269.482L291.969 268.135C291.954 268.041 292.017 267.955 292.109 267.939C292.207 267.924 292.291 267.987 292.305 268.081L292.522 269.43C292.537 269.522 292.474 269.61 292.381 269.626C292.371 269.626 292.362 269.626 292.354 269.626ZM382.492 269.02C382.485 269.02 382.477 269.02 382.47 269.018C382.376 269.006 382.311 268.92 382.322 268.826C382.354 268.582 382.372 268.331 382.378 268.079L382.388 267.483C382.39 267.39 382.466 267.317 382.559 267.317C382.561 267.317 382.561 267.317 382.562 267.317C382.656 267.318 382.732 267.396 382.731 267.489L382.72 268.087C382.714 268.35 382.695 268.614 382.662 268.87C382.65 268.958 382.577 269.02 382.492 269.02ZM291.632 265.132C291.55 265.132 291.477 265.072 291.464 264.988L291.247 263.64C291.233 263.546 291.296 263.46 291.388 263.444C291.484 263.429 291.568 263.492 291.584 263.586L291.801 264.934C291.815 265.026 291.752 265.114 291.66 265.13C291.65 265.132 291.641 265.132 291.632 265.132ZM382.578 264.471C382.485 264.471 382.409 264.395 382.407 264.302C382.406 263.858 382.403 263.403 382.397 262.937C382.395 262.843 382.472 262.766 382.565 262.764H382.567C382.66 262.764 382.736 262.839 382.738 262.932C382.744 263.4 382.747 263.855 382.748 264.3C382.75 264.395 382.674 264.471 382.578 264.471ZM290.911 260.639C290.829 260.639 290.756 260.579 290.743 260.496L290.526 259.147C290.511 259.054 290.574 258.967 290.666 258.951C290.76 258.932 290.846 258.999 290.862 259.092L291.079 260.44C291.094 260.534 291.031 260.62 290.939 260.636C290.928 260.638 290.92 260.639 290.911 260.639ZM382.498 259.92C382.406 259.92 382.33 259.847 382.327 259.755C382.312 259.307 382.296 258.853 382.278 258.392C382.274 258.298 382.347 258.219 382.442 258.215C382.445 258.215 382.447 258.215 382.45 258.215C382.54 258.215 382.616 258.286 382.619 258.379C382.638 258.84 382.654 259.297 382.669 259.745C382.672 259.838 382.597 259.918 382.504 259.92C382.502 259.92 382.501 259.92 382.498 259.92ZM290.188 256.146C290.106 256.146 290.033 256.085 290.02 256.002L289.803 254.653C289.788 254.56 289.851 254.473 289.943 254.457C290.04 254.438 290.123 254.506 290.14 254.598L290.356 255.946C290.371 256.04 290.308 256.126 290.216 256.143C290.205 256.146 290.197 256.146 290.188 256.146ZM382.287 255.372C382.198 255.372 382.122 255.302 382.117 255.213C382.09 254.763 382.06 254.309 382.028 253.851C382.022 253.757 382.093 253.675 382.186 253.669C382.283 253.662 382.362 253.734 382.368 253.828C382.4 254.286 382.429 254.741 382.457 255.192C382.463 255.286 382.391 255.367 382.297 255.372C382.294 255.372 382.292 255.372 382.287 255.372ZM289.466 251.652C289.384 251.652 289.311 251.592 289.298 251.508L289.082 250.16C289.067 250.066 289.13 249.979 289.222 249.963C289.316 249.946 289.402 250.012 289.418 250.104L289.635 251.452C289.649 251.546 289.586 251.633 289.494 251.649C289.484 251.652 289.475 251.652 289.466 251.652ZM381.939 250.833C381.851 250.833 381.778 250.767 381.769 250.678C381.727 250.228 381.683 249.774 381.636 249.321C381.626 249.227 381.694 249.143 381.788 249.133C381.88 249.126 381.965 249.192 381.975 249.285C382.022 249.741 382.068 250.195 382.109 250.646C382.117 250.739 382.049 250.823 381.955 250.832C381.949 250.833 381.943 250.833 381.939 250.833ZM288.744 247.159C288.662 247.159 288.588 247.099 288.575 247.016L288.359 245.667C288.344 245.573 288.407 245.487 288.499 245.471C288.596 245.456 288.679 245.519 288.695 245.613L288.912 246.962C288.926 247.055 288.864 247.142 288.771 247.158C288.763 247.158 288.752 247.159 288.744 247.159ZM381.437 246.308C381.352 246.308 381.279 246.245 381.267 246.159C381.209 245.71 381.149 245.259 381.086 244.808C381.073 244.714 381.137 244.627 381.231 244.614C381.329 244.603 381.411 244.667 381.424 244.759C381.487 245.213 381.548 245.664 381.607 246.115C381.618 246.209 381.553 246.294 381.459 246.307C381.452 246.308 381.444 246.308 381.437 246.308ZM290.762 245.524C290.677 245.524 290.603 245.461 290.592 245.374C290.58 245.281 290.646 245.196 290.74 245.184L292.093 245.011C292.197 244.998 292.273 245.065 292.285 245.159C292.297 245.253 292.231 245.338 292.137 245.349L290.783 245.522C290.776 245.524 290.769 245.524 290.762 245.524ZM295.273 244.947C295.188 244.947 295.115 244.884 295.103 244.797C295.092 244.704 295.158 244.619 295.251 244.607L296.605 244.434C296.707 244.422 296.783 244.488 296.797 244.582C296.808 244.676 296.742 244.761 296.649 244.772L295.295 244.945C295.286 244.947 295.279 244.947 295.273 244.947ZM299.785 244.37C299.7 244.37 299.627 244.307 299.615 244.22C299.603 244.127 299.669 244.042 299.763 244.03L301.116 243.857C301.225 243.846 301.295 243.911 301.308 244.005C301.32 244.099 301.254 244.184 301.16 244.196L299.807 244.368C299.798 244.368 299.791 244.37 299.785 244.37ZM304.296 243.791C304.211 243.791 304.138 243.728 304.127 243.642C304.115 243.548 304.181 243.463 304.274 243.452L305.628 243.279C305.736 243.266 305.807 243.333 305.82 243.427C305.831 243.52 305.766 243.605 305.672 243.617L304.318 243.79C304.309 243.791 304.302 243.791 304.296 243.791ZM308.808 243.214C308.723 243.214 308.65 243.151 308.638 243.065C308.626 242.971 308.692 242.886 308.786 242.875L310.14 242.702C310.246 242.69 310.318 242.756 310.331 242.85C310.343 242.944 310.277 243.028 310.183 243.04L308.83 243.213C308.823 243.213 308.815 243.214 308.808 243.214ZM313.32 242.636C313.235 242.636 313.161 242.573 313.15 242.487C313.138 242.393 313.204 242.308 313.298 242.296L314.651 242.124C314.757 242.109 314.83 242.178 314.843 242.271C314.855 242.365 314.789 242.45 314.695 242.462L313.341 242.635C313.333 242.636 313.325 242.636 313.32 242.636ZM317.831 242.059C317.746 242.059 317.673 241.996 317.661 241.91C317.65 241.816 317.716 241.731 317.809 241.719L319.163 241.547C319.268 241.533 319.341 241.601 319.355 241.695C319.366 241.788 319.3 241.873 319.207 241.885L317.853 242.058C317.844 242.058 317.837 242.059 317.831 242.059ZM380.765 241.807C380.683 241.807 380.612 241.749 380.597 241.665C380.521 241.219 380.442 240.771 380.36 240.324C380.342 240.232 380.404 240.142 380.496 240.125C380.591 240.107 380.677 240.169 380.695 240.261C380.778 240.709 380.857 241.159 380.934 241.607C380.95 241.699 380.887 241.788 380.794 241.803C380.784 241.807 380.775 241.807 380.765 241.807ZM322.343 241.481C322.258 241.481 322.185 241.418 322.173 241.331C322.161 241.238 322.227 241.153 322.321 241.141L323.674 240.968C323.772 240.957 323.854 241.022 323.866 241.116C323.878 241.21 323.812 241.295 323.718 241.306L322.365 241.479C322.357 241.481 322.349 241.481 322.343 241.481ZM326.854 240.904C326.769 240.904 326.696 240.841 326.685 240.754C326.673 240.661 326.739 240.576 326.832 240.564L328.186 240.391C328.283 240.378 328.366 240.445 328.378 240.539C328.389 240.633 328.324 240.718 328.23 240.73L326.876 240.902C326.869 240.902 326.862 240.904 326.854 240.904ZM331.366 240.325C331.281 240.325 331.208 240.262 331.196 240.176C331.184 240.082 331.25 239.997 331.344 239.986L332.698 239.813C332.8 239.801 332.876 239.867 332.889 239.961C332.901 240.055 332.835 240.139 332.742 240.151L331.388 240.324C331.381 240.325 331.373 240.325 331.366 240.325ZM335.878 239.747C335.793 239.747 335.719 239.684 335.708 239.598C335.696 239.504 335.762 239.419 335.856 239.407L337.209 239.235C337.31 239.223 337.388 239.289 337.401 239.382C337.413 239.476 337.347 239.561 337.253 239.573L335.899 239.746C335.892 239.747 335.883 239.747 335.878 239.747ZM340.389 239.17C340.304 239.17 340.231 239.107 340.219 239.021C340.208 238.927 340.273 238.842 340.367 238.83L341.721 238.658C341.828 238.644 341.899 238.712 341.912 238.805C341.924 238.899 341.858 238.984 341.765 238.996L340.411 239.169C340.402 239.17 340.395 239.17 340.389 239.17ZM344.901 238.593C344.816 238.593 344.743 238.53 344.731 238.444C344.719 238.35 344.785 238.265 344.879 238.253L346.232 238.081C346.332 238.069 346.411 238.135 346.424 238.229C346.436 238.322 346.37 238.407 346.276 238.419L344.923 238.592C344.915 238.592 344.908 238.593 344.901 238.593ZM349.412 238.015C349.327 238.015 349.254 237.952 349.243 237.865C349.231 237.772 349.297 237.687 349.39 237.675L350.744 237.502C350.849 237.491 350.923 237.556 350.936 237.65C350.947 237.744 350.882 237.829 350.788 237.841L349.434 238.013C349.427 238.015 349.42 238.015 349.412 238.015ZM353.924 237.436C353.839 237.436 353.766 237.373 353.754 237.287C353.742 237.193 353.808 237.108 353.902 237.097L355.256 236.924C355.361 236.911 355.436 236.978 355.447 237.072C355.459 237.165 355.393 237.25 355.299 237.262L353.946 237.435C353.937 237.436 353.93 237.436 353.924 237.436ZM379.9 237.34C379.821 237.34 379.751 237.286 379.734 237.205C379.637 236.761 379.536 236.318 379.432 235.875C379.41 235.783 379.467 235.692 379.558 235.67C379.652 235.65 379.742 235.706 379.763 235.798C379.868 236.242 379.968 236.687 380.066 237.132C380.086 237.224 380.028 237.315 379.936 237.335C379.924 237.338 379.912 237.34 379.9 237.34ZM358.436 236.859C358.351 236.859 358.277 236.796 358.266 236.71C358.254 236.616 358.32 236.531 358.414 236.52L359.767 236.347C359.871 236.335 359.947 236.401 359.959 236.495C359.971 236.589 359.905 236.673 359.811 236.685L358.457 236.858C358.449 236.859 358.441 236.859 358.436 236.859ZM362.947 236.281C362.862 236.281 362.789 236.218 362.777 236.132C362.766 236.038 362.832 235.953 362.925 235.941L364.279 235.769C364.383 235.754 364.459 235.823 364.471 235.916C364.482 236.01 364.416 236.095 364.323 236.107L362.969 236.28C362.962 236.281 362.954 236.281 362.947 236.281ZM367.459 235.704C367.374 235.704 367.301 235.641 367.289 235.555C367.277 235.461 367.343 235.376 367.437 235.364L368.79 235.192C368.899 235.178 368.969 235.246 368.982 235.34C368.994 235.433 368.928 235.518 368.834 235.53L367.481 235.703C367.473 235.704 367.466 235.704 367.459 235.704ZM371.97 235.126C371.885 235.126 371.812 235.063 371.801 234.976C371.789 234.883 371.855 234.798 371.948 234.786L373.302 234.613C373.41 234.602 373.481 234.667 373.494 234.761C373.505 234.855 373.44 234.94 373.346 234.951L371.992 235.124C371.983 235.126 371.978 235.126 371.97 235.126ZM376.482 234.549C376.397 234.549 376.324 234.486 376.312 234.399C376.3 234.306 376.366 234.221 376.46 234.209L377.814 234.036C377.92 234.023 377.992 234.09 378.005 234.184C378.017 234.278 377.951 234.363 377.858 234.375L376.504 234.547C376.495 234.549 376.488 234.549 376.482 234.549Z" fill="white"/>
    <path d="M305.432 220.167L305.348 217.701C305.531 217.086 306.011 216.607 306.629 216.425C308.937 215.749 314.694 214.342 317.775 216.084L318.558 218.862L305.432 220.167Z" fill="url(#paint18_linear_15_914)"/>
    <path d="M312.49 216.879C311.964 217.081 311.421 217.15 310.86 217.086C310.181 217.008 309.641 216.478 309.554 215.803L308.578 208.174L312.458 207.678L313.432 215.301C313.52 215.98 313.131 216.633 312.49 216.879Z" fill="url(#paint19_linear_15_914)"/>
    <path d="M343.013 215.355L342.929 212.889C343.112 212.274 343.592 211.794 344.21 211.614C346.518 210.937 352.275 209.53 355.356 211.273L356.139 214.05L343.013 215.355Z" fill="url(#paint20_linear_15_914)"/>
    <path d="M350.071 212.068C349.545 212.27 349.003 212.339 348.441 212.274C347.762 212.197 347.222 211.666 347.135 210.991L346.057 202.559L349.936 202.062L351.013 210.489C351.101 211.167 350.712 211.822 350.071 212.068Z" fill="url(#paint21_linear_15_914)"/>
    <path d="M308.423 210.095L349.974 203.37C350.921 203.216 351.641 202.427 351.685 201.472C351.746 200.135 351.698 198.152 351.138 196.162C350.501 193.9 348.299 192.44 345.951 192.683C338.143 193.495 318.327 196.038 307.958 201.759C306.862 202.364 306.13 203.462 305.992 204.702C305.861 205.885 305.871 207.442 306.434 208.954C306.734 209.76 307.573 210.233 308.423 210.095Z" fill="url(#paint22_linear_15_914)"/>
    <path d="M307.4 208.288C307.194 208.288 307.006 208.146 306.957 207.935C306.941 207.868 306.578 206.27 306.8 204.658C306.977 203.377 307.827 202.257 309.02 201.735C311.269 200.75 315.588 199.012 319.233 198.441C319.482 198.4 319.713 198.573 319.752 198.82C319.792 199.069 319.622 199.302 319.373 199.34C315.829 199.895 311.593 201.602 309.384 202.57C308.479 202.967 307.835 203.815 307.7 204.784C307.501 206.231 307.839 207.716 307.842 207.73C307.899 207.975 307.747 208.219 307.501 208.276C307.469 208.285 307.434 208.288 307.4 208.288Z" fill="url(#paint23_linear_15_914)"/>
    <path d="M285.95 221.695C299.409 219.796 357.647 211.716 374.849 211.593C376.33 211.583 377.657 212.498 378.155 213.886C379.735 218.286 383.093 228.547 384.188 239.005C384.337 240.428 383.45 241.757 382.084 242.203L344.352 254.473L330.617 256.232L288.368 253.312C286.878 253.21 285.65 252.116 285.387 250.652C284.449 245.44 282.455 233.186 282.859 225.081C282.947 223.36 284.236 221.938 285.95 221.695Z" fill="url(#paint24_linear_15_914)"/>
    <path d="M330.52 253.027C330.516 253.027 330.513 253.027 330.508 253.027L329.147 252.933C329.054 252.927 328.982 252.845 328.989 252.751C328.997 252.658 329.084 252.59 329.171 252.593L330.532 252.687C330.533 252.687 330.536 252.687 330.538 252.687C330.549 252.683 330.562 252.68 330.576 252.678L331.929 252.505C332.035 252.494 332.108 252.56 332.121 252.653C332.133 252.747 332.067 252.832 331.973 252.844L330.62 253.016C330.605 253.018 330.592 253.018 330.58 253.016C330.561 253.024 330.541 253.027 330.52 253.027ZM325.982 252.713C325.978 252.713 325.975 252.713 325.97 252.713L324.609 252.62C324.516 252.614 324.444 252.532 324.451 252.438C324.459 252.344 324.545 252.277 324.633 252.28L325.994 252.374C326.087 252.379 326.159 252.461 326.152 252.555C326.146 252.645 326.071 252.713 325.982 252.713ZM335.109 252.44C335.024 252.44 334.951 252.377 334.939 252.29C334.928 252.196 334.994 252.112 335.087 252.1L336.441 251.927C336.545 251.914 336.621 251.981 336.633 252.075C336.644 252.169 336.578 252.254 336.485 252.265L335.131 252.438C335.122 252.44 335.115 252.44 335.109 252.44ZM321.444 252.4C321.44 252.4 321.437 252.4 321.432 252.4L320.072 252.306C319.978 252.3 319.906 252.218 319.913 252.125C319.921 252.031 320.006 251.962 320.095 251.967L321.456 252.06C321.55 252.066 321.621 252.148 321.614 252.242C321.608 252.331 321.533 252.4 321.444 252.4ZM316.906 252.087C316.902 252.087 316.899 252.087 316.895 252.087L315.534 251.993C315.44 251.987 315.368 251.905 315.376 251.811C315.383 251.718 315.466 251.647 315.557 251.653L316.918 251.747C317.012 251.753 317.083 251.835 317.076 251.928C317.07 252.018 316.996 252.087 316.906 252.087ZM339.621 251.863C339.536 251.863 339.463 251.8 339.451 251.713C339.439 251.62 339.505 251.535 339.599 251.523L340.952 251.35C341.056 251.337 341.132 251.404 341.144 251.498C341.156 251.592 341.09 251.677 340.996 251.688L339.643 251.861C339.634 251.861 339.627 251.863 339.621 251.863ZM312.37 251.773C312.365 251.773 312.362 251.773 312.358 251.773L310.997 251.68C310.903 251.674 310.832 251.592 310.839 251.498C310.846 251.404 310.928 251.334 311.021 251.34L312.381 251.434C312.475 251.439 312.547 251.521 312.54 251.615C312.534 251.704 312.459 251.773 312.37 251.773ZM307.832 251.46C307.827 251.46 307.825 251.46 307.82 251.46L306.459 251.366C306.366 251.36 306.294 251.278 306.301 251.185C306.308 251.091 306.389 251.019 306.483 251.026L307.844 251.12C307.937 251.126 308.009 251.208 308.002 251.302C307.996 251.391 307.921 251.46 307.832 251.46ZM344.11 251.189C344.039 251.189 343.971 251.144 343.948 251.07C343.919 250.981 343.968 250.884 344.058 250.855L345.356 250.433C345.445 250.406 345.542 250.454 345.571 250.543C345.6 250.633 345.55 250.729 345.461 250.759L344.163 251.18C344.146 251.186 344.128 251.189 344.11 251.189ZM303.294 251.145C303.29 251.145 303.287 251.145 303.282 251.145L301.921 251.051C301.828 251.046 301.756 250.964 301.763 250.87C301.769 250.776 301.85 250.704 301.945 250.712L303.306 250.805C303.399 250.811 303.471 250.893 303.464 250.987C303.458 251.078 303.383 251.145 303.294 251.145ZM298.756 250.832C298.752 250.832 298.749 250.832 298.744 250.832L297.383 250.738C297.29 250.732 297.218 250.65 297.225 250.556C297.233 250.463 297.322 250.395 297.407 250.398L298.768 250.492C298.861 250.498 298.933 250.58 298.926 250.674C298.92 250.763 298.845 250.832 298.756 250.832ZM294.218 250.518C294.214 250.518 294.211 250.518 294.206 250.518L292.845 250.425C292.752 250.419 292.68 250.337 292.687 250.243C292.695 250.149 292.782 250.081 292.869 250.085L294.23 250.179C294.323 250.185 294.395 250.267 294.388 250.36C294.382 250.45 294.307 250.518 294.218 250.518ZM289.682 250.205C289.677 250.205 289.674 250.205 289.67 250.205L288.533 250.126L288.447 249.643C288.429 249.55 288.49 249.461 288.583 249.444C288.678 249.427 288.764 249.488 288.782 249.581L288.823 249.804L289.693 249.864C289.787 249.87 289.859 249.952 289.851 250.045C289.845 250.136 289.771 250.205 289.682 250.205ZM348.436 249.783C348.364 249.783 348.297 249.738 348.274 249.665C348.244 249.575 348.294 249.479 348.383 249.449L349.681 249.028C349.771 249 349.867 249.047 349.897 249.138C349.926 249.227 349.876 249.324 349.787 249.353L348.489 249.775C348.471 249.78 348.454 249.783 348.436 249.783ZM352.762 248.376C352.69 248.376 352.623 248.331 352.599 248.258C352.57 248.168 352.62 248.072 352.709 248.042L354.007 247.621C354.096 247.593 354.193 247.641 354.222 247.73C354.252 247.82 354.202 247.916 354.113 247.946L352.815 248.367C352.797 248.373 352.779 248.376 352.762 248.376ZM357.088 246.969C357.016 246.969 356.949 246.924 356.925 246.85C356.896 246.761 356.946 246.664 357.035 246.635L358.333 246.213C358.422 246.184 358.519 246.234 358.548 246.323C358.577 246.413 358.528 246.509 358.438 246.538L357.14 246.96C357.123 246.966 357.105 246.969 357.088 246.969ZM288.081 246.639C287.999 246.639 287.926 246.579 287.912 246.496C287.842 246.063 287.77 245.612 287.697 245.146C287.683 245.052 287.747 244.966 287.839 244.951C287.93 244.937 288.019 245.001 288.034 245.093C288.106 245.559 288.177 246.01 288.247 246.442C288.262 246.536 288.199 246.622 288.107 246.638C288.098 246.638 288.089 246.639 288.081 246.639ZM361.413 245.562C361.342 245.562 361.274 245.516 361.251 245.443C361.222 245.354 361.271 245.257 361.361 245.228L362.659 244.806C362.748 244.778 362.845 244.827 362.874 244.916C362.903 245.005 362.853 245.102 362.764 245.131L361.466 245.553C361.448 245.559 361.431 245.562 361.413 245.562ZM365.739 244.156C365.667 244.156 365.6 244.111 365.577 244.037C365.547 243.948 365.597 243.851 365.686 243.822L366.984 243.4C367.074 243.371 367.17 243.421 367.2 243.51C367.229 243.6 367.179 243.696 367.09 243.726L365.792 244.147C365.774 244.153 365.757 244.156 365.739 244.156ZM370.065 242.749C369.993 242.749 369.926 242.703 369.902 242.63C369.873 242.541 369.923 242.444 370.012 242.415L371.309 241.993C371.398 241.965 371.495 242.014 371.524 242.103C371.553 242.192 371.503 242.289 371.414 242.318L370.118 242.74C370.1 242.746 370.082 242.749 370.065 242.749ZM287.399 242.135C287.315 242.135 287.242 242.074 287.23 241.987C287.169 241.542 287.106 241.09 287.046 240.632C287.034 240.538 287.099 240.453 287.192 240.44C287.286 240.428 287.371 240.492 287.384 240.586C287.444 241.043 287.506 241.495 287.568 241.939C287.582 242.033 287.517 242.119 287.424 242.132C287.415 242.135 287.406 242.135 287.399 242.135ZM374.391 241.342C374.319 241.342 374.252 241.296 374.228 241.223C374.199 241.134 374.249 241.037 374.338 241.008L375.636 240.586C375.725 240.558 375.822 240.607 375.851 240.696C375.88 240.785 375.831 240.882 375.741 240.911L374.443 241.333C374.426 241.339 374.407 241.342 374.391 241.342ZM378.716 239.935C378.645 239.935 378.577 239.889 378.554 239.816C378.525 239.727 378.574 239.63 378.664 239.601L379.962 239.179C380.052 239.151 380.147 239.199 380.177 239.289C380.206 239.378 380.156 239.475 380.067 239.504L378.769 239.926C378.751 239.932 378.732 239.935 378.716 239.935ZM286.828 237.617C286.742 237.617 286.669 237.552 286.658 237.464C286.609 237.013 286.559 236.559 286.512 236.105C286.502 236.012 286.57 235.928 286.664 235.918C286.761 235.909 286.841 235.977 286.851 236.07C286.898 236.524 286.947 236.977 286.998 237.426C287.008 237.52 286.941 237.605 286.847 237.615C286.84 237.617 286.834 237.617 286.828 237.617ZM380.529 236.93C380.446 236.93 380.373 236.868 380.361 236.783C380.298 236.334 380.231 235.884 380.159 235.436C380.145 235.343 380.207 235.256 380.301 235.241C380.396 235.227 380.481 235.29 380.496 235.384C380.567 235.833 380.635 236.284 380.698 236.737C380.711 236.83 380.647 236.917 380.553 236.93C380.546 236.93 380.537 236.93 380.529 236.93ZM286.398 233.083C286.309 233.083 286.234 233.014 286.228 232.925C286.193 232.467 286.162 232.011 286.134 231.559C286.129 231.465 286.2 231.385 286.294 231.379C286.404 231.371 286.469 231.445 286.475 231.538C286.503 231.989 286.534 232.443 286.569 232.899C286.576 232.992 286.506 233.074 286.411 233.082C286.405 233.083 286.402 233.083 286.398 233.083ZM379.774 232.443C379.694 232.443 379.622 232.386 379.608 232.306C379.52 231.856 379.43 231.411 379.338 230.969C379.319 230.876 379.378 230.786 379.47 230.767C379.564 230.748 379.653 230.808 379.672 230.898C379.764 231.342 379.855 231.789 379.943 232.24C379.96 232.332 379.9 232.421 379.808 232.44C379.796 232.443 379.786 232.443 379.774 232.443ZM286.175 228.535C286.083 228.535 286.007 228.46 286.004 228.368C285.998 228.039 285.995 227.714 285.995 227.393L285.997 226.998C285.998 226.904 286.074 226.828 286.168 226.828C286.276 226.834 286.339 226.905 286.339 226.999L286.338 227.391C286.338 227.711 286.341 228.033 286.347 228.361C286.348 228.455 286.273 228.532 286.178 228.534C286.177 228.535 286.175 228.535 286.175 228.535ZM378.809 227.995C378.731 227.995 378.662 227.942 378.643 227.864C378.535 227.416 378.428 226.976 378.317 226.539C378.293 226.448 378.349 226.355 378.44 226.333C378.532 226.308 378.624 226.365 378.648 226.456C378.757 226.892 378.867 227.336 378.974 227.784C378.996 227.875 378.939 227.967 378.848 227.99C378.835 227.993 378.822 227.995 378.809 227.995ZM287.514 225.041C287.431 225.041 287.358 224.98 287.346 224.895C287.333 224.801 287.397 224.715 287.491 224.702L288.843 224.511C288.941 224.498 289.023 224.564 289.036 224.656C289.049 224.75 288.985 224.836 288.891 224.849L287.539 225.04C287.53 225.04 287.523 225.041 287.514 225.041ZM292.022 224.412C291.938 224.412 291.865 224.35 291.853 224.264C291.84 224.17 291.904 224.084 291.998 224.07L293.35 223.883C293.442 223.871 293.529 223.936 293.542 224.029C293.555 224.123 293.491 224.21 293.397 224.221L292.045 224.409C292.038 224.412 292.029 224.412 292.022 224.412ZM296.53 223.789C296.447 223.789 296.374 223.728 296.362 223.641C296.349 223.548 296.415 223.461 296.507 223.45L297.859 223.265C297.96 223.252 298.039 223.318 298.051 223.412C298.064 223.505 297.998 223.59 297.906 223.603L296.554 223.788C296.545 223.789 296.538 223.789 296.53 223.789ZM377.663 223.587C377.588 223.587 377.519 223.537 377.499 223.463C377.373 223.015 377.249 222.577 377.123 222.151C377.096 222.06 377.149 221.966 377.238 221.94C377.331 221.914 377.424 221.966 377.451 222.056C377.575 222.483 377.701 222.922 377.827 223.371C377.851 223.461 377.799 223.555 377.708 223.581C377.693 223.586 377.677 223.587 377.663 223.587ZM301.039 223.176C300.954 223.176 300.881 223.114 300.869 223.028C300.856 222.934 300.922 222.848 301.015 222.836L302.368 222.653C302.463 222.641 302.548 222.706 302.559 222.799C302.572 222.893 302.507 222.978 302.413 222.991L301.061 223.174C301.054 223.174 301.046 223.176 301.039 223.176ZM305.548 222.568C305.463 222.568 305.389 222.505 305.378 222.42C305.366 222.326 305.43 222.24 305.524 222.228L306.878 222.047C306.966 222.035 307.056 222.1 307.069 222.193C307.081 222.287 307.017 222.372 306.923 222.385L305.571 222.567C305.564 222.567 305.555 222.568 305.548 222.568ZM310.059 221.968C309.974 221.968 309.901 221.905 309.889 221.82C309.878 221.726 309.942 221.641 310.036 221.628L311.389 221.449C311.487 221.436 311.568 221.504 311.581 221.596C311.593 221.69 311.528 221.774 311.435 221.788L310.081 221.966C310.074 221.966 310.066 221.968 310.059 221.968ZM314.569 221.375C314.484 221.375 314.411 221.312 314.399 221.225C314.388 221.132 314.454 221.047 314.546 221.034L315.901 220.856C315.992 220.845 316.079 220.911 316.093 221.004C316.104 221.098 316.038 221.183 315.945 221.196L314.591 221.372C314.582 221.373 314.575 221.375 314.569 221.375ZM319.079 220.789C318.994 220.789 318.921 220.726 318.91 220.64C318.898 220.546 318.964 220.461 319.057 220.448L320.407 220.275C320.502 220.275 320.59 220.351 320.59 220.445C320.59 220.539 320.527 220.615 320.432 220.615L319.1 220.788C319.094 220.789 319.087 220.789 319.079 220.789ZM323.592 220.214C323.508 220.214 323.434 220.151 323.423 220.064C323.411 219.97 323.477 219.886 323.57 219.874L324.924 219.702C325.022 219.688 325.104 219.758 325.114 219.85C325.126 219.944 325.06 220.029 324.967 220.041L323.613 220.212C323.606 220.214 323.598 220.214 323.592 220.214ZM328.105 219.647C328.021 219.647 327.947 219.584 327.936 219.497C327.924 219.404 327.99 219.319 328.084 219.307L329.439 219.139C329.538 219.126 329.617 219.194 329.629 219.287C329.641 219.38 329.575 219.465 329.481 219.477L328.126 219.645C328.12 219.647 328.113 219.647 328.105 219.647ZM376.356 219.225C376.284 219.225 376.217 219.178 376.193 219.107C376.049 218.651 375.908 218.218 375.772 217.809C375.743 217.72 375.791 217.623 375.88 217.594C375.97 217.565 376.066 217.613 376.095 217.702C376.23 218.112 376.372 218.547 376.517 219.004C376.546 219.093 376.496 219.19 376.406 219.218C376.391 219.224 376.373 219.225 376.356 219.225ZM332.62 219.092C332.535 219.092 332.462 219.029 332.45 218.943C332.439 218.849 332.506 218.764 332.599 218.752L333.955 218.588C334.048 218.574 334.133 218.644 334.145 218.738C334.157 218.831 334.089 218.916 333.996 218.928L332.64 219.092C332.633 219.092 332.626 219.092 332.62 219.092ZM337.136 218.549C337.051 218.549 336.976 218.484 336.966 218.398C336.954 218.304 337.022 218.219 337.115 218.209L338.471 218.048C338.566 218.035 338.649 218.103 338.659 218.197C338.671 218.291 338.604 218.376 338.51 218.386L337.155 218.546C337.149 218.549 337.142 218.549 337.136 218.549ZM341.653 218.02C341.567 218.02 341.494 217.956 341.484 217.869C341.472 217.775 341.539 217.691 341.633 217.68L342.988 217.525C343.09 217.516 343.167 217.582 343.177 217.676C343.187 217.77 343.121 217.855 343.028 217.865L341.672 218.02C341.667 218.019 341.661 218.02 341.653 218.02ZM346.174 217.508C346.087 217.508 346.014 217.443 346.004 217.355C345.994 217.262 346.061 217.177 346.155 217.166L347.511 217.016C347.612 217.004 347.69 217.073 347.7 217.166C347.71 217.26 347.643 217.345 347.549 217.355L346.193 217.506C346.187 217.506 346.18 217.508 346.174 217.508ZM350.696 217.014C350.609 217.014 350.536 216.95 350.526 216.862C350.516 216.768 350.584 216.685 350.678 216.674L352.035 216.531C352.134 216.524 352.212 216.589 352.222 216.683C352.232 216.777 352.163 216.86 352.07 216.871L350.713 217.014C350.707 217.013 350.701 217.014 350.696 217.014ZM355.22 216.544C355.134 216.544 355.059 216.478 355.051 216.39C355.042 216.297 355.109 216.213 355.203 216.203L356.562 216.068C356.654 216.059 356.739 216.128 356.748 216.222C356.757 216.316 356.688 216.399 356.594 216.408L355.236 216.543C355.231 216.544 355.225 216.544 355.22 216.544ZM359.747 216.106C359.659 216.106 359.586 216.04 359.577 215.951C359.568 215.857 359.637 215.774 359.73 215.765L361.09 215.641C361.182 215.63 361.267 215.702 361.274 215.796C361.283 215.889 361.214 215.973 361.119 215.982L359.761 216.106C359.757 216.106 359.752 216.106 359.747 216.106ZM364.279 215.711C364.191 215.711 364.116 215.643 364.109 215.554C364.102 215.46 364.172 215.378 364.265 215.37C364.729 215.332 365.183 215.296 365.626 215.261C365.717 215.253 365.802 215.324 365.809 215.418C365.817 215.512 365.746 215.594 365.653 215.601C365.209 215.635 364.757 215.671 364.293 215.709C364.287 215.711 364.283 215.711 364.279 215.711ZM368.815 215.377C368.726 215.377 368.651 215.308 368.645 215.217C368.639 215.124 368.711 215.042 368.805 215.036C369.275 215.005 369.728 214.979 370.169 214.954C370.281 214.946 370.344 215.021 370.349 215.115C370.355 215.209 370.283 215.289 370.188 215.295C369.749 215.32 369.295 215.346 368.827 215.377C368.822 215.377 368.818 215.377 368.815 215.377ZM373.357 215.154C373.265 215.154 373.189 215.081 373.186 214.989C373.183 214.895 373.258 214.816 373.352 214.813C373.836 214.799 374.293 214.79 374.72 214.785H374.721C374.815 214.785 374.891 214.86 374.893 214.954C374.894 215.048 374.818 215.125 374.723 215.127C374.298 215.131 373.845 215.14 373.362 215.154C373.362 215.154 373.359 215.154 373.357 215.154Z" fill="white"/>
    <path d="M343.799 260.41L331.765 261.95C330.188 262.152 328.71 261.148 328.323 259.613L325.451 248.205C324.993 246.388 326.232 244.579 328.1 244.339L342.556 242.488C344.386 242.254 346.02 243.632 346.09 245.467L346.54 257.185C346.601 258.803 345.411 260.203 343.799 260.41Z" fill="url(#paint25_linear_15_914)"/>
    <path d="M342.046 258.468L332.886 259.641C331.686 259.795 330.561 259.03 330.267 257.862L328.081 249.179C327.732 247.795 328.676 246.418 330.097 246.237L341.1 244.828C342.492 244.65 343.736 245.699 343.79 247.095L344.132 256.014C344.178 257.245 343.273 258.311 342.046 258.468Z" fill="url(#paint26_linear_15_914)"/>
    <path d="M334.888 166.134C337.727 177.871 337.802 189.351 337.37 193.531C337.208 195.107 335.942 196.338 334.361 196.448C332.567 196.574 330.125 196.738 327.943 196.864C325.544 197.003 322.881 195.484 321.102 194.218C320.193 193.571 319.016 194.578 319.524 195.572C320.399 197.284 321.918 198.633 323.426 199.779C324.333 200.469 327.347 201.695 327.137 203.052C327.071 203.481 326.812 203.853 326.535 204.187C324.86 206.199 322.325 207.273 319.823 208.041C319.51 208.137 319.177 208.24 318.956 208.483C318.893 210.102 323.87 211.901 325.155 212.327C327.08 212.965 329.121 213.236 331.142 213.024C336.15 212.497 340.774 209.038 343.471 204.868C350.681 193.72 354.41 180.257 355.77 169.962C349.065 163.254 338.939 164.954 334.888 166.134Z" fill="url(#paint27_linear_15_914)"/>
    <path d="M355.772 171.024C361.121 130.59 329.982 99.5007 329.982 99.5007L311.454 121.114C325.52 138.657 332.206 154.734 335.261 167.36C339.312 166.178 349.065 164.314 355.772 171.024Z" fill="url(#paint28_linear_15_914)"/>
    <path d="M334.82 167.161C334.303 167.161 333.832 166.809 333.706 166.282C329.941 150.717 322.005 135.308 310.119 120.484C309.722 119.989 309.802 119.266 310.296 118.869C310.789 118.473 311.514 118.551 311.909 119.046C324.007 134.135 332.092 149.846 335.936 165.741C336.085 166.357 335.706 166.978 335.09 167.126C335 167.151 334.909 167.161 334.82 167.161Z" fill="url(#paint29_linear_15_914)"/>
    <path d="M83.8969 406.859C83.8999 406.661 83.8867 406.462 83.837 406.261C80.8575 394.44 66.0686 387.077 66.0686 387.077L60.2078 387.537C56.8376 397.956 57.2708 404.346 57.8122 407.192C57.8269 407.273 57.8517 407.348 57.8722 407.425C62.7058 407.857 72.6567 408.138 83.8969 406.859Z" fill="url(#paint30_linear_15_914)"/>
    <path d="M57.8722 407.424C58.1327 408.374 58.8351 409.114 59.7321 409.303C66.6086 410.749 77.5385 409.585 82.1277 408.985C83.1403 408.853 83.8808 407.916 83.8969 406.857C72.6567 408.138 62.7057 407.857 57.8722 407.424Z" fill="url(#paint31_linear_15_914)"/>
    <path d="M57.8503 378.803L60.3322 390.759C60.5136 391.634 61.1868 392.29 62.0019 392.368C62.9999 392.462 64.4194 392.517 65.8476 392.306C67.1281 392.118 68.0193 390.816 67.7924 389.419L66.0671 378.803H57.8503Z" fill="url(#paint32_linear_15_914)"/>
    <path d="M109.278 407.273C102.805 407.091 99.457 406.328 97.7273 405.621C97.7229 406.265 97.7273 406.92 97.7478 407.599C97.7698 408.324 98.3068 408.904 98.9668 408.9L134.505 408.67C135.639 408.662 136.302 407.346 135.81 406.305C131.151 406.691 119.283 407.552 109.278 407.273Z" fill="url(#paint33_linear_15_914)"/>
    <path d="M135.81 406.307C135.768 406.216 135.731 406.124 135.67 406.039C132.531 401.65 124.538 392.913 108.742 389.123L101.165 388.885C101.165 388.885 97.7902 394.753 97.7273 405.623C99.4585 406.33 102.805 407.093 109.278 407.275C119.283 407.553 131.151 406.692 135.81 406.307Z" fill="url(#paint34_linear_15_914)"/>
    <path d="M99.4219 377.744C99.5419 378.304 101.118 386.811 101.728 390.109C101.873 390.892 102.483 391.468 103.211 391.509C104.509 391.582 106.601 391.591 108.4 391.101C109.37 390.838 110.023 389.847 109.954 388.748L109.107 375.292L99.4219 377.744Z" fill="url(#paint35_linear_15_914)"/>
    <path d="M93.6796 220.664C93.6796 220.664 104.103 292.335 111.625 377.623C111.766 379.211 110.5 380.594 108.941 380.922C106.644 381.406 103.265 381.98 100.468 381.903C98.9756 381.862 97.7273 380.753 97.4771 379.28C94.9147 364.243 76.6283 283.538 71.8284 265.776C71.8284 265.776 66.3159 341.225 68.0778 380.37C68.1217 381.343 67.409 382.187 66.4417 382.3C64.974 382.469 62.6267 382.598 59.64 382.281C58.5058 382.16 57.5912 381.302 57.4288 380.173C55.604 367.447 45.0969 291.694 45.5432 237.123C45.5681 234.045 49.1519 208.761 49.1519 208.761L93.6796 220.664Z" fill="url(#paint36_linear_15_914)"/>
    <path d="M47.5876 224.795C46.5164 224.414 45.7686 223.442 45.6516 222.31C44.2657 208.853 37.5532 125.418 79.9253 91.097C79.9253 91.097 82.3545 84.7361 102.328 100.373C122.302 116.01 111.609 132.4 106.827 155.007C101.04 182.364 90.8875 204.726 95.3801 221.56C95.6903 222.722 95.0801 223.941 93.9518 224.357C78.4371 230.08 62.9809 230.269 47.5876 224.795Z" fill="url(#paint37_linear_15_914)"/>
    <path d="M96.4541 66.0974C96.441 67.2849 79.5214 91.3314 79.5214 91.3314C79.5214 91.3314 82.5579 97.316 97.0571 102.176L109.572 76.4294L96.4541 66.0974Z" fill="url(#paint38_linear_15_914)"/>
    <g class="head">
      <path d="M109.775 52.3184C109.775 52.3184 115.796 66.1559 116.2 73.4202C116.603 80.683 118.168 85.3966 109.775 86.8594C101.383 88.3222 94.3118 84.1387 90.4821 76.9037C90.4821 76.9037 84.4808 65.7561 85.8271 61.1905C87.1734 56.6234 109.775 52.3184 109.775 52.3184Z" fill="url(#paint39_linear_15_914)"/>
      <path d="M93.3503 71.7011L93.8274 71.4902C94.4362 71.2223 94.6966 70.4975 94.3908 69.9073C93.2069 67.6187 90.9006 62.3765 93.8801 61.1524C97.7215 59.5753 112.936 56.4711 116.22 51.0693C119.375 45.877 116.58 39.1749 112.379 37.2684C112.098 37.141 111.765 37.2421 111.622 37.5159L111.272 38.1792C111.032 38.6331 110.362 38.5643 110.22 38.0709C110.083 37.5979 109.455 37.5056 109.193 37.923C108.183 39.5395 105.46 42.1591 98.1736 43.5048C87.8188 45.4172 80.9746 49.6094 80.8033 56.7683C80.7931 57.2237 80.3087 57.4756 79.9209 57.2398C79.157 56.7742 77.9337 56.5545 76.2976 57.931C73.4543 60.3236 74.6176 66.5292 80.8516 71.6352C81.1472 71.8783 81.1458 72.341 80.8253 72.5489C79.6956 73.2854 78.0112 75.0367 82.375 77.3708C86.8895 79.7854 90.2611 79.5877 91.5592 79.3739C91.8826 79.3212 92.0904 79.0079 92.0201 78.6872L90.6343 72.3952C90.5553 72.0393 90.8275 71.7011 91.1919 71.7011H93.3503Z" fill="url(#paint40_linear_15_914)"/>
      <path d="M93.6108 73.0277C93.6108 73.0277 91.3148 64.1878 87.3534 66.6668C83.3935 69.1459 89.4095 76.5713 92.5923 76.9022L93.6108 73.0277Z" fill="url(#paint41_linear_15_914)"/>
    </g>
    <path d="M108.754 107.629L109.92 138.978C113.233 140.118 116.388 141.006 119.391 141.669C121.27 135.616 125.407 128.187 128.795 122.664C116.349 118.261 108.754 107.629 108.754 107.629Z" fill="url(#paint42_linear_15_914)"/>
    <path d="M170.898 107.096C153.823 125.542 140.004 126.628 128.796 122.664C125.409 128.188 121.272 135.617 119.393 141.669C164.989 151.727 175.727 109.784 175.727 109.784L170.898 107.096Z" fill="url(#paint43_linear_15_914)"/>
    <path d="M174.36 105.137C174.36 105.137 176.327 103.024 179.968 103.687C183.607 104.352 186.849 105.617 189.115 103.687C191.384 101.757 192.181 104.347 192.181 104.347L185.39 109.513L174.36 105.137Z" fill="url(#paint44_linear_15_914)"/>
    <path d="M170.298 108.749C170.298 108.749 171.645 103.11 175.706 103.883C179.767 104.656 188.988 109.673 191.363 108.749C193.74 107.825 196.778 105.612 198.336 106.394L195.591 109.811C195.591 109.811 202.65 105.735 203.865 108.239L192.12 114.854C192.12 114.854 174.937 113.132 170.298 108.749Z" fill="url(#paint45_linear_15_914)"/>
    <path d="M89.8002 148.658C89.8002 148.658 121.901 175.558 156.564 163.821C158.714 163.093 161.065 163.251 163.072 164.311L173.037 169.578C177.219 171.788 182.4 170.338 184.828 166.275C186.212 163.957 187.393 161.311 187.628 158.775L168.129 150.876L169.566 148.484C169.566 148.484 160.045 147.677 157.553 154.503C157.553 154.503 139.419 162.05 108.839 128.392C108.839 128.394 94.9615 140.2 89.8002 148.658Z" fill="url(#paint46_linear_15_914)"/>
    <path d="M88.072 148.38C87.9666 148.38 87.8583 148.349 87.7647 148.286C74.2489 139.149 67.8905 124.399 67.8276 124.251C67.7091 123.972 67.8393 123.649 68.1188 123.531C68.3983 123.412 68.7203 123.541 68.8388 123.822C68.9003 123.967 75.1401 138.426 88.3793 147.375C88.631 147.545 88.6969 147.886 88.5271 148.138C88.4217 148.295 88.2491 148.38 88.072 148.38Z" fill="url(#paint47_linear_15_914)"/>
    <path d="M108.205 127.937C108.025 127.937 107.848 127.848 107.743 127.685C107.702 127.622 103.572 121.191 95.7079 107.099C93.2889 102.766 90.1105 100.022 86.2603 98.9441C79.8844 97.1621 73.7396 100.583 73.6782 100.616C73.4133 100.763 73.0797 100.675 72.9289 100.41C72.7797 100.146 72.8704 99.811 73.1353 99.6601C73.4001 99.5093 79.7205 95.9716 86.5457 97.8825C90.6929 99.0407 94.0982 101.961 96.6664 106.561C104.512 120.617 108.625 127.026 108.666 127.089C108.83 127.344 108.757 127.684 108.502 127.849C108.41 127.909 108.308 127.937 108.205 127.937Z" fill="url(#paint48_linear_15_914)"/>

    <g class="location">
      <path d="M252.799 249.963C262.768 239.988 262.768 223.814 252.799 213.838C242.83 203.863 226.666 203.863 216.696 213.838C206.727 223.814 206.727 239.988 216.696 249.963C226.666 259.939 242.83 259.939 252.799 249.963Z" fill="#91B3FA"/>
      <path d="M260.233 229.554H234.751H209.222C209.222 229.554 207.189 244.222 229.974 283.056C230.968 284.75 232.784 286.008 234.748 286.008C236.712 286.01 238.531 284.646 239.524 282.952C262.306 244.114 260.233 229.554 260.233 229.554Z" fill="#91B3FA"/>
      <path d="M235.365 287.082V287.194H234.746C232.523 287.194 230.45 285.986 229.333 284.083C216.015 261.382 211.135 247.036 209.387 239.006C208.888 237.158 208.603 235.351 208.512 233.495C208.359 231.595 208.476 230.797 208.49 230.712L208.558 230.305C209.586 216.584 220.999 205.906 234.751 205.906C248.682 205.906 260.199 216.736 260.977 230.568C260.996 230.749 261.034 231.207 261.02 231.976L261.021 232.07C261.021 234.578 260.667 237.065 259.969 239.456C258.16 247.48 253.564 261.692 240.473 284.01C239.347 285.923 237.353 287.082 235.365 287.082ZM209.919 231.541C209.913 231.541 209.925 232.541 209.992 233.364L209.993 233.397C210.078 235.155 210.35 236.867 210.824 238.62L210.833 238.658C212.556 246.579 217.385 260.758 230.614 283.307C231.465 284.758 233.358 285.661 235.057 285.661L235.367 286.404V285.663C235.863 285.663 238.414 284.753 239.271 283.289C252.278 261.114 257.217 247.023 258.706 239.106V239.06C259.7 236.797 259.703 234.443 259.703 232.068L259.698 231.964V231.956C259.698 231.216 259.595 230.816 259.583 230.711L259.539 230.669C258.815 217.613 247.924 207.388 234.771 207.388C221.645 207.388 210.764 217.689 210.017 230.859L209.967 231.544H209.919V231.541Z" fill="#BDD0FB"/>
      <path opacity="0.8" d="M245.252 242.247C251.009 236.487 251.009 227.148 245.252 221.388C239.496 215.628 230.162 215.628 224.406 221.388C218.649 227.148 218.649 236.487 224.406 242.247C230.162 248.008 239.496 248.008 245.252 242.247Z" fill="white"/>
      <path d="M234.833 247.392C226.25 247.392 219.268 240.406 219.268 231.818C219.268 223.23 226.25 216.244 234.833 216.244C243.415 216.244 250.397 223.23 250.397 231.818C250.397 240.406 243.414 247.392 234.833 247.392ZM234.833 217.892C227.159 217.892 220.916 224.139 220.916 231.818C220.916 239.497 227.159 245.743 234.833 245.743C242.507 245.743 248.749 239.497 248.749 231.818C248.749 224.139 242.507 217.892 234.833 217.892Z" fill="url(#paint49_linear_15_914)"/>
      <path d="M220.849 216.462C220.78 216.462 220.71 216.433 220.661 216.376C220.572 216.272 220.584 216.117 220.688 216.027C224.829 212.469 230.119 210.508 235.585 210.508C235.721 210.508 235.832 210.62 235.832 210.756C235.832 210.892 235.721 211.003 235.585 211.003C230.238 211.003 225.06 212.92 221.01 216.402C220.964 216.442 220.906 216.462 220.849 216.462Z" fill="#BDD0FB"/>
      <path d="M212.957 233.647C212.821 233.647 212.709 233.536 212.709 233.399C212.709 229.128 213.893 224.961 216.132 221.35C216.204 221.234 216.356 221.197 216.472 221.269C216.587 221.341 216.624 221.493 216.552 221.609C214.362 225.142 213.204 229.219 213.204 233.398C213.203 233.536 213.093 233.647 212.957 233.647Z" fill="#BDD0FB"/>
    </g>
  </g>
  <defs>
    <linearGradient id="paint0_linear_15_914" x1="463.44" y1="529.126" x2="100.652" y2="78.8461" gradientUnits="userSpaceOnUse">
      <stop stop-color="#DAE3FE"/>
      <stop offset="1" stop-color="#E9EFFD"/>
    </linearGradient>
    <linearGradient id="paint1_linear_15_914" x1="209.707" y1="234.11" x2="140.384" y2="75.9034" gradientUnits="userSpaceOnUse">
      <stop stop-color="#4F52FF"/>
      <stop offset="1" stop-color="#4042E2"/>
    </linearGradient>
    <linearGradient id="paint2_linear_15_914" x1="174.316" y1="162.52" x2="162.182" y2="164.9" gradientUnits="userSpaceOnUse">
      <stop stop-color="#FEBBBA"/>
      <stop offset="1" stop-color="#FF928E"/>
    </linearGradient>
    <linearGradient id="paint3_linear_15_914" x1="227.488" y1="147.325" x2="177.508" y2="154.625" gradientUnits="userSpaceOnUse">
      <stop stop-color="#FEBBBA"/>
      <stop offset="1" stop-color="#FF928E"/>
    </linearGradient>
    <linearGradient id="paint4_linear_15_914" x1="305.073" y1="2.62474" x2="229.768" y2="162.83" gradientUnits="userSpaceOnUse">
      <stop stop-color="#09005D"/>
      <stop offset="1" stop-color="#1A0F91"/>
    </linearGradient>
    <linearGradient id="paint5_linear_15_914" x1="361.072" y1="28.9476" x2="285.766" y2="189.153" gradientUnits="userSpaceOnUse">
      <stop stop-color="#09005D"/>
      <stop offset="1" stop-color="#1A0F91"/>
    </linearGradient>
    <linearGradient id="paint6_linear_15_914" x1="290.068" y1="93.975" x2="281.03" y2="66.8758" gradientUnits="userSpaceOnUse">
      <stop stop-color="#FEBBBA"/>
      <stop offset="1" stop-color="#FF928E"/>
    </linearGradient>
    <linearGradient id="paint7_linear_15_914" x1="268.979" y1="60.7154" x2="301.436" y2="74.8183" gradientUnits="userSpaceOnUse">
      <stop stop-color="#FEBBBA"/>
      <stop offset="1" stop-color="#FF928E"/>
    </linearGradient>
    <linearGradient id="paint8_linear_15_914" x1="292.443" y1="80.171" x2="265.857" y2="51.9458" gradientUnits="userSpaceOnUse">
      <stop stop-color="#09005D"/>
      <stop offset="1" stop-color="#1A0F91"/>
    </linearGradient>
    <linearGradient id="paint9_linear_15_914" x1="266.957" y1="65.3692" x2="299.414" y2="79.4723" gradientUnits="userSpaceOnUse">
      <stop stop-color="#FEBBBA"/>
      <stop offset="1" stop-color="#FF928E"/>
    </linearGradient>
    <linearGradient id="paint10_linear_15_914" x1="311.149" y1="339.393" x2="310.404" y2="410.701" gradientUnits="userSpaceOnUse">
      <stop stop-color="#09005D"/>
      <stop offset="1" stop-color="#1A0F91"/>
    </linearGradient>
    <linearGradient id="paint11_linear_15_914" x1="427.943" y1="370.293" x2="281.903" y2="411.891" gradientUnits="userSpaceOnUse">
      <stop stop-color="#4F52FF"/>
      <stop offset="1" stop-color="#4042E2"/>
    </linearGradient>
    <linearGradient id="paint12_linear_15_914" x1="326.878" y1="389.097" x2="315.519" y2="389.097" gradientUnits="userSpaceOnUse">
      <stop stop-color="#FEBBBA"/>
      <stop offset="1" stop-color="#FF928E"/>
    </linearGradient>
    <linearGradient id="paint13_linear_15_914" x1="403.962" y1="340.366" x2="403.216" y2="411.672" gradientUnits="userSpaceOnUse">
      <stop stop-color="#09005D"/>
      <stop offset="1" stop-color="#1A0F91"/>
    </linearGradient>
    <linearGradient id="paint14_linear_15_914" x1="346.536" y1="361.828" x2="437.571" y2="421.07" gradientUnits="userSpaceOnUse">
      <stop stop-color="#4F52FF"/>
      <stop offset="1" stop-color="#4042E2"/>
    </linearGradient>
    <linearGradient id="paint15_linear_15_914" x1="399.097" y1="379.621" x2="385.521" y2="379.621" gradientUnits="userSpaceOnUse">
      <stop stop-color="#FEBBBA"/>
      <stop offset="1" stop-color="#FF928E"/>
    </linearGradient>
    <linearGradient id="paint16_linear_15_914" x1="401.012" y1="399.567" x2="193.684" y2="113.105" gradientUnits="userSpaceOnUse">
      <stop stop-color="#09005D"/>
      <stop offset="1" stop-color="#1A0F91"/>
    </linearGradient>
    <linearGradient id="paint17_linear_15_914" x1="337.354" y1="263.171" x2="343.321" y2="306.566" gradientUnits="userSpaceOnUse">
      <stop stop-color="#FE7062"/>
      <stop offset="1" stop-color="#FF928E"/>
    </linearGradient>
    <linearGradient id="paint18_linear_15_914" x1="270.743" y1="-148.687" x2="265.452" y2="-195.853" gradientUnits="userSpaceOnUse">
      <stop stop-color="#E1473D"/>
      <stop offset="1" stop-color="#E9605A"/>
    </linearGradient>
    <linearGradient id="paint19_linear_15_914" x1="270.629" y1="-148.658" x2="265.338" y2="-195.822" gradientUnits="userSpaceOnUse">
      <stop stop-color="#E1473D"/>
      <stop offset="1" stop-color="#E9605A"/>
    </linearGradient>
    <linearGradient id="paint20_linear_15_914" x1="308.39" y1="-152.9" x2="303.1" y2="-200.065" gradientUnits="userSpaceOnUse">
      <stop stop-color="#E1473D"/>
      <stop offset="1" stop-color="#E9605A"/>
    </linearGradient>
    <linearGradient id="paint21_linear_15_914" x1="308.27" y1="-152.878" x2="302.979" y2="-200.043" gradientUnits="userSpaceOnUse">
      <stop stop-color="#E1473D"/>
      <stop offset="1" stop-color="#E9605A"/>
    </linearGradient>
    <linearGradient id="paint22_linear_15_914" x1="289.183" y1="-150.721" x2="283.893" y2="-197.883" gradientUnits="userSpaceOnUse">
      <stop stop-color="#E1473D"/>
      <stop offset="1" stop-color="#E9605A"/>
    </linearGradient>
    <linearGradient id="paint23_linear_15_914" x1="313.292" y1="197.66" x2="313.789" y2="149.709" gradientUnits="userSpaceOnUse">
      <stop stop-color="#FEBBBA"/>
      <stop offset="1" stop-color="#FF928E"/>
    </linearGradient>
    <linearGradient id="paint24_linear_15_914" x1="328.114" y1="207.996" x2="337.727" y2="260.003" gradientUnits="userSpaceOnUse">
      <stop stop-color="#FE7062"/>
      <stop offset="1" stop-color="#FF928E"/>
    </linearGradient>
    <linearGradient id="paint25_linear_15_914" x1="329.915" y1="265.539" x2="347.811" y2="226.541" gradientUnits="userSpaceOnUse">
      <stop stop-color="#E1473D"/>
      <stop offset="1" stop-color="#E9605A"/>
    </linearGradient>
    <linearGradient id="paint26_linear_15_914" x1="344.984" y1="212.3" x2="331.312" y2="273.663" gradientUnits="userSpaceOnUse">
      <stop stop-color="#FE7062"/>
      <stop offset="1" stop-color="#FF928E"/>
    </linearGradient>
    <linearGradient id="paint27_linear_15_914" x1="345.718" y1="172.696" x2="314.945" y2="231.837" gradientUnits="userSpaceOnUse">
      <stop stop-color="#FEBBBA"/>
      <stop offset="1" stop-color="#FF928E"/>
    </linearGradient>
    <linearGradient id="paint28_linear_15_914" x1="383.622" y1="39.5475" x2="308.317" y2="199.752" gradientUnits="userSpaceOnUse">
      <stop stop-color="#09005D"/>
      <stop offset="1" stop-color="#1A0F91"/>
    </linearGradient>
    <linearGradient id="paint29_linear_15_914" x1="556.363" y1="-121.302" x2="361.505" y2="98.9496" gradientUnits="userSpaceOnUse">
      <stop stop-color="#4F52FF"/>
      <stop offset="1" stop-color="#4042E2"/>
    </linearGradient>
    <linearGradient id="paint30_linear_15_914" x1="57.4411" y1="397.433" x2="83.8973" y2="397.433" gradientUnits="userSpaceOnUse">
      <stop stop-color="#09005D"/>
      <stop offset="1" stop-color="#1A0F91"/>
    </linearGradient>
    <linearGradient id="paint31_linear_15_914" x1="123.673" y1="366.203" x2="27.3794" y2="441.766" gradientUnits="userSpaceOnUse">
      <stop stop-color="#4F52FF"/>
      <stop offset="1" stop-color="#4042E2"/>
    </linearGradient>
    <linearGradient id="paint32_linear_15_914" x1="64.7983" y1="367.295" x2="59.7385" y2="411.426" gradientUnits="userSpaceOnUse">
      <stop stop-color="#FEBBBA"/>
      <stop offset="1" stop-color="#FF928E"/>
    </linearGradient>
    <linearGradient id="paint33_linear_15_914" x1="140.771" y1="387.96" x2="44.4788" y2="463.524" gradientUnits="userSpaceOnUse">
      <stop stop-color="#4F52FF"/>
      <stop offset="1" stop-color="#4042E2"/>
    </linearGradient>
    <linearGradient id="paint34_linear_15_914" x1="97.7267" y1="398.106" x2="135.81" y2="398.106" gradientUnits="userSpaceOnUse">
      <stop stop-color="#09005D"/>
      <stop offset="1" stop-color="#1A0F91"/>
    </linearGradient>
    <linearGradient id="paint35_linear_15_914" x1="105.274" y1="371.956" x2="103.002" y2="416.318" gradientUnits="userSpaceOnUse">
      <stop stop-color="#FEBBBA"/>
      <stop offset="1" stop-color="#FF928E"/>
    </linearGradient>
    <linearGradient id="paint36_linear_15_914" x1="63.4032" y1="417.76" x2="100.863" y2="143.793" gradientUnits="userSpaceOnUse">
      <stop stop-color="#09005D"/>
      <stop offset="1" stop-color="#1A0F91"/>
    </linearGradient>
    <linearGradient id="paint37_linear_15_914" x1="115.308" y1="103.04" x2="-6.57347" y2="318.564" gradientUnits="userSpaceOnUse">
      <stop stop-color="#FE7062"/>
      <stop offset="1" stop-color="#FF928E"/>
    </linearGradient>
    <linearGradient id="paint38_linear_15_914" x1="74.0039" y1="109.529" x2="114.015" y2="64.9292" gradientUnits="userSpaceOnUse">
      <stop stop-color="#FEBBBA"/>
      <stop offset="1" stop-color="#FF928E"/>
    </linearGradient>
    <linearGradient id="paint39_linear_15_914" x1="97.3238" y1="77.2224" x2="116.819" y2="49.7924" gradientUnits="userSpaceOnUse">
      <stop stop-color="#FEBBBA"/>
      <stop offset="1" stop-color="#FF928E"/>
    </linearGradient>
    <linearGradient id="paint40_linear_15_914" x1="74.7368" y1="30.7463" x2="103.777" y2="64.7376" gradientUnits="userSpaceOnUse">
      <stop stop-color="#09005D"/>
      <stop offset="1" stop-color="#1A0F91"/>
    </linearGradient>
    <linearGradient id="paint41_linear_15_914" x1="89.7784" y1="71.8596" x2="109.273" y2="44.4295" gradientUnits="userSpaceOnUse">
      <stop stop-color="#FEBBBA"/>
      <stop offset="1" stop-color="#FF928E"/>
    </linearGradient>
    <linearGradient id="paint42_linear_15_914" x1="122.565" y1="115.978" x2="97.8968" y2="141.135" gradientUnits="userSpaceOnUse">
      <stop stop-color="#FE7062"/>
      <stop offset="1" stop-color="#FF928E"/>
    </linearGradient>
    <linearGradient id="paint43_linear_15_914" x1="193.439" y1="104.462" x2="119.588" y2="141.176" gradientUnits="userSpaceOnUse">
      <stop stop-color="#FEBBBA"/>
      <stop offset="1" stop-color="#FF928E"/>
    </linearGradient>
    <linearGradient id="paint44_linear_15_914" x1="192.358" y1="95.2445" x2="167.087" y2="121.622" gradientUnits="userSpaceOnUse">
      <stop stop-color="#FEBBBA"/>
      <stop offset="1" stop-color="#FF928E"/>
    </linearGradient>
    <linearGradient id="paint45_linear_15_914" x1="193.79" y1="104.026" x2="119.939" y2="140.74" gradientUnits="userSpaceOnUse">
      <stop stop-color="#FEBBBA"/>
      <stop offset="1" stop-color="#FF928E"/>
    </linearGradient>
    <linearGradient id="paint46_linear_15_914" x1="167.738" y1="165.483" x2="74.3007" y2="128.977" gradientUnits="userSpaceOnUse">
      <stop stop-color="#FEBBBA"/>
      <stop offset="1" stop-color="#FF928E"/>
    </linearGradient>
    <linearGradient id="paint47_linear_15_914" x1="265.728" y1="-170.548" x2="146.439" y2="24.1703" gradientUnits="userSpaceOnUse">
      <stop stop-color="#E1473D"/>
      <stop offset="1" stop-color="#E9605A"/>
    </linearGradient>
    <linearGradient id="paint48_linear_15_914" x1="265.028" y1="-170.977" x2="145.74" y2="23.7406" gradientUnits="userSpaceOnUse">
      <stop stop-color="#E1473D"/>
      <stop offset="1" stop-color="#E9605A"/>
    </linearGradient>
    <linearGradient id="paint49_linear_15_914" x1="237.456" y1="225.947" x2="283.687" y2="122.614" gradientUnits="userSpaceOnUse">
      <stop stop-color="#4F52FF"/>
      <stop offset="1" stop-color="#4042E2"/>
    </linearGradient>
    <clipPath id="clip0_15_914">
      <rect width="411" height="410" fill="white" transform="translate(0 -0.000488281)"/>
    </clipPath>
  </defs>

  <style>

    .location {
      animation: 12s ease-in-out infinite loc;
    
    }
    
    @keyframes loc {
      0% {
        transform: translate(0px, 0px);
      }
      15% {
        transform: translate(15px, 15px);
      }
      30% {
        transform: translate(-45px, 20px);
      }
      50% {
        transform: translate(15px, -15px);
      }
      70% {
        transform: translate(-80px, -10px);
      }
      100% {
        transform: translate(0px, 0px);
    }
    }

    .head {
      animation: 4s linear infinite headshake;
      transform-origin: 24% 19%;
    }
    .head2{
      animation: 4s linear infinite reverse headshake;
      transform-origin: 64% 20%;
    }

    @keyframes headshake {
      0% {
        transform: rotate(0deg);
      }
    
      25% {
        transform: rotate(-6deg);
      }
    
      40% {
        transform: rotate(0deg);
      }
      70% {
        transform: rotate(12deg);
      }
      100% {
        transform: rotate(0deg);
      }
    }
    
  </style>
</svg>
