<svg width="145" height="60" viewBox="0 0 145 60" fill="none" xmlns="http://www.w3.org/2000/svg">
<path d="M1.15902 26.7678C1.10867 25.5993 1.02686 24.5846 0.913574 23.7236C2.24778 24.3386 3.44352 24.7752 4.50081 25.0335C5.57069 25.2795 6.59652 25.4025 7.57829 25.4025C8.5223 25.4025 9.39708 25.2487 10.2026 24.9413C11.0208 24.6215 11.6312 24.1787 12.034 23.6129C12.4494 23.0348 12.6571 22.3768 12.6571 21.6388C12.6571 21.2083 12.5878 20.8086 12.4494 20.4396C12.3109 20.0583 12.0844 19.677 11.7697 19.2957C11.4676 18.9021 10.9327 18.3794 10.1649 17.7275C9.40967 17.0633 8.3335 16.1532 6.93636 14.997L5.53922 13.8347C5.01058 13.3919 4.53228 12.9553 4.10433 12.5248C3.67638 12.082 3.31765 11.6638 3.02816 11.2702C2.73866 10.8643 2.5121 10.5015 2.34847 10.1817C2.19743 9.8496 2.07785 9.48676 1.98975 9.09317C1.90164 8.68728 1.85758 8.27524 1.85758 7.85705C1.85758 6.79928 2.15337 5.80916 2.74495 4.88669C3.33653 3.96422 4.2239 3.22624 5.40706 2.67276C6.60281 2.11927 8.17616 1.84253 10.1271 1.84253C11.5243 1.84253 13.2423 2.02702 15.2814 2.39601C15.3066 3.18319 15.3947 4.14871 15.5457 5.29258C13.62 4.6284 11.8704 4.29631 10.297 4.29631C9.21457 4.29631 8.30832 4.47465 7.57829 4.83134C6.84825 5.17573 6.29443 5.62467 5.91683 6.17815C5.53922 6.71934 5.35042 7.27897 5.35042 7.85705C5.35042 8.20144 5.40077 8.53968 5.50146 8.87177C5.60216 9.19156 5.7532 9.49906 5.95459 9.79425C6.24409 10.2247 6.60281 10.6614 7.03076 11.1042C7.45871 11.5346 8.05029 12.0635 8.8055 12.6908C8.99431 12.8384 9.71175 13.4165 10.9578 14.4251C12.2165 15.4336 13.1291 16.2147 13.6955 16.7681C14.2745 17.3216 14.7339 17.8382 15.0737 18.3179C15.4136 18.7853 15.6779 19.2957 15.8667 19.8492C16.0555 20.3904 16.1499 20.9808 16.1499 21.6203C16.1499 22.6043 15.9296 23.5145 15.4891 24.3509C15.0611 25.1749 14.4381 25.8514 13.62 26.3803C12.8144 26.9092 11.9144 27.2843 10.9201 27.5057C9.92573 27.7271 8.88731 27.8378 7.80485 27.8378C6.93636 27.8378 6.0364 27.7702 5.10498 27.6349C4.18614 27.5119 2.87082 27.2228 1.15902 26.7678Z" fill="black"/>
<path d="M21.6704 27.4317L20.783 24.7566L14.9302 8.74243C15.6225 8.75472 16.1826 8.76086 16.6105 8.76086C17.0133 8.76086 17.5294 8.75472 18.1587 8.74243L19.8202 13.7053L23.6528 24.5721L29.619 8.74243C30.2987 8.75472 30.8777 8.76086 31.356 8.76086C31.872 8.76086 32.4384 8.75472 33.0552 8.74243L37.4165 24.5721L42.703 12.3216L44.1756 8.74243C44.8553 8.75472 45.3777 8.76086 45.7427 8.76086L47.3664 8.74243L41.0037 22.6533L38.9269 27.4317C38.2976 27.4071 37.7186 27.3948 37.1899 27.3948C36.6487 27.3948 36.0131 27.4071 35.283 27.4317L31.8091 14.4802C31.5825 13.6315 31.3434 12.789 31.0916 11.9526L30.714 12.912C30.6008 13.1826 30.3427 13.8652 29.9399 14.9599L25.9562 25.5868C25.7674 26.0911 25.5471 26.7061 25.2954 27.4317C24.6535 27.4071 24.0745 27.3948 23.5584 27.3948C23.0046 27.3948 22.3753 27.4071 21.6704 27.4317Z" fill="black"/>
<path d="M46.4866 4.72065C46.5243 3.56449 46.5432 2.69121 46.5432 2.10083C47.2355 2.12543 47.8459 2.13774 48.3746 2.13774C49.0417 2.13774 49.6459 2.12543 50.1871 2.10083C50.1618 2.48212 50.1241 3.35539 50.0738 4.72065C49.3941 4.70837 48.8088 4.70222 48.318 4.70222C47.8271 4.70222 47.2166 4.70837 46.4866 4.72065H46.4866ZM45.637 27.4319L45.9579 22.7827L46.3167 14.8494L46.4677 8.74263L48.2047 8.76107L49.9039 8.74263C49.7654 10.6614 49.6396 12.6724 49.5263 14.7756C49.413 16.8665 49.3186 19.1543 49.2431 21.6388C49.1802 24.1233 49.1487 26.0544 49.1487 27.4319C48.3557 27.4073 47.7893 27.395 47.4495 27.395C47.1348 27.395 46.5306 27.4073 45.637 27.4319H45.637Z" fill="black"/>
<path d="M51.2332 27.4318L51.4408 24.0371L51.9506 11.0487H49.5906C49.6535 10.446 49.7038 9.68962 49.7416 8.77944H52.1771C52.2024 7.63558 52.2276 6.7623 52.2527 6.15962C52.2904 5.54464 52.3722 4.99731 52.4981 4.51762C52.6365 4.02563 52.8316 3.6136 53.0834 3.28151C53.3477 2.93712 53.7065 2.62348 54.1596 2.34058C54.6253 2.05769 55.1602 1.85475 55.7644 1.73175C56.3811 1.59646 57.086 1.52881 57.879 1.52881C58.9237 1.52881 60.1383 1.68255 61.5228 1.99005C61.5481 2.72802 61.611 3.50905 61.7116 4.33313C60.5159 3.92724 59.4271 3.72429 58.4454 3.72429C57.9671 3.72429 57.5265 3.78579 57.1238 3.90879C56.721 4.03178 56.3937 4.19783 56.142 4.40692C55.9028 4.60372 55.7014 4.86816 55.5378 5.20025C55.3868 5.53234 55.2798 5.92593 55.2169 6.38102C55.1665 6.8361 55.1413 7.37114 55.1413 7.98612L55.1226 8.77944H60.3713C60.3084 9.30833 60.2517 10.0648 60.2014 11.0487H55.1415L54.8016 20.4764L54.6317 27.4318C53.8513 27.4072 53.2786 27.3949 52.9136 27.3949C52.5612 27.3949 52.0011 27.4072 51.2333 27.4318H51.2332Z" fill="black"/>
<path d="M68.2705 24.9966C68.1321 25.5993 67.981 26.3987 67.8174 27.395C66.9615 27.5918 66.2818 27.7148 65.7783 27.764C65.2748 27.8132 64.7965 27.8378 64.3434 27.8378C63.2232 27.8378 62.3169 27.7025 61.6247 27.4319C60.945 27.149 60.4226 26.7062 60.0576 26.1036C59.6926 25.4886 59.5101 24.6583 59.5101 23.6129C59.5101 23.4776 59.5163 23.2377 59.5288 22.8933C59.5413 22.549 59.6042 21.3497 59.7176 19.2957L60.1707 11.0303H57.6597C57.71 10.5138 57.7541 9.77578 57.7918 8.81641H60.3595C60.4225 8.12763 60.4854 6.95302 60.5483 5.29256C61.7315 5.07117 62.7321 4.86208 63.5503 4.66528C63.4622 6.48563 63.4118 7.86934 63.3993 8.81641H68.648C68.585 9.59129 68.5473 10.3293 68.5347 11.0303H63.3048L62.7951 21.4174L62.7763 22.2107C62.7763 23.1086 62.877 23.7851 63.0785 24.2402C63.2924 24.6829 63.6071 25.0027 64.0225 25.1995C64.4378 25.3963 64.8721 25.4947 65.3252 25.4947C65.6399 25.4947 65.9797 25.4701 66.3447 25.4209C66.7097 25.3717 67.3517 25.2303 68.2705 24.9966H68.2705Z" fill="black"/>
<path d="M87.9701 24.2217C87.7939 25.1073 87.6366 26.0667 87.4981 27.0998C85.0185 27.5918 82.7466 27.8378 80.6824 27.8378C78.8447 27.8378 77.07 27.5672 75.3582 27.026C73.6463 26.4726 72.1548 25.6239 70.8835 24.48C69.6249 23.3362 68.706 21.9893 68.127 20.4396C67.548 18.8898 67.2585 17.2294 67.2585 15.4582C67.2585 13.5641 67.5795 11.7376 68.2214 9.97874C68.8634 8.21989 69.8325 6.73164 71.129 5.51397C72.438 4.28401 74.0114 3.36768 75.849 2.765C77.6993 2.15002 79.6314 1.84253 81.6453 1.84253C83.8102 1.84253 85.9688 2.06392 88.1212 2.50671C88.1337 3.13399 88.2029 4.09336 88.3288 5.38483C86.9317 4.96664 85.7423 4.6899 84.7605 4.5546C83.7787 4.40701 82.8473 4.33321 81.9662 4.33321C80.4684 4.33321 79.0335 4.56075 77.6615 5.01584C76.2896 5.45863 75.0749 6.172 74.0176 7.15598C72.9603 8.13995 72.1485 9.35146 71.5821 10.7905C71.0283 12.2173 70.7514 13.7055 70.7514 15.2553C70.7514 16.6943 70.9716 18.0596 71.4122 19.3511C71.8653 20.6425 72.5513 21.7372 73.4701 22.6351C74.4015 23.5206 75.5029 24.2033 76.7741 24.683C78.0454 25.1504 79.474 25.384 81.06 25.384C83.0613 25.384 85.3646 24.9966 87.9701 24.2217H87.9701Z" fill="black"/>
<path d="M97.9087 8.31812C99.2303 8.31812 100.489 8.50261 101.685 8.8716C102.88 9.24059 103.913 9.82482 104.781 10.6243C105.662 11.4238 106.329 12.4323 106.782 13.65C107.236 14.8677 107.462 16.153 107.462 17.5059C107.462 18.9696 107.217 20.3718 106.726 21.7124C106.247 23.0531 105.568 24.1908 104.687 25.1256C103.818 26.0603 102.748 26.7491 101.477 27.1919C100.218 27.6224 98.8653 27.8376 97.4178 27.8376C96.071 27.8376 94.7997 27.6408 93.604 27.2473C92.4082 26.8537 91.3698 26.2387 90.4888 25.4023C89.6203 24.5659 88.9595 23.5451 88.5063 22.3397C88.0532 21.122 87.8267 19.849 87.8267 18.5207C87.8267 16.5158 88.242 14.7139 89.0727 13.115C89.9035 11.5037 91.1244 10.3045 92.7355 9.51733C94.3466 8.71785 96.071 8.31812 97.9087 8.31812ZM97.8331 10.6612C96.5493 10.6612 95.3661 10.9748 94.2837 11.6021C93.2138 12.2294 92.4208 13.1765 91.9048 14.4433C91.3887 15.6979 91.1307 17.0693 91.1307 18.5576C91.1307 19.8613 91.3447 21.0359 91.7726 22.0814C92.2006 23.1146 92.9054 23.951 93.8872 24.5905C94.869 25.2301 96.0521 25.5499 97.4367 25.5499C98.3807 25.5499 99.2743 25.3962 100.118 25.0887C100.961 24.7689 101.697 24.2461 102.327 23.5205C102.956 22.7948 103.422 21.9092 103.724 20.8637C104.026 19.806 104.177 18.699 104.177 17.5428C104.177 16.4605 104.026 15.4458 103.724 14.4987C103.422 13.5516 102.956 12.7952 102.327 12.2294C101.71 11.6513 101.005 11.2454 100.212 11.0117C99.4317 10.778 98.6387 10.6612 97.8331 10.6612V10.6612Z" fill="#CF2E2E"/>
<path d="M107.64 27.4318C108.093 20.3349 108.319 14.6709 108.319 10.4398L108.301 8.74245C108.943 8.75474 109.471 8.76088 109.887 8.76088C110.365 8.76088 110.9 8.75474 111.491 8.74245L111.34 11.8051C111.806 11.0425 112.215 10.4705 112.568 10.0893C112.933 9.69567 113.342 9.37588 113.795 9.12989C114.248 8.8716 114.758 8.6748 115.324 8.53951C115.903 8.39191 116.501 8.31812 117.118 8.31812C117.646 8.31812 118.169 8.37961 118.685 8.50261C118.697 9.31438 118.741 10.2246 118.817 11.2331C118.037 11.024 117.338 10.9195 116.721 10.9195C115.979 10.9195 115.311 11.0425 114.72 11.2885C114.128 11.5222 113.593 11.885 113.115 12.377C112.649 12.8567 112.265 13.4348 111.963 14.1112C111.712 14.6524 111.517 15.3535 111.378 16.2145C111.252 17.0755 111.152 18.6437 111.076 20.9191C111.026 22.5795 111 24.3384 111 26.1956V27.4318C110.321 27.4071 109.773 27.3948 109.358 27.3948C108.98 27.3948 108.408 27.4071 107.64 27.4318H107.64Z" fill="black"/>
<path d="M133.362 24.4983C133.211 25.1748 133.06 26.0357 132.909 27.0812C131.7 27.3764 130.649 27.5732 129.756 27.6716C128.875 27.7823 127.994 27.8376 127.113 27.8376C125.539 27.8376 124.123 27.6531 122.865 27.2842C121.618 26.9152 120.549 26.2756 119.655 25.3654C118.761 24.4429 118.119 23.3913 117.729 22.2106C117.339 21.0298 117.144 19.7814 117.144 18.4653C117.144 16.6327 117.503 14.9353 118.22 13.3733C118.937 11.7989 120.014 10.5628 121.448 9.66493C122.896 8.76705 124.727 8.31812 126.943 8.31812C128.088 8.31812 129.183 8.48416 130.228 8.81625C131.272 9.13604 132.141 9.62803 132.833 10.2922C133.526 10.9564 134.06 11.7805 134.438 12.7644C134.816 13.7361 135.004 14.8 135.004 15.9562C135.004 16.399 134.967 16.8295 134.891 17.2477H120.486C120.435 17.9241 120.41 18.4407 120.41 18.7974C120.41 20.0889 120.687 21.2819 121.241 22.3766C121.795 23.459 122.613 24.283 123.695 24.8488C124.778 25.4023 126.024 25.6791 127.434 25.6791C129.057 25.6791 131.033 25.2855 133.362 24.4983H133.362ZM120.637 15.7163H131.889C131.877 14.9415 131.826 14.3388 131.738 13.9083C131.65 13.4778 131.486 13.035 131.247 12.5799C131.008 12.1126 130.681 11.7128 130.266 11.3807C129.863 11.0363 129.372 10.778 128.793 10.6058C128.226 10.4214 127.61 10.3291 126.943 10.3291C126.225 10.3291 125.539 10.4275 124.885 10.6243C124.243 10.8211 123.67 11.0917 123.167 11.4361C122.676 11.7805 122.254 12.1864 121.902 12.6537C121.562 13.1088 121.304 13.5516 121.128 13.9821C120.964 14.4126 120.8 14.9907 120.637 15.7163Z" fill="black"/>
<path d="M99.5293 28.025C102.804 28.025 105.458 24.212 105.458 19.5084C105.458 14.8047 102.804 10.9917 99.5293 10.9917C96.255 10.9917 93.6006 14.8047 93.6006 19.5084C93.6006 24.212 96.255 28.025 99.5293 28.025Z" fill="#CF2E2E"/>
<path d="M135.437 26.6995L135.587 39.8545L143.689 32.7378L135.437 26.6995Z" fill="black" stroke="black" stroke-width="1.18304"/>
<path d="M135.284 30.2109H0.530518V35.443H135.284V30.2109Z" fill="black"/>
<path d="M26.9516 41.9521H17.2283V58.4772H10.337V41.9521H0.660889V38.9316H26.9516V41.9521Z" fill="black"/>
<path d="M57.6125 49.8857H43.3815V55.4702H60.0197V58.4772H36.4902V38.9316H59.9725V41.9521H43.3815V46.8653H57.6125V49.8857Z" fill="black"/>
<path d="M95.8963 51.8322L95.9435 51.9127C96.0065 54.0158 94.8736 55.6849 92.5451 56.9199C90.2323 58.146 87.0148 58.759 82.8926 58.759C78.7547 58.759 75.3956 58.0028 72.8153 56.4903C70.235 54.9779 68.9448 53.0314 68.9448 50.6508V46.7713C68.9448 44.3997 70.2035 42.4532 72.7209 40.9318C75.2382 39.4104 78.5108 38.6497 82.5386 38.6497C86.7866 38.6497 90.1064 39.2716 92.4979 40.5156C94.8894 41.7506 96.0537 43.4376 95.9907 45.5765L95.9435 45.6571H89.241C89.241 44.3684 88.6982 43.3839 87.6126 42.7038C86.527 42.0147 84.8356 41.6701 82.5386 41.6701C80.4775 41.6701 78.8412 42.1489 77.6297 43.1065C76.4182 44.0551 75.8125 45.2678 75.8125 46.7444V50.6509C75.8125 52.1454 76.4497 53.3715 77.7241 54.3291C78.9985 55.2777 80.7213 55.752 82.8926 55.752C85.048 55.752 86.6371 55.4254 87.6598 54.7721C88.6982 54.1098 89.2174 53.1298 89.2174 51.8322L95.8963 51.8322Z" fill="black"/>
<path d="M134.322 58.4772H127.454V50.3556H113.435V58.4772H106.544V38.9316H113.435V47.3352H127.454V38.9316H134.322V58.4772Z" fill="black"/>
</svg>
