<svg width="145" height="61" viewBox="0 0 145 61" fill="none" xmlns="http://www.w3.org/2000/svg">
<path d="M1.15902 27.0274C1.10867 25.8476 1.02686 24.8231 0.913574 23.9537C2.24778 24.5747 3.44352 25.0155 4.50081 25.2763C5.57069 25.5247 6.59652 25.6489 7.57829 25.6489C8.5223 25.6489 9.39708 25.4937 10.2026 25.1832C11.0208 24.8603 11.6312 24.4132 12.034 23.842C12.4494 23.2583 12.6571 22.5938 12.6571 21.8487C12.6571 21.414 12.5878 21.0104 12.4494 20.6379C12.3109 20.2529 12.0844 19.8679 11.7697 19.4829C11.4676 19.0855 10.9327 18.5577 10.1649 17.8995C9.40967 17.2288 8.3335 16.3098 6.93636 15.1425L5.53922 13.9689C5.01058 13.5218 4.53228 13.0809 4.10433 12.6462C3.67638 12.1992 3.31765 11.7769 3.02816 11.3795C2.73866 10.9697 2.5121 10.6033 2.34847 10.2804C2.19743 9.94511 2.07785 9.57875 1.98975 9.18134C1.90164 8.77152 1.85758 8.35548 1.85758 7.93324C1.85758 6.8652 2.15337 5.86547 2.74495 4.93405C3.33653 4.00263 4.2239 3.25749 5.40706 2.69863C6.60281 2.13978 8.17616 1.86035 10.1271 1.86035C11.5242 1.86035 13.2423 2.04664 15.2814 2.41921C15.3066 3.21402 15.3947 4.18891 15.5457 5.34388C13.62 4.67325 11.8704 4.33794 10.297 4.33794C9.21457 4.33794 8.30832 4.51801 7.57829 4.87817C6.84825 5.2259 6.29443 5.67919 5.91683 6.23804C5.53922 6.78448 5.35042 7.34954 5.35042 7.93324C5.35042 8.28097 5.40077 8.62249 5.50146 8.9578C5.60216 9.28069 5.7532 9.59117 5.95459 9.88923C6.24409 10.3239 6.60281 10.7648 7.03076 11.2118C7.45871 11.6465 8.05029 12.1805 8.8055 12.8139C8.9943 12.9629 9.71175 13.5466 10.9578 14.565C12.2165 15.5833 13.1291 16.3719 13.6955 16.9308C14.2745 17.4896 14.7339 18.0112 15.0737 18.4956C15.4136 18.9675 15.6779 19.4829 15.8667 20.0417C16.0555 20.5882 16.1499 21.1843 16.1499 21.8301C16.1499 22.8236 15.9296 23.7426 15.4891 24.5871C15.0611 25.4192 14.4381 26.1022 13.62 26.6362C12.8144 27.1702 11.9144 27.549 10.9201 27.7726C9.92572 27.9961 8.88731 28.1079 7.80485 28.1079C6.93636 28.1079 6.0364 28.0396 5.10498 27.903C4.18614 27.7788 2.87082 27.4869 1.15902 27.0274Z" fill="black"/>
<path d="M21.6705 27.698L20.7831 24.9969L14.9302 8.82739C15.6225 8.8398 16.1826 8.846 16.6106 8.846C17.0134 8.846 17.5294 8.8398 18.1588 8.82739L19.8202 13.8385L23.6529 24.8106L29.619 8.82739C30.2987 8.8398 30.8777 8.846 31.356 8.846C31.8721 8.846 32.4385 8.8398 33.0552 8.82739L37.4166 24.8106L42.703 12.4413L44.1757 8.82739C44.8554 8.8398 45.3777 8.846 45.7427 8.846L47.3664 8.82739L41.0038 22.8733L38.927 27.698C38.2976 27.6732 37.7186 27.6608 37.19 27.6608C36.6488 27.6608 36.0131 27.6732 35.2831 27.698L31.8091 14.6208C31.5826 13.7639 31.3434 12.9132 31.0917 12.0687L30.7141 13.0374C30.6008 13.3106 30.3428 13.9999 29.94 15.1052L25.9563 25.8352C25.7675 26.3444 25.5472 26.9653 25.2955 27.698C24.6535 27.6732 24.0745 27.6608 23.5585 27.6608C23.0047 27.6608 22.3753 27.6732 21.6705 27.698Z" fill="black"/>
<path d="M46.4866 4.76646C46.5244 3.59907 46.5433 2.71733 46.5433 2.12122C47.2355 2.14606 47.846 2.15848 48.3746 2.15848C49.0417 2.15848 49.6459 2.14606 50.1871 2.12122C50.1619 2.5062 50.1241 3.38795 50.0739 4.76646C49.3942 4.75405 48.8089 4.74785 48.318 4.74785C47.8271 4.74785 47.2167 4.75405 46.4866 4.76646H46.4866ZM45.637 27.6981L45.958 23.0037L46.3167 14.9935L46.4677 8.82747L48.2047 8.84608L49.904 8.82747C49.7655 10.7648 49.6396 12.7953 49.5264 14.919C49.4131 17.0302 49.3187 19.3401 49.2432 21.8488C49.1802 24.3574 49.1488 26.3072 49.1488 27.6981C48.3558 27.6733 47.7894 27.6608 47.4495 27.6608C47.1349 27.6608 46.5307 27.6733 45.637 27.6981H45.637Z" fill="black"/>
<path d="M51.2331 27.6981L51.4408 24.2704L51.9505 11.156H49.5905C49.6534 10.5475 49.7038 9.7837 49.7415 8.86469H52.1771C52.2024 7.70973 52.2275 6.82798 52.2526 6.21945C52.2904 5.5985 52.3722 5.04585 52.4981 4.56151C52.6365 4.06475 52.8316 3.64872 53.0833 3.3134C53.3477 2.96567 53.7064 2.64899 54.1595 2.36335C54.6252 2.07772 55.1602 1.8728 55.7643 1.74861C56.3811 1.61201 57.0859 1.5437 57.8789 1.5437C58.9236 1.5437 60.1382 1.69894 61.5228 2.00941C61.5481 2.75455 61.611 3.54316 61.7116 4.37523C60.5158 3.9654 59.4271 3.76049 58.4453 3.76049C57.967 3.76049 57.5265 3.82258 57.1237 3.94677C56.7209 4.07096 56.3937 4.23862 56.1419 4.44974C55.9028 4.64845 55.7014 4.91546 55.5378 5.25077C55.3867 5.58608 55.2797 5.98349 55.2168 6.44299C55.1664 6.90249 55.1413 7.44272 55.1413 8.06367L55.1225 8.86469H60.3712C60.3083 9.39871 60.2517 10.1625 60.2013 11.156H55.1414L54.8016 20.6751L54.6316 27.6981C53.8513 27.6732 53.2786 27.6608 52.9135 27.6608C52.5611 27.6608 52.001 27.6732 51.2332 27.6981H51.2331Z" fill="black"/>
<path d="M68.2706 25.2392C68.1322 25.8477 67.9811 26.6549 67.8175 27.6609C66.9616 27.8596 66.2819 27.9837 65.7784 28.0334C65.275 28.0831 64.7967 28.1079 64.3435 28.1079C63.2233 28.1079 62.3171 27.9713 61.6248 27.6981C60.9451 27.4125 60.4228 26.9654 60.0577 26.3569C59.6927 25.7359 59.5102 24.8976 59.5102 23.842C59.5102 23.7054 59.5164 23.4632 59.5289 23.1155C59.5414 22.7678 59.6043 21.5569 59.7177 19.483L60.1709 11.1374H57.6598C57.7101 10.6158 57.7542 9.87066 57.792 8.90198H60.3597C60.4226 8.20652 60.4855 7.0205 60.5485 5.34394C61.7316 5.1204 62.7323 4.90928 63.5504 4.71057C63.4623 6.54858 63.412 7.94572 63.3994 8.90198H68.6481C68.5852 9.68437 68.5474 10.4295 68.5348 11.1374H63.305L62.7952 21.6252L62.7765 22.4263C62.7765 23.3328 62.8772 24.0159 63.0786 24.4754C63.2925 24.9225 63.6072 25.2454 64.0226 25.4441C64.4379 25.6428 64.8722 25.7421 65.3253 25.7421C65.64 25.7421 65.9798 25.7173 66.3448 25.6676C66.7099 25.6179 67.3518 25.4751 68.2706 25.2392H68.2706Z" fill="black"/>
<path d="M87.9702 24.4567C87.794 25.3509 87.6366 26.3195 87.4982 27.3627C85.0186 27.8595 82.7467 28.1079 80.6824 28.1079C78.8448 28.1079 77.07 27.8347 75.3582 27.2882C73.6464 26.7294 72.1549 25.8725 70.8836 24.7175C69.6249 23.5625 68.7061 22.2027 68.1271 20.6379C67.5481 19.0731 67.2586 17.3965 67.2586 15.6082C67.2586 13.6956 67.5796 11.8514 68.2215 10.0755C68.8634 8.2996 69.8326 6.7969 71.129 5.56742C72.4381 4.32552 74.0114 3.40031 75.8491 2.79178C77.6994 2.17083 79.6314 1.86035 81.6453 1.86035C83.8103 1.86035 85.9689 2.08389 88.1212 2.53098C88.1337 3.16435 88.2029 4.13303 88.3289 5.43702C86.9318 5.01477 85.7423 4.73535 84.7605 4.59874C83.7788 4.44971 82.8473 4.3752 81.9663 4.3752C80.4684 4.3752 79.0335 4.60495 77.6616 5.06445C76.2896 5.51154 75.075 6.23184 74.0177 7.22536C72.9604 8.21887 72.1486 9.44214 71.5822 10.8952C71.0283 12.3358 70.7514 13.8385 70.7514 15.4033C70.7514 16.8563 70.9717 18.2348 71.4122 19.5388C71.8654 20.8428 72.5513 21.9481 73.4702 22.8546C74.4016 23.7488 75.5029 24.4381 76.7742 24.9224C78.0455 25.3943 79.4741 25.6303 81.06 25.6303C83.0613 25.6303 85.3647 25.2391 87.9702 24.4567H87.9702Z" fill="black"/>
<path d="M97.9087 8.39893C99.2304 8.39893 100.489 8.58521 101.685 8.95778C102.881 9.33035 103.913 9.92025 104.781 10.7275C105.662 11.5347 106.329 12.5531 106.782 13.7826C107.236 15.012 107.462 16.3098 107.462 17.6759C107.462 19.1538 107.217 20.5695 106.726 21.9232C106.247 23.2769 105.568 24.4256 104.687 25.3695C103.818 26.3133 102.748 27.0088 101.477 27.4559C100.218 27.8905 98.8653 28.1079 97.4179 28.1079C96.0711 28.1079 94.7998 27.9091 93.6041 27.5117C92.4083 27.1143 91.3699 26.4934 90.4888 25.6489C89.6203 24.8044 88.9595 23.7736 88.5064 22.5566C88.0533 21.3271 87.8267 20.0417 87.8267 18.7005C87.8267 16.6762 88.2421 14.8568 89.0728 13.2423C89.9035 11.6154 91.1245 10.4046 92.7356 9.60978C94.3467 8.80254 96.0711 8.39893 97.9087 8.39893ZM97.8332 10.7647C96.5494 10.7647 95.3662 11.0814 94.2837 11.7148C93.2139 12.3482 92.4209 13.3044 91.9048 14.5836C91.3888 15.8503 91.1307 17.235 91.1307 18.7377C91.1307 20.0541 91.3447 21.2402 91.7727 22.2958C92.2006 23.339 92.9055 24.1835 93.8872 24.8292C94.869 25.475 96.0522 25.7979 97.4367 25.7979C98.3807 25.7979 99.2744 25.6427 100.118 25.3322C100.961 25.0093 101.697 24.4815 102.327 23.7488C102.956 23.0161 103.422 22.1219 103.724 21.0663C104.026 19.9983 104.177 18.8806 104.177 17.7132C104.177 16.6203 104.026 15.5957 103.724 14.6395C103.422 13.6832 102.956 12.9194 102.327 12.3482C101.71 11.7645 101.005 11.3546 100.212 11.1187C99.4317 10.8827 98.6388 10.7647 97.8332 10.7647V10.7647Z" fill="#CF2E2E"/>
<path d="M107.64 27.698C108.093 20.5323 108.319 14.8133 108.319 10.5412L108.301 8.82738C108.942 8.83979 109.471 8.84599 109.886 8.84599C110.365 8.84599 110.9 8.83979 111.491 8.82738L111.34 11.9197C111.806 11.1497 112.215 10.5722 112.567 10.1873C112.933 9.78985 113.342 9.46696 113.795 9.21858C114.248 8.95778 114.758 8.75908 115.324 8.62247C115.903 8.47344 116.501 8.39893 117.118 8.39893C117.646 8.39893 118.169 8.46102 118.685 8.58521C118.697 9.40486 118.741 10.3239 118.817 11.3422C118.036 11.1311 117.338 11.0255 116.721 11.0255C115.979 11.0255 115.311 11.1497 114.72 11.3981C114.128 11.6341 113.593 12.0004 113.115 12.4972C112.649 12.9815 112.265 13.5652 111.963 14.2483C111.712 14.7947 111.516 15.5026 111.378 16.3719C111.252 17.2412 111.151 18.8247 111.076 21.1222C111.026 22.7987 111 24.5747 111 26.4499V27.698C110.321 27.6732 109.773 27.6608 109.358 27.6608C108.98 27.6608 108.408 27.6732 107.64 27.698H107.64Z" fill="black"/>
<path d="M133.362 24.7361C133.211 25.4191 133.06 26.2885 132.909 27.3441C131.701 27.6421 130.65 27.8408 129.756 27.9402C128.875 28.052 127.994 28.1079 127.113 28.1079C125.539 28.1079 124.123 27.9216 122.865 27.549C121.619 27.1764 120.549 26.5306 119.655 25.6116C118.761 24.6802 118.119 23.6184 117.729 22.4262C117.339 21.2339 117.144 19.9734 117.144 18.6446C117.144 16.7942 117.503 15.0803 118.22 13.5031C118.938 11.9135 120.014 10.6654 121.449 9.75881C122.896 8.85222 124.727 8.39893 126.943 8.39893C128.088 8.39893 129.183 8.56658 130.228 8.90189C131.273 9.22479 132.141 9.72155 132.833 10.3922C133.526 11.0628 134.061 11.8949 134.438 12.8884C134.816 13.8695 135.005 14.9437 135.005 16.1111C135.005 16.5582 134.967 16.9929 134.891 17.4151H120.486C120.435 18.0982 120.41 18.6198 120.41 18.9799C120.41 20.2839 120.687 21.4885 121.241 22.5938C121.795 23.6867 122.613 24.5188 123.695 25.09C124.778 25.6489 126.024 25.9283 127.434 25.9283C129.057 25.9283 131.033 25.5309 133.362 24.7361H133.362ZM120.637 15.8689H131.889C131.877 15.0865 131.826 14.478 131.738 14.0434C131.65 13.6087 131.487 13.1616 131.247 12.7021C131.008 12.2302 130.681 11.8266 130.266 11.4913C129.863 11.1435 129.372 10.8827 128.793 10.7089C128.227 10.5226 127.61 10.4294 126.943 10.4294C126.225 10.4294 125.539 10.5288 124.885 10.7275C124.243 10.9262 123.67 11.1994 123.167 11.5471C122.676 11.8949 122.254 12.3047 121.902 12.7766C121.562 13.2361 121.304 13.6832 121.128 14.1179C120.964 14.5525 120.8 15.1362 120.637 15.8689Z" fill="black"/>
<path d="M99.5294 28.297C102.804 28.297 105.458 24.447 105.458 19.6977C105.458 14.9484 102.804 11.0984 99.5294 11.0984C96.2551 11.0984 93.6007 14.9484 93.6007 19.6977C93.6007 24.447 96.2551 28.297 99.5294 28.297Z" fill="#CF2E2E"/>
<path d="M135.437 26.9585L135.587 40.2411L143.689 33.0555L135.437 26.9585Z" fill="black" stroke="black" stroke-width="1.18304"/>
<path d="M135.284 30.504H0.530579V35.7869H135.284V30.504Z" fill="black"/>
<path d="M26.9515 42.3591H17.2282V59.0445H10.3369V42.3591H0.660828V39.3093H26.9515V42.3591Z" fill="black"/>
<path d="M57.6124 50.3697H43.3814V56.0083H60.0196V59.0445H36.4902V39.3093H59.9724V42.3591H43.3814V47.32H57.6124V50.3697Z" fill="black"/>
<path d="M95.8962 52.3351L95.9434 52.4164C96.0063 54.5399 94.8735 56.2252 92.545 57.4722C90.2321 58.7102 87.0146 59.3292 82.8925 59.3292C78.7545 59.3292 75.3954 58.5656 72.8151 57.0385C70.2349 55.5113 68.9447 53.5459 68.9447 51.1423V47.2251C68.9447 44.8305 70.2034 42.8651 72.7207 41.3289C75.2381 39.7927 78.5107 39.0247 82.5385 39.0247C86.7865 39.0247 90.1063 39.6527 92.4978 40.9087C94.8893 42.1557 96.0535 43.8591 95.9906 46.0187L95.9434 46.1001H89.2409C89.2409 44.7988 88.6981 43.8049 87.6125 43.1181C86.5269 42.4223 84.8355 42.0744 82.5384 42.0744C80.4773 42.0744 78.8411 42.5579 77.6296 43.5247C76.4181 44.4826 75.8124 45.707 75.8124 47.198V51.1423C75.8124 52.6514 76.4496 53.8893 77.724 54.8562C78.9984 55.8141 80.7212 56.293 82.8924 56.293C85.0479 56.293 86.637 55.9632 87.6597 55.3035C88.6981 54.6348 89.2173 53.6454 89.2173 52.3351L95.8962 52.3351Z" fill="black"/>
<path d="M134.322 59.0445H127.454V50.8441H113.435V59.0445H106.544V39.3093H113.435V47.7944H127.454V39.3093H134.322V59.0445Z" fill="black"/>
</svg>
