<svg width="1567" height="1127" viewBox="0 0 1567 1127" fill="none" xmlns="http://www.w3.org/2000/svg">
<path opacity="0.15" d="M1823.88 -637.176C1823.88 -637.176 2010.73 -493.831 1981.37 -223.434C1952.01 46.9625 1745.64 1.26035 1858.68 255.876C1971.71 510.495 1641.62 674.424 1490.85 648.769C1340.08 623.113 1251.38 709.291 1105.62 762.715C869.214 849.363 697.84 615.951 710.757 463.039C729.093 246.078 341.757 379.575 415.704 -62.266L1823.88 -637.176Z" fill="#B5CAFA"/>
<path opacity="0.15" d="M1914.07 108.213C1914.08 108.243 1914.08 108.274 1914.08 108.306C1914.11 108.75 1914.15 109.413 1914.2 110.286C1914.29 112.033 1914.4 114.62 1914.45 117.973C1914.57 124.678 1914.49 134.444 1913.71 146.668C1912.14 171.116 1907.77 205.389 1896.56 244.666C1874.12 323.214 1824.29 421.774 1714.68 501.825C1619.53 571.322 1545.98 576.135 1483.84 580.202C1474.44 580.817 1465.3 581.415 1456.38 582.218C1422.43 585.275 1391.69 591.305 1362.42 612.65C1333.16 633.982 1305.48 670.525 1277.43 734.365C1249.51 797.905 1207.2 837.185 1158.19 858.411C1109.16 879.646 1053.34 882.839 998.365 874.057C943.397 865.276 889.332 844.527 843.861 817.943C798.378 791.351 761.566 758.965 741.033 726.96C699.605 662.385 647.918 628.217 589.422 601.228C565.953 590.4 541.369 580.719 515.923 570.698C509.679 568.239 503.383 565.76 497.038 563.238C464.825 550.434 431.336 536.524 396.967 518.608C285.722 460.62 244.336 360.939 245.915 264.056C247.495 167.104 292.101 73.0851 352.68 26.5832C374.389 9.92011 387.786 -7.78688 395.296 -26.511C402.804 -45.2295 404.401 -64.8922 402.622 -85.4233C400.845 -105.944 395.692 -127.372 389.673 -149.63C388.116 -155.387 386.501 -161.198 384.871 -167.064C380.192 -183.907 375.385 -201.208 371.451 -218.992C360.847 -266.917 356.625 -318.154 378.44 -372.534C400.223 -426.833 448.025 -484.412 541.71 -544.965L1914.07 108.213Z" stroke="#B5CAFA" stroke-width="2"/>
</svg>
