<svg width="50" height="45" viewBox="0 0 50 45" fill="none" xmlns="http://www.w3.org/2000/svg">
<g clip-path="url(#clip0_102_7)">
<path d="M11.307 33.1586C11.307 33.1586 2.85698 29.9412 1.04775 38.2873L2.83336 37.9262C2.83336 37.9262 0.740648 40.3678 0 45C4.53699 44.1029 6.87705 41.9053 6.87705 41.9053L6.5769 43.7277C14.7393 41.6316 11.307 33.1586 11.307 33.1586Z" fill="url(#paint0_linear_102_7)"/>
<path d="M11.307 33.1586C11.307 33.1586 6.03635 31.1515 4.908 36.3577L6.02106 36.132C6.02106 36.132 4.71624 37.6554 4.25351 40.5442C7.08409 39.9842 8.54315 38.6132 8.54315 38.6132L8.35556 39.75C13.4484 38.4439 11.307 33.1586 11.307 33.1586Z" fill="url(#paint1_linear_102_7)"/>
<path d="M17.2795 32.7326L11.5141 26.941L13.1024 25.3188L18.8692 31.1105L17.2795 32.7326Z" fill="url(#paint2_linear_102_7)"/>
<path d="M15.8899 17.6315C15.8899 17.6315 10.5344 17.2295 8.33749 19.4736C5.96686 21.8941 4.00338 24.8562 2.41647 29.0892C1.57022 31.3474 3.80467 29.013 5.28736 27.6378C7.88171 25.23 9.16152 25.2794 11.6322 25.8534C11.6308 25.8534 12.9634 23.086 15.8899 17.6315Z" fill="url(#paint3_linear_102_7)"/>
<path opacity="0.33" d="M15.8899 17.6315C15.8899 17.6315 10.5344 17.2295 8.33752 19.4736C5.96689 21.8941 4.0034 24.8562 2.4165 29.0892C2.25809 29.5123 2.20806 29.7747 2.24002 29.9115C2.24002 29.9115 4.51894 24.5487 7.01741 21.9251C9.51588 19.3015 11.1792 18.3198 15.8899 17.6315Z" fill="white"/>
<path d="M26.4674 28.2542C26.4674 28.2542 26.9093 33.6748 24.7123 35.919C22.3431 38.3408 19.4347 40.3537 15.2687 41.9955C13.0454 42.8714 15.3327 40.5892 16.6778 39.0757C19.0331 36.4282 18.9748 35.1319 18.3856 32.6352C18.3856 32.6367 21.1064 31.2642 26.4674 28.2542Z" fill="url(#paint4_linear_102_7)"/>
<path d="M43.3328 7.80157C44.2235 1.94366 43.0882 0.565573 43.0882 0.565573C43.0882 0.565573 41.7181 -0.572721 35.9416 0.379384C29.8399 1.38368 25.9672 5.1921 23.3297 7.83824C19.9183 11.263 14.2905 19.145 11.6308 25.8535L15.0256 29.2275L18.3856 32.6367C24.9875 29.8862 32.7205 24.1214 36.0736 20.6374C38.6652 17.9433 42.392 13.9895 43.3328 7.80157Z" fill="url(#paint5_linear_102_7)"/>
<path d="M12.4924 26.7097L15.0256 29.2275L18.3856 32.6367C24.9875 29.8862 32.7205 24.1214 36.0736 20.6374C38.6652 17.9447 42.392 13.9896 43.3328 7.80301C44.2235 1.9451 43.0882 0.567017 43.0882 0.567017" fill="url(#paint6_linear_102_7)"/>
<path opacity="0.09" d="M12.1116 26.3302L17.8909 32.1359" stroke="black" stroke-width="1.8919" stroke-miterlimit="10"/>
<path d="M11.6308 25.8534L15.0256 29.2274L18.3856 32.6367C19.7196 32.0809 21.1008 31.401 22.4821 30.6422L13.5665 21.6896C12.8287 23.093 12.1686 24.4979 11.6308 25.8534Z" fill="url(#paint7_linear_102_7)"/>
<path d="M20.684 23.8181L18.3856 32.6367L17.7297 32.1995L17.2795 32.7327L15.0409 30.4843L20.684 23.8181Z" fill="url(#paint8_linear_102_7)"/>
<path d="M30.928 1.98181L41.7931 12.8936" stroke="black" stroke-width="1.8919" stroke-miterlimit="10"/>
<path d="M43.0882 0.565574C43.0882 0.565574 41.7181 -0.572721 35.9416 0.379384C34.0698 0.686879 32.4093 1.25955 30.928 1.98174L41.7931 12.8936C42.4935 11.3871 43.0438 9.70014 43.3328 7.80157C44.2221 1.94366 43.0882 0.565574 43.0882 0.565574Z" fill="url(#paint9_linear_102_7)"/>
<path d="M41.8376 15.2477L28.7574 2.24125L29.3091 1.66858L42.3893 14.675L41.8376 15.2477Z" fill="url(#paint10_linear_102_7)"/>
<path d="M41.0344 16.3042L27.9543 3.29771L28.3225 2.91687L41.4026 15.9233L41.0344 16.3042Z" fill="url(#paint11_linear_102_7)"/>
<path opacity="0.09" d="M13.5651 21.6882L22.4807 30.6423" stroke="black" stroke-width="1.8919" stroke-miterlimit="10"/>
<path d="M20.6381 23.495C20.6381 23.495 20.1406 22.7122 15.3299 27.6265C10.5191 32.5393 6.41709 37.2463 6.79923 37.6299C7.18137 38.0136 11.7934 33.8187 16.6041 28.9058C21.4149 23.993 20.6381 23.495 20.6381 23.495Z" fill="url(#paint12_linear_102_7)"/>
<path opacity="0.33" d="M20.6381 23.495C20.6381 23.495 20.1406 22.7122 15.3299 27.6265C10.5191 32.5393 6.41709 37.2463 6.79923 37.6299C6.79923 37.6299 8.14435 35.6679 11.7545 31.765C15.3646 27.862 19.5042 23.5966 20.6381 23.495Z" fill="white"/>
<path d="M27.7722 22.3694C31.0784 22.3694 33.7585 19.6488 33.7585 16.2929C33.7585 12.9369 31.0784 10.2163 27.7722 10.2163C24.4661 10.2163 21.7859 12.9369 21.7859 16.2929C21.7859 19.6488 24.4661 22.3694 27.7722 22.3694Z" fill="url(#paint13_linear_102_7)"/>
<path d="M27.7446 22.1538C31.0324 22.1436 33.6895 19.43 33.6795 16.0927C33.6694 12.7554 30.9961 10.0582 27.7083 10.0684C24.4206 10.0786 21.7635 12.7922 21.7735 16.1295C21.7835 19.4668 24.4569 22.1639 27.7446 22.1538Z" fill="#D4D4D4"/>
<path d="M27.8 22.155C31.0478 22.155 33.6807 19.4824 33.6807 16.1857C33.6807 12.8889 31.0478 10.2163 27.8 10.2163C24.5522 10.2163 21.9193 12.8889 21.9193 16.1857C21.9193 19.4824 24.5522 22.155 27.8 22.155Z" fill="url(#paint14_linear_102_7)"/>
<path d="M27.7204 20.7758C30.2583 20.7607 32.3037 18.6601 32.2888 16.0839C32.274 13.5077 30.2045 11.4315 27.6666 11.4466C25.1286 11.4617 23.0833 13.5623 23.0981 16.1385C23.113 18.7147 25.1824 20.7909 27.7204 20.7758Z" fill="#76C9F0"/>
<path d="M27.7278 20.6768C30.1629 20.6768 32.1369 18.673 32.1369 16.2012C32.1369 13.7294 30.1629 11.7256 27.7278 11.7256C25.2926 11.7256 23.3186 13.7294 23.3186 16.2012C23.3186 18.673 25.2926 20.6768 27.7278 20.6768Z" fill="url(#paint15_linear_102_7)"/>
<path d="M31.7895 12.6622L22.0165 17.0433L22.7169 18.6542L32.4898 14.2731L31.7895 12.6622Z" fill="url(#paint16_linear_102_7)"/>
<path d="M32.765 15.1532L22.992 19.5343L23.3436 20.3454L33.1165 15.9628L32.765 15.1532Z" fill="url(#paint17_linear_102_7)"/>
<path d="M23.9731 12.7497C24.0023 12.6115 23.9147 12.4775 23.7785 12.4478C23.6424 12.4182 23.5103 12.5071 23.4812 12.6453C23.452 12.7835 23.5395 12.9175 23.6757 12.9472C23.8105 12.9754 23.9439 12.8879 23.9731 12.7497Z" fill="#A3A3A3"/>
<path d="M23.1004 14.1447C23.1296 14.0065 23.0421 13.8725 22.9059 13.8429C22.7697 13.8132 22.6377 13.9021 22.6085 14.0403C22.5793 14.1786 22.6669 14.3126 22.8031 14.3422C22.9378 14.3718 23.0712 14.2829 23.1004 14.1447Z" fill="#A3A3A3"/>
<path d="M24.9625 11.7863C24.9916 11.6481 24.9041 11.5141 24.7679 11.4845C24.6317 11.4548 24.4997 11.5437 24.4705 11.6819C24.4414 11.8202 24.5289 11.9542 24.6651 11.9838C24.7999 12.012 24.9333 11.9231 24.9625 11.7863Z" fill="#A3A3A3"/>
<path d="M22.8753 17.1688C22.7864 17.0602 22.6279 17.0461 22.5223 17.1364C22.4153 17.2267 22.4015 17.3875 22.4904 17.4947C22.5793 17.6033 22.7377 17.6174 22.8433 17.5271C22.9489 17.4383 22.9628 17.2775 22.8753 17.1688Z" fill="#A3A3A3"/>
<path d="M23.4117 18.7304C23.3228 18.6218 23.1644 18.6077 23.0588 18.6979C22.9518 18.7882 22.9379 18.949 23.0268 19.0562C23.1157 19.1648 23.2741 19.1789 23.3797 19.0887C23.4854 18.9984 23.5006 18.8376 23.4117 18.7304Z" fill="#A3A3A3"/>
<path d="M22.7725 15.5354C22.6836 15.4268 22.5251 15.4127 22.4195 15.503C22.3125 15.5933 22.2986 15.7541 22.3876 15.8613C22.4765 15.9685 22.6349 15.984 22.7405 15.8937C22.8475 15.8048 22.8614 15.644 22.7725 15.5354Z" fill="#A3A3A3"/>
<path d="M25.5114 20.7982C25.3724 20.8024 25.264 20.9209 25.2682 21.0605C25.2724 21.2016 25.3891 21.3116 25.5266 21.3074C25.6656 21.3032 25.774 21.1847 25.7698 21.045C25.7657 20.904 25.6503 20.7925 25.5114 20.7982Z" fill="#A3A3A3"/>
<path d="M27.0538 21.3271C26.9148 21.3314 26.8064 21.4499 26.8106 21.5895C26.8148 21.7306 26.9315 21.8406 27.0691 21.8363C27.208 21.8321 27.3164 21.7136 27.3123 21.574C27.3095 21.4329 27.1927 21.3229 27.0538 21.3271Z" fill="#A3A3A3"/>
<path d="M24.1801 19.8743C24.0412 19.8785 23.9328 19.997 23.9369 20.1366C23.9411 20.2777 24.0578 20.3877 24.1954 20.3835C24.333 20.3792 24.4428 20.2607 24.4386 20.1211C24.4344 19.9801 24.3191 19.87 24.1801 19.8743Z" fill="#A3A3A3"/>
<path d="M29.9844 20.887C29.9024 20.9999 29.9261 21.1593 30.0372 21.2439C30.1484 21.3271 30.3054 21.3031 30.3888 21.1903C30.4708 21.0775 30.4471 20.9181 30.336 20.8334C30.2234 20.7502 30.0664 20.7728 29.9844 20.887Z" fill="#A3A3A3"/>
<path d="M31.2712 19.9998C31.1892 20.1127 31.2128 20.2721 31.324 20.3567C31.4351 20.4399 31.5922 20.4159 31.6755 20.3031C31.7575 20.1902 31.7339 20.0309 31.6227 19.9462C31.5116 19.8616 31.3545 19.8856 31.2712 19.9998Z" fill="#A3A3A3"/>
<path d="M28.4628 21.32C28.3808 21.4328 28.4045 21.5922 28.5156 21.6768C28.6268 21.7601 28.7838 21.7361 28.8672 21.6232C28.9492 21.5104 28.9256 21.351 28.8144 21.2664C28.7018 21.1832 28.5448 21.2071 28.4628 21.32Z" fill="#A3A3A3"/>
<path d="M32.608 17.4495C32.6413 17.5863 32.7775 17.6695 32.9123 17.6357C33.0471 17.6018 33.1291 17.4636 33.0957 17.3268C33.0624 17.19 32.9262 17.1067 32.7914 17.1406C32.6566 17.1745 32.5746 17.3127 32.608 17.4495Z" fill="#A3A3A3"/>
<path d="M32.7775 15.9361C32.8108 16.0729 32.947 16.1561 33.0818 16.1223C33.2166 16.0884 33.2986 15.9502 33.2652 15.8134C33.2319 15.6765 33.0957 15.5933 32.9609 15.6272C32.8261 15.661 32.7441 15.7993 32.7775 15.9361Z" fill="#A3A3A3"/>
<path d="M32.0966 18.9631C32.1299 19.0999 32.2661 19.1831 32.4009 19.1492C32.5357 19.1154 32.6177 18.9772 32.5843 18.8403C32.551 18.7035 32.4148 18.6203 32.28 18.6542C32.1452 18.688 32.0632 18.8262 32.0966 18.9631Z" fill="#A3A3A3"/>
<path d="M31.9118 13.1447C32.0382 13.2025 32.1869 13.1447 32.2439 13.0163C32.3009 12.8879 32.2439 12.737 32.1174 12.6792C31.991 12.6214 31.8423 12.6792 31.7853 12.8075C31.7284 12.9359 31.7853 13.0868 31.9118 13.1447Z" fill="#A3A3A3"/>
<path d="M30.7723 11.9937C30.8988 12.0515 31.0475 11.9937 31.1044 11.8653C31.1614 11.7369 31.1044 11.586 30.978 11.5282C30.8515 11.4704 30.7028 11.5282 30.6459 11.6565C30.5889 11.7849 30.6459 11.9358 30.7723 11.9937Z" fill="#A3A3A3"/>
<path d="M32.5788 14.5651C32.7052 14.6229 32.8539 14.5651 32.9109 14.4367C32.9679 14.3084 32.9109 14.1574 32.7844 14.0996C32.658 14.0418 32.5093 14.0996 32.4523 14.228C32.3953 14.3563 32.4523 14.5072 32.5788 14.5651Z" fill="#A3A3A3"/>
<path d="M27.9563 10.8898C27.9928 10.7538 27.9139 10.6134 27.7798 10.5763C27.6458 10.5392 27.5076 10.6194 27.471 10.7554C27.4345 10.8914 27.5134 11.0318 27.6475 11.0689C27.7815 11.106 27.9197 11.0258 27.9563 10.8898Z" fill="#A3A3A3"/>
<path d="M26.2729 11.3237C26.3951 11.2588 26.4438 11.1051 26.3785 10.9795C26.3145 10.8554 26.1631 10.806 26.0394 10.8723C25.9171 10.9372 25.8685 11.0909 25.9338 11.2165C25.9977 11.3406 26.1492 11.3886 26.2729 11.3237Z" fill="#A3A3A3"/>
<path d="M29.5684 11.1557C29.6241 11.0265 29.5661 10.876 29.4388 10.8194C29.3115 10.7629 29.1632 10.8218 29.1076 10.951C29.0519 11.0802 29.1099 11.2308 29.2372 11.2873C29.3644 11.3438 29.5127 11.2849 29.5684 11.1557Z" fill="#A3A3A3"/>
<path d="M23.9203 12.696C23.9495 12.5577 23.8619 12.4237 23.7257 12.3941C23.5896 12.3645 23.4576 12.4534 23.4284 12.5916C23.3992 12.7298 23.4867 12.8638 23.6229 12.8934C23.7577 12.9217 23.8911 12.8342 23.9203 12.696Z" fill="#D4D4D4"/>
<path d="M23.0476 14.091C23.0768 13.9528 22.9893 13.8188 22.8531 13.7891C22.7169 13.7595 22.5849 13.8484 22.5557 13.9866C22.5265 14.1248 22.6141 14.2588 22.7503 14.2885C22.8851 14.3181 23.0185 14.2292 23.0476 14.091Z" fill="#D4D4D4"/>
<path d="M24.9097 11.7326C24.9388 11.5944 24.8513 11.4604 24.7151 11.4307C24.5789 11.4011 24.4469 11.49 24.4178 11.6282C24.3886 11.7665 24.4761 11.9005 24.6123 11.9301C24.7471 11.9583 24.8805 11.8694 24.9097 11.7326Z" fill="#D4D4D4"/>
<path d="M22.8225 17.1153C22.7336 17.0066 22.5752 16.9925 22.4695 17.0828C22.3625 17.1731 22.3487 17.3339 22.4376 17.4411C22.5265 17.5497 22.6849 17.5638 22.7905 17.4735C22.8962 17.3833 22.9101 17.2239 22.8225 17.1153Z" fill="#D4D4D4"/>
<path d="M23.3589 18.6767C23.27 18.5681 23.1115 18.5539 23.0059 18.6442C22.9003 18.7345 22.885 18.8953 22.974 19.0025C23.0629 19.1111 23.2213 19.1252 23.3269 19.0349C23.4325 18.9447 23.4478 18.7839 23.3589 18.6767Z" fill="#D4D4D4"/>
<path d="M22.7197 15.4818C22.6308 15.3732 22.4723 15.3591 22.3667 15.4494C22.2597 15.5397 22.2458 15.7005 22.3348 15.8077C22.4237 15.9163 22.5821 15.9304 22.6877 15.8401C22.7947 15.7512 22.8086 15.5904 22.7197 15.4818Z" fill="#D4D4D4"/>
<path d="M25.4586 20.7445C25.3196 20.7487 25.2112 20.8672 25.2154 21.0068C25.2196 21.1479 25.3363 21.2579 25.4738 21.2537C25.6128 21.2494 25.7212 21.131 25.717 20.9913C25.7128 20.8503 25.5975 20.7388 25.4586 20.7445Z" fill="#D4D4D4"/>
<path d="M27.001 21.2734C26.862 21.2777 26.7536 21.3961 26.7578 21.5358C26.762 21.6768 26.8787 21.7869 27.0163 21.7826C27.1552 21.7784 27.2636 21.6599 27.2594 21.5203C27.2567 21.3792 27.1399 21.2692 27.001 21.2734Z" fill="#D4D4D4"/>
<path d="M24.1273 19.8206C23.9884 19.8248 23.88 19.9433 23.8841 20.0829C23.8883 20.224 24.005 20.334 24.1426 20.3297C24.2816 20.3255 24.39 20.207 24.3858 20.0674C24.3816 19.9263 24.2663 19.8163 24.1273 19.8206Z" fill="#D4D4D4"/>
<path d="M29.9316 20.8333C29.8496 20.9462 29.8733 21.1056 29.9844 21.1902C30.0956 21.2734 30.2526 21.2494 30.336 21.1366C30.418 21.0237 30.3944 20.8644 30.2832 20.7797C30.1706 20.6965 30.0136 20.7191 29.9316 20.8333Z" fill="#D4D4D4"/>
<path d="M31.2184 19.9461C31.1364 20.059 31.16 20.2184 31.2712 20.303C31.3823 20.3862 31.5394 20.3622 31.6228 20.2494C31.7047 20.1365 31.6811 19.9772 31.5699 19.8925C31.4588 19.8079 31.3018 19.8319 31.2184 19.9461Z" fill="#D4D4D4"/>
<path d="M28.41 21.2664C28.328 21.3792 28.3517 21.5386 28.4628 21.6233C28.574 21.7065 28.731 21.6825 28.8144 21.5697C28.8964 21.4568 28.8727 21.2974 28.7616 21.2128C28.649 21.1296 28.492 21.1536 28.41 21.2664Z" fill="#D4D4D4"/>
<path d="M32.5552 17.3959C32.5885 17.5327 32.7247 17.616 32.8595 17.5821C32.9943 17.5483 33.0763 17.41 33.0429 17.2732C33.0096 17.1364 32.8734 17.0532 32.7386 17.087C32.6038 17.1209 32.5218 17.2591 32.5552 17.3959Z" fill="#D4D4D4"/>
<path d="M32.7247 15.8824C32.758 16.0192 32.8942 16.1024 33.029 16.0686C33.1638 16.0347 33.2458 15.8965 33.2124 15.7597C33.1791 15.6228 33.0429 15.5396 32.9081 15.5735C32.7733 15.6073 32.6913 15.7455 32.7247 15.8824Z" fill="#D4D4D4"/>
<path d="M32.0438 18.9093C32.0771 19.0462 32.2133 19.1294 32.3481 19.0955C32.4829 19.0617 32.5649 18.9234 32.5315 18.7866C32.4982 18.6498 32.362 18.5666 32.2272 18.6004C32.0924 18.6343 32.0104 18.7725 32.0438 18.9093Z" fill="#D4D4D4"/>
<path d="M31.859 13.0909C31.9854 13.1488 32.1341 13.0909 32.1911 12.9626C32.2481 12.8342 32.1911 12.6833 32.0646 12.6255C31.9382 12.5676 31.7895 12.6255 31.7325 12.7538C31.6756 12.8822 31.7325 13.0331 31.859 13.0909Z" fill="#D4D4D4"/>
<path d="M31.0491 11.8199C31.1106 11.6934 31.0594 11.5403 30.9348 11.4779C30.8103 11.4155 30.6595 11.4675 30.598 11.5939C30.5365 11.7204 30.5877 11.8735 30.7122 11.9358C30.8368 11.9982 30.9876 11.9463 31.0491 11.8199Z" fill="#D4D4D4"/>
<path d="M32.526 14.5114C32.6524 14.5692 32.8011 14.5114 32.8581 14.383C32.9151 14.2546 32.8581 14.1037 32.7316 14.0459C32.6052 13.9881 32.4565 14.0459 32.3995 14.1742C32.3426 14.3026 32.3995 14.4535 32.526 14.5114Z" fill="#D4D4D4"/>
<path d="M27.9026 10.8355C27.9392 10.6995 27.8602 10.5591 27.7262 10.522C27.5922 10.4849 27.4539 10.5651 27.4173 10.7011C27.3808 10.8371 27.4598 10.9775 27.5938 11.0146C27.7278 11.0517 27.8661 10.9715 27.9026 10.8355Z" fill="#D4D4D4"/>
<path d="M26.2201 11.27C26.3423 11.2051 26.391 11.0513 26.3257 10.9258C26.2617 10.8017 26.1103 10.7523 25.9866 10.8186C25.8643 10.8835 25.8157 11.0372 25.881 11.1628C25.9449 11.2869 26.0964 11.3349 26.2201 11.27Z" fill="#D4D4D4"/>
<path d="M29.5171 11.1034C29.5728 10.9742 29.5148 10.8237 29.3875 10.7672C29.2602 10.7107 29.1119 10.7696 29.0563 10.8988C29.0006 11.028 29.0586 11.1785 29.1859 11.235C29.3131 11.2915 29.4614 11.2326 29.5171 11.1034Z" fill="#D4D4D4"/>
<path d="M23.8215 12.4582L23.4904 12.7943L23.5257 12.8302L23.8568 12.4941L23.8215 12.4582Z" fill="#B9B9B9"/>
<path d="M22.9484 13.8532L22.6173 14.1893L22.6527 14.2252L22.9838 13.8891L22.9484 13.8532Z" fill="#B9B9B9"/>
<path d="M24.8111 11.4947L24.48 11.8308L24.5154 11.8667L24.8465 11.5306L24.8111 11.4947Z" fill="#B9B9B9"/>
<path d="M22.7764 17.0931L22.4453 17.4292L22.4806 17.4651L22.8117 17.129L22.7764 17.0931Z" fill="#B9B9B9"/>
<path d="M23.3125 18.653L22.9814 18.9891L23.0167 19.025L23.3479 18.6889L23.3125 18.653Z" fill="#B9B9B9"/>
<path d="M22.6748 15.4592L22.3437 15.7953L22.3791 15.8312L22.7102 15.4951L22.6748 15.4592Z" fill="#B9B9B9"/>
<path d="M25.6137 20.8131L25.2826 21.1492L25.318 21.1851L25.6491 20.849L25.6137 20.8131Z" fill="#B9B9B9"/>
<path d="M27.1575 21.3424L26.8264 21.6785L26.8618 21.7144L27.1929 21.3783L27.1575 21.3424Z" fill="#B9B9B9"/>
<path d="M24.2827 19.8901L23.9516 20.2262L23.9869 20.2621L24.3181 19.926L24.2827 19.8901Z" fill="#B9B9B9"/>
<path d="M30.2799 20.7987L29.9488 21.1348L29.9841 21.1707L30.3153 20.8346L30.2799 20.7987Z" fill="#B9B9B9"/>
<path d="M31.5679 19.9106L31.2368 20.2467L31.2722 20.2826L31.6033 19.9465L31.5679 19.9106Z" fill="#B9B9B9"/>
<path d="M28.7598 21.2322L28.4287 21.5684L28.4641 21.6043L28.7952 21.2681L28.7598 21.2322Z" fill="#B9B9B9"/>
<path d="M32.947 17.1492L32.6159 17.4854L32.6512 17.5213L32.9824 17.1851L32.947 17.1492Z" fill="#B9B9B9"/>
<path d="M33.1147 15.6351L32.7835 15.9712L32.8189 16.0071L33.15 15.671L33.1147 15.6351Z" fill="#B9B9B9"/>
<path d="M32.4356 18.6635L32.1045 18.9996L32.1398 19.0355L32.471 18.6994L32.4356 18.6635Z" fill="#B9B9B9"/>
<path d="M32.1092 12.6727L31.778 13.0088L31.8134 13.0447L32.1446 12.7086L32.1092 12.6727Z" fill="#B9B9B9"/>
<path d="M30.9693 11.5213L30.6382 11.8574L30.6735 11.8933L31.0047 11.5572L30.9693 11.5213Z" fill="#B9B9B9"/>
<path d="M32.7758 14.0928L32.4446 14.429L32.48 14.4649L32.8111 14.1287L32.7758 14.0928Z" fill="#B9B9B9"/>
<path d="M27.808 10.5821L27.4769 10.9182L27.5123 10.9541L27.8434 10.618L27.808 10.5821Z" fill="#B9B9B9"/>
<path d="M26.2503 10.8588L25.9192 11.1949L25.9545 11.2309L26.2857 10.8947L26.2503 10.8588Z" fill="#B9B9B9"/>
<path d="M29.4323 10.8154L29.1012 11.1515L29.1365 11.1874L29.4677 10.8513L29.4323 10.8154Z" fill="#B9B9B9"/>
<path opacity="0.33" d="M43.0882 0.565573C43.0882 0.565573 41.7181 -0.572721 35.9416 0.379384C29.8399 1.38368 25.9672 5.1921 23.3297 7.83824C19.9183 11.263 14.2905 19.145 11.6308 25.8535C11.6308 25.8535 23.9078 -0.290616 43.0882 0.565573Z" fill="white"/>
<path opacity="0.33" d="M12.334 26.5474L11.7267 27.1525L11.5141 26.941L12.1116 26.3302L12.334 26.5474Z" fill="white"/>
<path d="M18.3856 32.6367L18.8692 34.4224C18.8692 34.4224 23.5799 32.0654 26.4674 28.2542C26.4674 28.2542 21.2537 31.4278 18.3856 32.6367Z" fill="url(#paint18_linear_102_7)"/>
<path opacity="0.33" d="M16.2512 39.8036C17.6991 38.3635 18.2425 36.9727 18.337 36.7075C18.3147 36.7639 18.2661 36.8726 18.1605 37.0545C17.8381 37.6568 17.3587 38.3099 16.6764 39.0772C15.8065 40.0547 14.5462 41.3524 14.3614 41.9138C14.3266 42.0323 14.3447 42.1098 14.3975 42.1578C14.3975 42.1578 14.3975 42.1578 14.3989 42.1592C14.4003 42.155 14.6448 41.4018 16.2512 39.8036Z" fill="white"/>
</g>
<defs>
<linearGradient id="paint0_linear_102_7" x1="-3.19688" y1="47.452" x2="11.35" y2="33.9532" gradientUnits="userSpaceOnUse">
<stop stop-color="#FF8533"/>
<stop offset="0.9964" stop-color="#FFD052"/>
</linearGradient>
<linearGradient id="paint1_linear_102_7" x1="3.35931" y1="41.2376" x2="12.3317" y2="32.541" gradientUnits="userSpaceOnUse">
<stop offset="0.00355872" stop-color="#FFD052"/>
<stop offset="1" stop-color="#FFE9AE"/>
</linearGradient>
<linearGradient id="paint2_linear_102_7" x1="19.8719" y1="36.7916" x2="11.4127" y2="23.1695" gradientUnits="userSpaceOnUse">
<stop stop-color="#767B7F"/>
<stop offset="1" stop-color="#A3A3A3"/>
</linearGradient>
<linearGradient id="paint3_linear_102_7" x1="7.5237" y1="22.0005" x2="21.0136" y2="37.1887" gradientUnits="userSpaceOnUse">
<stop offset="0.00355872" stop-color="#F02E54"/>
<stop offset="1" stop-color="#8F1931"/>
</linearGradient>
<linearGradient id="paint4_linear_102_7" x1="21.5649" y1="41.1002" x2="17.1773" y2="19.3189" gradientUnits="userSpaceOnUse">
<stop offset="0.00355872" stop-color="#F02E54"/>
<stop offset="1" stop-color="#8F1931"/>
</linearGradient>
<linearGradient id="paint5_linear_102_7" x1="25.4547" y1="8.60022" x2="35.5196" y2="32.0187" gradientUnits="userSpaceOnUse">
<stop offset="0.00355872" stop-color="#EEF4FA"/>
<stop offset="1" stop-color="#CDDEED"/>
</linearGradient>
<linearGradient id="paint6_linear_102_7" x1="26.7948" y1="11.2087" x2="35.3335" y2="31.0761" gradientUnits="userSpaceOnUse">
<stop offset="0.00355872" stop-color="#EEF4FA"/>
<stop offset="1" stop-color="#CDDEED"/>
</linearGradient>
<linearGradient id="paint7_linear_102_7" x1="11.1382" y1="20.8358" x2="20.156" y2="31.7968" gradientUnits="userSpaceOnUse">
<stop stop-color="#C7C7C7"/>
<stop offset="1" stop-color="#A3A3A3"/>
</linearGradient>
<linearGradient id="paint8_linear_102_7" x1="17.5813" y1="26.2701" x2="19.4435" y2="31.9264" gradientUnits="userSpaceOnUse">
<stop stop-color="#1D262D"/>
<stop offset="1" stop-color="#1D262D" stop-opacity="0"/>
</linearGradient>
<linearGradient id="paint9_linear_102_7" x1="37.176" y1="2.44377" x2="55.7045" y2="17.0836" gradientUnits="userSpaceOnUse">
<stop offset="0.00355872" stop-color="#F02E54"/>
<stop offset="1" stop-color="#8F1931"/>
</linearGradient>
<linearGradient id="paint10_linear_102_7" x1="60.5618" y1="34.759" x2="26.1302" y2="-0.412509" gradientUnits="userSpaceOnUse">
<stop stop-color="#8F1931"/>
<stop offset="0.9964" stop-color="#F02E54"/>
</linearGradient>
<linearGradient id="paint11_linear_102_7" x1="59.5312" y1="35.768" x2="25.0996" y2="0.596487" gradientUnits="userSpaceOnUse">
<stop stop-color="#8F1931"/>
<stop offset="0.9964" stop-color="#F02E54"/>
</linearGradient>
<linearGradient id="paint12_linear_102_7" x1="10.9013" y1="26.47" x2="21.4953" y2="41.3985" gradientUnits="userSpaceOnUse">
<stop offset="0.00355872" stop-color="#F02E54"/>
<stop offset="1" stop-color="#8F1931"/>
</linearGradient>
<linearGradient id="paint13_linear_102_7" x1="28.9212" y1="18.735" x2="32.7628" y2="26.659" gradientUnits="userSpaceOnUse">
<stop stop-color="#1D262D"/>
<stop offset="0.6767" stop-color="#1D262D" stop-opacity="0.3233"/>
<stop offset="1" stop-color="#1D262D" stop-opacity="0"/>
</linearGradient>
<linearGradient id="paint14_linear_102_7" x1="25.0734" y1="9.70986" x2="32.6265" y2="27.1172" gradientUnits="userSpaceOnUse">
<stop stop-color="#C7C7C7"/>
<stop offset="1" stop-color="#A3A3A3"/>
</linearGradient>
<linearGradient id="paint15_linear_102_7" x1="24.1963" y1="10.7246" x2="33.0837" y2="24.1047" gradientUnits="userSpaceOnUse">
<stop stop-color="#ADE5FF"/>
<stop offset="1" stop-color="#76C9F0"/>
</linearGradient>
<linearGradient id="paint16_linear_102_7" x1="31.9795" y1="12.4816" x2="22.5906" y2="18.6062" gradientUnits="userSpaceOnUse">
<stop stop-color="#F9FBFC"/>
<stop offset="1" stop-color="#F9FBFC" stop-opacity="0"/>
</linearGradient>
<linearGradient id="paint17_linear_102_7" x1="33.1718" y1="14.3093" x2="23.7829" y2="20.434" gradientUnits="userSpaceOnUse">
<stop stop-color="#F9FBFC"/>
<stop offset="1" stop-color="#F9FBFC" stop-opacity="0"/>
</linearGradient>
<linearGradient id="paint18_linear_102_7" x1="21.2509" y1="28.1157" x2="23.3802" y2="32.8152" gradientUnits="userSpaceOnUse">
<stop stop-color="#1D262D"/>
<stop offset="1" stop-color="#1D262D" stop-opacity="0"/>
</linearGradient>
<clipPath id="clip0_102_7">
<rect width="50" height="45" fill="white"/>
</clipPath>
</defs>
</svg>
