<svg width="190" height="180" viewBox="0 0 190 180" fill="none" xmlns="http://www.w3.org/2000/svg">
<path opacity="0.15" fill-rule="evenodd" clip-rule="evenodd" d="M85.792 2.51073C104.036 7.86088 108.636 31.3142 123.102 43.5976C135.758 54.3452 156.454 54.7265 164.406 69.267C172.781 84.5811 170.7 103.784 165.039 120.282C159.431 136.621 147.283 149.479 133.347 159.772C119.284 170.159 103.224 180.523 85.792 178.814C68.8736 177.155 58.7218 160.475 44.5942 151.07C29.6485 141.119 5.62212 139.376 0.707619 122.168C-4.23406 104.866 18.1683 91.6933 22.6595 74.2701C27.6741 54.8164 14.8427 30.8628 28.1395 15.7491C41.4532 0.61608 66.3996 -3.17626 85.792 2.51073Z" fill="#B5CAFA"/>
<path d="M114.375 53.4688C107.065 53.4688 100.882 58.3523 98.8944 65.0263C96.9644 64.2362 94.9816 63.5928 92.9459 63.1434L77.6562 55.4986V60.0355C75.0742 60.5246 72.5171 61.3016 70.0187 62.3253C67.3471 57.0789 61.9054 53.4688 55.625 53.4688C46.717 53.4688 39.4688 60.717 39.4688 69.625C39.4688 76.935 44.3523 83.1184 51.0249 85.1056C50.2362 87.0326 49.5958 89.014 49.1463 91.0482L41.4986 106.344H46.0341C47.5057 114.215 51.2672 121.35 56.9586 127.041L57.997 128.08L60.1032 125.974C63.5445 129.146 67.5983 131.659 71.9487 133.316C72.921 139.655 78.3936 144.531 85 144.531C91.6094 144.531 97.0849 139.651 98.0513 133.307C100.375 132.421 102.609 131.321 104.708 129.983L120.952 124.569L117.746 121.362C122.271 114.755 124.656 107.05 124.656 99V97.5312H121.679C121.512 93.2263 120.614 89.058 118.991 85.1012C125.656 83.1081 130.531 76.9291 130.531 69.625C130.531 60.717 123.283 53.4688 114.375 53.4688V53.4688ZM79.3497 62.7248L80.5938 62.5309V60.2514L87.5909 63.75L80.5938 67.2486V65.464L78.8592 65.7827C76.3975 66.2351 73.9976 66.968 71.6946 67.955C71.5918 66.9577 71.3891 65.9913 71.113 65.0557C73.8052 63.9512 76.5679 63.1552 79.3497 62.7248V62.7248ZM42.4062 69.625C42.4062 62.3371 48.3371 56.4062 55.625 56.4062C62.9129 56.4062 68.8438 62.3371 68.8438 69.625C68.8438 76.9129 62.9129 82.8438 55.625 82.8438C48.3371 82.8438 42.4062 76.9129 42.4062 69.625ZM48.7248 104.65L48.5309 103.406H46.2514L49.75 96.4091L53.2486 103.406H51.464L51.7827 105.141C52.9357 111.407 55.7998 117.145 60.0973 121.826L58.0176 123.906C53.0532 118.536 49.8484 111.909 48.7248 104.65V104.65ZM85 141.594C79.3306 141.594 74.7188 136.98 74.7188 131.312C74.7188 125.645 79.3306 121.031 85 121.031C90.6694 121.031 95.2812 125.645 95.2812 131.312C95.2812 136.98 90.6694 141.594 85 141.594ZM114.647 120.655L113.904 121.672L115.516 123.283L108.095 125.758L110.569 118.336L111.831 119.596L112.831 118.145C116.446 112.902 118.479 106.817 118.75 100.469H121.691C121.404 107.777 118.984 114.729 114.647 120.655V120.655ZM118.742 97.5312H115.844V99C115.844 104.684 114.305 110.176 111.376 114.99L109.283 112.897L104.796 126.36C102.723 127.861 100.5 129.117 98.1571 130.108C97.5461 123.381 91.8826 118.094 85 118.094C78.1145 118.094 72.4495 123.387 71.8415 130.117C68.3106 128.619 65.0221 126.499 62.18 123.897L64.2275 121.849L63.1891 120.811C59.1691 116.791 56.3741 111.819 55.0404 106.344H58L51.6506 93.6464C52.0868 90.9057 52.8682 88.2399 53.9609 85.6946C54.5102 85.7519 55.0639 85.7812 55.625 85.7812C64.0072 85.7812 70.9147 79.3628 71.7019 71.1833C73.6157 70.2683 75.6059 69.5442 77.6562 69.0419V72.0014L90.3521 65.6535C93.0928 66.0897 95.7571 66.8696 98.3039 67.9624C98.2481 68.5088 98.2188 69.0639 98.2188 69.625C98.2188 78.533 105.467 85.7812 114.375 85.7812C114.939 85.7812 115.497 85.7504 116.048 85.6946C117.662 89.4517 118.568 93.4217 118.742 97.5312V97.5312ZM114.375 82.8438C107.087 82.8438 101.156 76.9129 101.156 69.625C101.156 62.3371 107.087 56.4062 114.375 56.4062C121.663 56.4062 127.594 62.3371 127.594 69.625C127.594 76.9129 121.663 82.8438 114.375 82.8438ZM97.2038 93.9446L99.3174 90.4695L93.5305 84.6826L90.0554 86.7962H90.054L89.0919 82.8438H80.9095L79.9475 86.7962H79.946L76.471 84.6826L70.6841 90.4695L72.7976 93.9446V93.946L68.8438 94.9081V103.092L72.7962 104.054C72.7962 104.054 72.7962 104.055 72.7976 104.055L70.6826 107.53L76.4695 113.316L79.9446 111.202H79.946L80.9081 115.156H89.0905L90.0525 111.204H90.054L93.529 113.317L99.3159 107.532L97.2009 104.057L97.2024 104.055L101.156 103.092V94.9081L97.2038 93.946V93.9446ZM98.2188 100.783L94.9757 101.573L94.7158 102.336C94.5777 102.739 94.4118 103.132 94.2267 103.512L93.8727 104.235L95.6088 107.087L93.0869 109.609L90.2332 107.871L89.5105 108.227C89.1301 108.413 88.738 108.578 88.3326 108.717L87.5732 108.979L86.7831 112.219H83.2155L82.4267 108.979L81.6674 108.717C81.262 108.578 80.8699 108.413 80.4895 108.227L79.7668 107.871L76.9131 109.609L74.3912 107.087L76.1273 104.235L75.7733 103.512C75.5868 103.132 75.4223 102.741 75.2842 102.336L75.0243 101.573L71.7812 100.783V97.2169L75.0243 96.4267L75.2842 95.6659C75.4223 95.262 75.5868 94.8699 75.7733 94.4909L76.1287 93.7683L74.3927 90.9145L76.9145 88.3927L79.7683 90.1287L80.4909 89.7733C80.8699 89.5868 81.262 89.4223 81.6659 89.2842L82.4267 89.0243L83.2169 85.7812H86.7845L87.5747 89.0243L88.3355 89.2842C88.7394 89.4223 89.1316 89.5868 89.5105 89.7733L90.2332 90.1287L93.0869 88.3927L95.6088 90.9145L93.8727 93.7683L94.2282 94.4909C94.4147 94.8699 94.5792 95.262 94.7173 95.6659L94.9772 96.4267L98.2188 97.2169V100.783ZM85 91.6562C80.9507 91.6562 77.6562 94.9507 77.6562 99C77.6562 103.049 80.9507 106.344 85 106.344C89.0493 106.344 92.3438 103.049 92.3438 99C92.3438 94.9507 89.0493 91.6562 85 91.6562ZM85 103.406C82.5707 103.406 80.5938 101.429 80.5938 99C80.5938 96.5707 82.5707 94.5938 85 94.5938C87.4293 94.5938 89.4062 96.5707 89.4062 99C89.4062 101.429 87.4293 103.406 85 103.406ZM104.094 68.1562H107.031V71.0938H104.094V68.1562ZM115.844 68.1562H118.781V71.0938H115.844V68.1562ZM121.719 68.1562H124.656V71.0938H121.719V68.1562ZM109.969 68.1562H112.906V71.0938H109.969V68.1562ZM64.4375 76.9688H46.8125V60.8125H49.75V74.0312H52.6875V63.75H55.625V74.0312H58.5625V66.6875H61.5V74.0312H64.4375V76.9688ZM88.9759 125.868L94.4206 131.312L88.9759 136.757L86.8991 134.68L90.2669 131.312L86.8991 127.945L88.9759 125.868ZM83.1009 127.945L79.7331 131.312L83.1009 134.68L81.0241 136.757L75.5794 131.312L81.0241 125.868L83.1009 127.945Z" fill="#CF2E2E"/>

<style>

  path:first-child{
    animation: 4s ease-in-out infinite blinky;
  }
  @keyframes blinky {
    0% {
      opacity: .2;
    }
  
    50% {
      opacity: 0.05;
    }
  
    100% {
      opacity: .2;
  }
  }

</style>



</svg>
