<svg width="190" height="181" viewBox="0 0 190 181" fill="none" xmlns="http://www.w3.org/2000/svg">
<path d="M123.581 73.7419H111.3L112.147 67.8065H120.613C123.067 67.8065 125.065 65.8089 125.065 63.3548C125.065 60.9008 123.067 58.9032 120.613 58.9032H110.423L107.455 79.6774H101.229C103.158 76.6756 104.29 73.1159 104.29 69.2903C104.29 58.654 95.6363 50 85 50C74.3637 50 65.7097 58.654 65.7097 69.2903C65.7097 70.8249 65.9082 72.3102 66.248 73.7419H46.4194C42.3286 73.7419 39 77.0705 39 81.1613V125.677C39 129.768 42.3286 133.097 46.4194 133.097H65.7097V139.032H59.7742V142H110.226V139.032H104.29V133.097H123.581C127.671 133.097 131 129.768 131 125.677V81.1613C131 77.0705 127.671 73.7419 123.581 73.7419ZM112.996 61.871H120.613C121.43 61.871 122.097 62.5376 122.097 63.3548C122.097 64.1721 121.43 64.8387 120.613 64.8387H112.573L112.996 61.871ZM107.031 82.6452L104.487 100.452H72.3415C70.1403 100.452 68.2456 98.8091 67.934 96.6289L65.9365 82.6452H71.1126C74.6245 86.2954 79.5471 88.5806 85 88.5806C90.4529 88.5806 95.3755 86.2954 98.8874 82.6452H107.031ZM76.4337 83.1589L78.0538 77.4886C78.4342 76.1561 79.6666 75.2258 81.0527 75.2258C82.0989 75.2258 83.0684 75.7453 83.648 76.6148L84.3885 77.7262C85.2036 78.9471 86.5672 79.6774 88.0358 79.6774C90.4529 79.6774 92.4194 77.711 92.4194 75.2939C92.4194 74.4382 93.1156 73.7419 93.9713 73.7419H95.6124C96.8202 73.7419 97.9556 73.2717 98.8091 72.4182L101.29 69.9373C100.946 78.637 93.7815 85.6129 85 85.6129C81.8555 85.6129 78.9283 84.705 76.4337 83.1589ZM100.994 66.0364L96.7108 70.3199C96.4167 70.6126 96.0283 70.7742 95.6124 70.7742H93.9713C91.4789 70.7742 89.4516 72.8015 89.4516 75.2939C89.4516 76.0743 88.8162 76.7097 88.0358 76.7097C87.5613 76.7097 87.1207 76.4735 86.8577 76.0793L86.1173 74.9679C84.9855 73.2717 83.0915 72.2581 81.0527 72.2581C78.3494 72.2581 75.9424 74.0745 75.2005 76.6727L73.9007 81.2236C71.0365 78.5587 69.1274 74.8903 68.7528 70.7742H71.4655C73.892 70.7742 76.1721 69.8287 77.8879 68.1137C79.0421 66.9595 80.5795 66.3226 82.2119 66.3226H83.7668C84.424 66.3226 85.0754 66.4276 85.7006 66.6356L88.4517 67.5529C88.9546 67.7202 89.4799 67.805 90.0124 67.805H90.4544C93.1729 67.8065 95.3871 65.5922 95.3871 62.8723C95.3871 60.7465 94.0307 58.8648 92.0143 58.1924L91.1014 57.8881C88.8539 57.139 87.2258 55.2856 86.6904 53.0554C93.8141 53.7916 99.5909 59.1286 100.994 66.0364V66.0364ZM83.6408 53.0358C84.2088 56.5658 86.6875 59.5444 90.1624 60.703L91.0753 61.0073C91.8796 61.2776 92.4194 62.0253 92.4194 62.8723C92.4194 63.9569 91.5376 64.8387 90.4529 64.8387H90.011C89.7987 64.8387 89.5893 64.8047 89.3893 64.738L86.6382 63.8207C85.7108 63.5106 84.7435 63.3548 83.7668 63.3548H82.2119C79.7854 63.3548 77.5053 64.3004 75.7896 66.0154C74.6354 67.1696 73.0979 67.8065 71.4655 67.8065H68.7528C69.465 59.948 75.7657 53.6901 83.6408 53.0358V53.0358ZM46.4194 76.7097H67.1979C67.6326 77.7516 68.1666 78.7384 68.7709 79.6774H62.5152L64.996 97.0506C65.5155 100.681 68.6731 103.419 72.3415 103.419H105.774C106.591 103.419 107.258 104.086 107.258 104.903C107.258 105.721 106.591 106.387 105.774 106.387H68.6774C65.4039 106.387 62.7419 109.049 62.7419 112.323C62.7419 115.596 65.4039 118.258 68.6774 118.258C71.9509 118.258 74.6129 115.596 74.6129 112.323C74.6129 111.236 74.2985 110.232 73.7876 109.355H94.7299C94.2177 110.232 93.9032 111.236 93.9032 112.323C93.9032 115.596 96.5652 118.258 99.8387 118.258C103.112 118.258 105.774 115.596 105.774 112.323C105.774 111.236 105.46 110.232 104.949 109.355H105.774C108.228 109.355 110.226 107.357 110.226 104.903C110.226 103.038 109.07 101.441 107.438 100.781L110.877 76.7097H123.581C126.035 76.7097 128.032 78.7073 128.032 81.1613V121.226H41.9677V81.1613C41.9677 78.7073 43.9653 76.7097 46.4194 76.7097V76.7097ZM102.806 112.323C102.806 113.959 101.475 115.29 99.8387 115.29C98.202 115.29 96.871 113.959 96.871 112.323C96.871 110.686 98.202 109.355 99.8387 109.355C101.475 109.355 102.806 110.686 102.806 112.323ZM71.6452 112.323C71.6452 113.959 70.3142 115.29 68.6774 115.29C67.0407 115.29 65.7097 113.959 65.7097 112.323C65.7097 110.686 67.0407 109.355 68.6774 109.355C70.3142 109.355 71.6452 110.686 71.6452 112.323ZM101.323 139.032H68.6774V133.097H101.323V139.032ZM123.581 130.129H46.4194C43.9653 130.129 41.9677 128.131 41.9677 125.677V124.194H128.032V125.677C128.032 128.131 126.035 130.129 123.581 130.129Z" fill="#CF2E2E"/>
<path opacity="0.15" fill-rule="evenodd" clip-rule="evenodd" d="M148.759 25.5458C161.909 34.0156 171.543 47.3781 176.844 62.1287C182.301 77.3105 182.928 94.0421 179.045 109.814C175.168 125.562 168.594 142.463 154.907 151.232C141.495 159.825 123.434 150.192 108.324 155.126C92.7473 160.212 83.1155 179.571 66.7905 180.005C50.3901 180.441 35.56 169.179 24.3268 157.358C13.3561 145.815 7.94672 130.274 4.65833 114.627C1.53317 99.7568 -0.52411 83.5953 5.90571 69.7081C12.0562 56.4241 28.769 52.3066 38.562 41.4013C48.7025 30.1089 50.0017 9.91479 64.234 4.7542C78.3295 -0.356799 91.9878 13.2293 106.448 16.7861C120.67 20.2846 136.477 17.635 148.759 25.5458Z" fill="#B5CAFA"/>

<style>

  path:nth-child(2) {
    animation: 4s ease-in-out 1s infinite blinky;
  }
  @keyframes blinky {
    0% {
      opacity: .2;
    }
  
    50% {
      opacity: 0.05;
    }
  
    100% {
      opacity: .2;
  }
  }

</style>

</svg>
