<svg width="190" height="180" viewBox="0 0 190 180" fill="none" xmlns="http://www.w3.org/2000/svg">
<path opacity="0.15" fill-rule="evenodd" clip-rule="evenodd" d="M87.1013 27.4065C103.95 25.9423 119.137 8.63108 135.169 14.0451C150.713 19.2944 154.835 39.4356 163.738 53.2871C173.119 67.8826 188.851 80.4176 188.999 97.7975C189.146 115.181 178.17 132.117 164.497 142.749C151.892 152.551 133.805 147.98 118.544 152.583C107.438 155.933 98.2845 163.014 87.1013 166.093C72.7723 170.038 57.602 178.817 43.8574 173.145C30.2173 167.517 22.4875 151.962 18.3536 137.726C14.5639 124.675 24.5874 111.138 21.9781 97.7975C18.4297 79.6552 -4.33723 65.4079 0.733045 47.6351C5.39798 31.2832 27.1306 25.8608 43.6011 22.0032C58.0773 18.6127 72.293 28.6935 87.1013 27.4065Z" fill="#B5CAFA"/>
<path d="M62.2344 81.8892V81.3608C62.2344 80.0991 61.608 78.9279 60.5585 78.2302L53.2405 73.3511C52.6201 72.937 51.8987 72.7188 51.1535 72.7188C49.0784 72.7188 47.3906 74.4065 47.3906 76.4816V86.7684C47.3906 88.8435 49.0784 90.5312 51.1535 90.5312C51.8987 90.5312 52.6201 90.313 53.2405 89.8989L60.5585 85.0198C61.608 84.3221 62.2344 83.1509 62.2344 81.8892V81.8892ZM59.2656 81.8892C59.2656 82.1549 59.1335 82.4028 58.9123 82.5498L51.5944 87.4289C51.0971 87.7555 50.3594 87.3636 50.3594 86.7684V76.4816C50.3594 76.0437 50.7156 75.6875 51.1535 75.6875C51.3109 75.6875 51.4623 75.7335 51.5944 75.8211L58.9123 80.7002C59.1335 80.8487 59.2656 81.0951 59.2656 81.3608V81.8892ZM87.4688 124.672H78.5625C76.9252 124.672 75.5938 126.003 75.5938 127.641V130.609C75.5938 132.247 76.9252 133.578 78.5625 133.578H87.4688C89.106 133.578 90.4375 132.247 90.4375 130.609V127.641C90.4375 126.003 89.106 124.672 87.4688 124.672ZM78.5625 130.609V127.641H87.4688L87.4702 130.609H78.5625ZM102.312 124.672H99.3438C97.7065 124.672 96.375 126.003 96.375 127.641V130.609C96.375 132.247 97.7065 133.578 99.3438 133.578H102.312C103.95 133.578 105.281 132.247 105.281 130.609V127.641C105.281 126.003 103.95 124.672 102.312 124.672ZM99.3438 130.609V127.641H102.312L102.314 130.609H99.3438ZM66.6875 124.672H63.7188C62.0815 124.672 60.75 126.003 60.75 127.641V130.609C60.75 132.247 62.0815 133.578 63.7188 133.578H66.6875C68.3248 133.578 69.6562 132.247 69.6562 130.609V127.641C69.6562 126.003 68.3248 124.672 66.6875 124.672ZM63.7188 130.609V127.641H66.6875L66.689 130.609H63.7188ZM77.0781 53.4219C77.8975 53.4219 78.5625 54.0869 78.5625 54.9062C78.5625 55.7256 77.8975 56.3906 77.0781 56.3906C76.2588 56.3906 75.5938 55.7256 75.5938 54.9062C75.5938 54.0869 76.2588 53.4219 77.0781 53.4219ZM81.5312 54.9062C81.5312 54.0869 82.1963 53.4219 83.0156 53.4219C83.835 53.4219 84.5 54.0869 84.5 54.9062C84.5 55.7256 83.835 56.3906 83.0156 56.3906C82.1963 56.3906 81.5312 55.7256 81.5312 54.9062ZM87.4688 54.9062C87.4688 54.0869 88.1338 53.4219 88.9531 53.4219C89.7725 53.4219 90.4375 54.0869 90.4375 54.9062C90.4375 55.7256 89.7725 56.3906 88.9531 56.3906C88.1338 56.3906 87.4688 55.7256 87.4688 54.9062ZM60.75 100.922H85.9844V103.891H60.75V100.922ZM60.75 106.859H85.9844V109.828H60.75V106.859ZM60.75 112.797H85.9844V115.766H60.75V112.797ZM126.062 97.9531H111.219V94.9844H129.031V92.0156H126.062V68.2656H117.156V92.0156H114.188V74.2031H111.219V54.9062C111.219 50.8138 107.889 47.4844 103.797 47.4844H88.9531H77.0781H62.2344C58.142 47.4844 54.8125 50.8138 54.8125 54.9062V65.2969C45.8098 65.2969 38.4844 72.6223 38.4844 81.625C38.4844 90.6277 45.8098 97.9531 54.8125 97.9531V132.094C54.8125 136.186 58.142 139.516 62.2344 139.516H103.797C107.889 139.516 111.219 136.186 111.219 132.094V115.766H115.672V103.891H111.219V100.922H123.094V103.891H118.641V115.766H130.516V103.891H126.062V97.9531ZM120.125 71.2344H123.094V92.0156H120.125V71.2344ZM108.25 92.0156V77.1719H111.219V92.0156H108.25ZM108.25 54.9062V59.3594H94.852C95.7946 58.1155 96.375 56.5836 96.375 54.9062C96.375 53.2289 95.7946 51.697 94.852 50.4531H103.797C106.252 50.4531 108.25 52.4511 108.25 54.9062ZM88.9531 50.4531C91.4083 50.4531 93.4062 52.4511 93.4062 54.9062C93.4062 57.3614 91.4083 59.3594 88.9531 59.3594H77.0781C74.623 59.3594 72.625 57.3614 72.625 54.9062C72.625 52.4511 74.623 50.4531 77.0781 50.4531H88.9531ZM62.2344 50.4531H71.1792C70.2366 51.697 69.6562 53.2289 69.6562 54.9062C69.6562 56.5836 70.2366 58.1155 71.1792 59.3594H57.7812V54.9062C57.7812 52.4511 59.7792 50.4531 62.2344 50.4531ZM41.4531 81.625C41.4531 74.2595 47.447 68.2656 54.8125 68.2656C62.178 68.2656 68.1719 74.2595 68.1719 81.625C68.1719 88.9905 62.178 94.9844 54.8125 94.9844C47.447 94.9844 41.4531 88.9905 41.4531 81.625ZM103.797 136.547H62.2344C59.7792 136.547 57.7812 134.549 57.7812 132.094V121.703H108.25V132.094C108.25 134.549 106.252 136.547 103.797 136.547ZM112.703 112.797H106.766V106.859H112.703V112.797ZM108.25 103.891H103.797V115.766H108.25V118.734H57.7812V97.6696C65.3694 96.2684 71.1406 89.6139 71.1406 81.625C71.1406 73.6361 65.3694 66.9816 57.7812 65.5804V62.3281H77.0781H88.9531H108.25V74.2031H105.281V92.0156H102.312V80.1406H93.4062V92.0156H90.4375V94.9844H108.25V97.9531H93.4062V103.891H88.9531V115.766H100.828V103.891H96.375V100.922H108.25V103.891ZM99.3438 92.0156H96.375V83.1094H99.3438V92.0156ZM97.8594 106.859V112.797H91.9219V106.859H97.8594ZM127.547 112.797H121.609V106.859H127.547V112.797ZM74.1094 89.0469H85.9844V92.0156H74.1094V89.0469ZM74.1094 83.1094H85.9844V86.0781H74.1094V83.1094ZM74.1094 77.1719H85.9844V80.1406H74.1094V77.1719ZM74.1094 71.2344H85.9844V74.2031H74.1094V71.2344ZM74.1094 65.2969H85.9844V68.2656H74.1094V65.2969ZM74.1094 94.9844H85.9844V97.9531H74.1094V94.9844Z" fill="#CF2E2E"/>


<style>

  path:first-child{
    animation: 4s ease-in-out 3s infinite blinky;
  }
  @keyframes blinky {
    0% {
      opacity: .2;
    }
  
    50% {
      opacity: 0.05;
    }
  
    100% {
      opacity: .2;
  }
  }

</style>

</svg>
