<svg width="506" height="407" viewBox="0 0 506 407" fill="none" xmlns="http://www.w3.org/2000/svg">
<g clip-path="url(#clip0_107_428)">
<path d="M80.767 264.951C121.279 357.18 228.216 396.795 312.004 390.04C334.882 388.196 380.91 384.486 416.852 351.381C485.873 287.807 475.243 154.919 409.17 76.6825C400.66 66.6086 341.764 -0.894936 249.984 0.00784303C182.787 0.669881 135.623 37.6409 129.888 42.2465C122.643 48.0644 106.664 61.8912 92.2627 83.8273C58.4259 135.367 55.4514 207.318 80.767 264.951Z" fill="url(#paint0_linear_107_428)"/>
<path d="M317.893 317.664C317.728 315.612 315.628 313.835 312.072 312.411C315.937 310.285 318.074 308.005 317.893 305.768C317.346 299.001 295.882 295.208 269.951 297.296C244.02 299.384 223.441 306.56 223.987 313.325C224.152 315.377 226.252 317.154 229.808 318.579C225.944 320.705 223.806 322.985 223.987 325.222C224.152 327.274 226.252 329.051 229.808 330.474C225.944 332.6 223.806 334.88 223.987 337.117C224.152 339.169 226.252 340.946 229.808 342.369C225.944 344.496 223.806 346.775 223.987 349.012C224.228 352.004 228.566 354.413 235.569 355.992C235.478 358.203 235.529 360.628 235.747 363.303C236.762 375.77 250.81 385.546 269.391 385.546C287.973 385.546 304.055 372.218 304.237 359.711C304.282 356.646 304.151 353.948 303.873 351.55C312.763 348.587 318.178 344.967 317.893 341.455C317.728 339.403 315.628 337.626 312.072 336.203C315.937 334.076 318.074 331.796 317.893 329.56C317.728 327.508 315.628 325.731 312.072 324.308C315.937 322.18 318.074 319.9 317.893 317.664Z" fill="url(#paint1_linear_107_428)"/>
<path d="M257.952 358.685C250.25 358.685 243.203 358.119 237.38 357.007C237.043 356.943 236.821 356.617 236.885 356.279C236.95 355.942 237.274 355.72 237.614 355.786C246.726 357.527 258.893 357.911 271.879 356.865C282.505 356.01 292.442 354.299 300.615 351.918C300.947 351.822 301.292 352.012 301.388 352.341C301.484 352.671 301.294 353.016 300.964 353.112C292.71 355.517 282.687 357.243 271.98 358.105C267.158 358.493 262.443 358.685 257.952 358.685Z" fill="#7D97F4"/>
<path d="M258.081 346.778C248.075 346.778 239.133 345.838 232.825 344.046C232.495 343.951 232.303 343.607 232.396 343.278C232.491 342.947 232.834 342.756 233.166 342.849C242.153 345.404 256.625 346.195 271.879 344.968C286.968 343.755 301.039 340.698 309.522 336.793C309.834 336.65 310.203 336.786 310.348 337.097C310.492 337.41 310.356 337.778 310.044 337.923C301.437 341.885 287.206 344.983 271.981 346.208C267.229 346.591 262.548 346.778 258.081 346.778Z" fill="#7D97F4"/>
<path d="M257.953 334.892C247.149 334.892 237.695 333.788 231.331 331.693C231.004 331.586 230.827 331.235 230.935 330.908C231.042 330.581 231.393 330.405 231.721 330.513C240.577 333.427 255.59 334.384 271.88 333.073C286.968 331.86 301.039 328.803 309.523 324.897C309.836 324.753 310.205 324.889 310.35 325.2C310.493 325.513 310.357 325.881 310.045 326.026C301.437 329.989 287.208 333.086 271.982 334.311C267.155 334.703 262.438 334.892 257.953 334.892Z" fill="#7D97F4"/>
<path d="M258.036 322.991C249.466 322.991 241.671 322.299 235.612 320.954C235.276 320.88 235.065 320.548 235.139 320.214C235.214 319.878 235.549 319.666 235.883 319.742C244.996 321.763 258.117 322.287 271.88 321.179C286.833 319.976 300.834 316.952 309.331 313.092C309.643 312.948 310.012 313.088 310.155 313.4C310.297 313.712 310.159 314.081 309.846 314.224C301.226 318.142 287.07 321.205 271.981 322.419C267.212 322.802 262.518 322.991 258.036 322.991Z" fill="#7D97F4"/>
<path d="M206.583 257.618C203.433 246.482 198.083 236.076 190.879 227.012C175.442 207.591 150.258 168.094 147.157 114.187C142.648 35.7751 212.313 -3.48145 275.883 1.84781C339.452 7.17707 402.181 54.4254 395.313 127.371C391.088 172.255 365.921 206.3 347.184 225.852C335.285 238.267 326.798 253.474 322.204 270.032C316.581 290.299 303.199 315.555 271.391 317.096C230.231 319.087 213.137 280.791 206.583 257.618Z" fill="url(#paint2_linear_107_428)"/>
<path d="M281.903 301.459L304.147 157.044C304.606 154.061 306.078 152.057 307.431 152.569C308.787 153.081 309.511 155.915 309.054 158.898C309.041 158.979 309.025 159.076 309.01 159.154L283.673 302.227C283.482 303.303 282.935 303.982 282.45 303.744C281.981 303.514 281.744 302.5 281.903 301.459Z" fill="#E15E5E"/>
<path d="M258.814 302.605L236.571 158.191C236.111 155.207 234.64 153.204 233.286 153.715C231.931 154.227 231.206 157.061 231.664 160.045C231.677 160.124 231.693 160.223 231.707 160.3L257.044 303.373C257.235 304.449 257.782 305.129 258.267 304.891C258.737 304.66 258.974 303.647 258.814 302.605Z" fill="#E15E5E"/>
<path class="light" opacity="0.7" d="M303.987 144.645C303.423 143.737 302.116 143.399 301.068 143.888L288.682 149.664L284.382 137.437C284.156 136.799 283.627 136.233 282.877 135.923C281.453 135.337 279.749 135.862 279.071 137.094L279.049 137.134L268.864 155.673L259.413 129.282L259.397 129.237C259.166 128.592 258.678 128.015 257.966 127.626C256.381 126.762 254.287 127.175 253.289 128.546L239.05 148.115C238.471 148.918 238.669 149.992 239.551 150.584C240.493 151.218 241.848 151.07 242.578 150.256L255.116 136.295L266.404 161.399L266.413 161.419C266.593 161.82 266.934 162.171 267.407 162.392C268.467 162.888 269.789 162.545 270.362 161.63L281.256 144.18L285.356 153.006L285.392 153.085C285.422 153.148 285.455 153.211 285.494 153.273C286.058 154.178 287.364 154.516 288.411 154.029L303.112 147.172C304.16 146.682 304.552 145.552 303.987 144.645Z" fill="white"/>
<path d="M71.4762 387.643C71.4762 387.643 69.7235 390.401 69.2828 398.125C69.2411 398.844 69.8125 399.458 70.5345 399.458H84.2453C84.7965 399.458 85.1913 398.917 85.0147 398.396C84.2108 396.021 81.7819 390.235 76.3614 386.927L71.4762 387.643Z" fill="url(#paint3_linear_107_428)"/>
<path d="M70.8805 382.409L71.6557 388.901C71.7232 389.461 72.1624 389.91 72.7237 389.974C73.4731 390.06 74.5641 390.122 75.6235 389.947C76.5867 389.788 77.2801 388.932 77.2801 387.958V381.69L70.8805 382.409Z" fill="url(#paint4_linear_107_428)"/>
<path d="M105.401 386.926C105.401 386.926 102.777 390.999 102.833 396.587C102.845 397.904 103.949 398.953 105.269 398.953H126.563C127.561 398.953 127.966 397.674 127.149 397.102C123.119 394.277 115.2 389 109.47 386.926H105.401Z" fill="url(#paint5_linear_107_428)"/>
<path d="M103.209 379.916L104.862 387.934C105.048 388.831 105.926 389.433 106.822 389.233C107.366 389.112 108.008 388.879 108.694 388.451C109.346 388.044 109.676 387.27 109.542 386.514L107.831 376.801L103.209 379.916Z" fill="url(#paint6_linear_107_428)"/>
<path d="M73.9195 268.454C73.9195 268.454 68.1673 273.516 67.085 279.606C66.0026 285.696 70.1512 384.676 70.1512 384.676C70.1512 384.676 75.902 385.632 78.8678 383.838C78.8678 383.838 82.3848 319.6 85.0563 304.758C85.0563 304.758 99.0743 371.3 102.957 383.322C102.957 383.322 108.499 383.996 110.284 382.943C110.284 382.943 107.82 286.44 103.206 271.105L73.9195 268.454Z" fill="url(#paint7_linear_107_428)"/>
<path d="M84.8898 302.67C84.6128 302.67 84.3587 302.483 84.2869 302.204L81.9054 293.084L76.8322 289.836C76.5422 289.65 76.4575 289.264 76.6441 288.975C76.8308 288.684 77.2155 288.601 77.5069 288.787L82.7853 292.167C82.9174 292.252 83.0136 292.384 83.0524 292.534L85.4956 301.889C85.5832 302.223 85.3822 302.562 85.0492 302.648C84.9946 302.662 84.9415 302.67 84.8898 302.67Z" fill="#7D97F4"/>
<path d="M118.692 201.024C94.5122 203.383 89.1849 209.437 89.1849 209.437L103.925 225.393C103.925 225.393 127.245 220.674 141.661 204.72C137.905 201.917 135.046 198.583 133.118 195.935C129.12 198.516 124.332 200.474 118.692 201.024Z" fill="#91B3FA"/>
<path d="M149.621 159.336C149.45 158.579 148.378 158.56 148.179 159.31L146.322 166.337C145.963 167.696 146.03 169.13 146.516 170.448L148.27 174.022C148.925 175.802 148.787 177.772 147.887 179.442C145.73 183.435 140.944 190.883 133.118 195.935C135.046 198.585 137.907 201.917 141.661 204.72C146.949 198.866 151.042 191.502 152.341 182.301C153.645 181.626 154.331 180.16 154.013 178.728L149.621 159.336Z" fill="url(#paint8_linear_107_428)"/>
<path d="M101.836 182.523L97.8699 201.222C97.8699 201.222 107.112 205.399 113.616 203.658L114.325 187.363L101.836 182.523Z" fill="url(#paint9_linear_107_428)"/>
<path d="M111.736 168.465C111.941 168.667 120.24 185.801 120.24 185.801L110.337 190.324L100.055 175.25C100.056 175.25 108.29 165.09 111.736 168.465Z" fill="url(#paint10_linear_107_428)"/>
<path d="M104.422 177.03L109.212 185.389C109.274 185.496 109.347 185.592 109.436 185.678C109.976 186.208 111.967 187.896 113.572 185.757C115.029 183.817 116.387 182.067 117.84 181.53C118.491 181.289 119.219 181.58 119.521 182.205C120.274 183.762 121.908 187.302 122.855 190.593C123.048 191.261 122.69 191.962 122.04 192.211C120.082 192.965 115.909 194.438 112.274 194.838C111.782 194.892 111.301 194.679 111.016 194.273C109.634 192.296 105.408 186.3 103.971 184.811C102.623 183.414 100.038 183.93 98.9666 184.224C98.6164 184.32 98.2446 184.269 97.9316 184.083C96.8277 183.424 94.6285 181.627 96.7114 178.619C97.1478 177.99 96.9755 177.133 96.3324 176.718C95.0505 175.889 93.5489 174.282 94.9586 171.691C96.3927 169.058 98.9049 168.978 100.503 169.252C101.149 169.362 101.763 168.987 101.991 168.373C102.122 168.024 102.405 167.726 102.98 167.671C103.757 167.598 104.282 166.844 104.129 166.081C103.835 164.615 104.023 162.66 106.433 161.402C110.711 159.168 114.338 163.027 115.214 166.24C116.09 169.452 111.314 171.612 108.331 171.927C106.062 172.166 104.806 174.683 104.333 175.875C104.185 176.255 104.219 176.678 104.422 177.03Z" fill="url(#paint11_linear_107_428)"/>
<path d="M105.744 187.839C105.744 187.839 103.977 182.306 101.565 182.458C99.1533 182.61 97.2081 184.966 100.137 187.719C103.779 191.143 105.744 187.839 105.744 187.839Z" fill="url(#paint12_linear_107_428)"/>
<path class="puzzle1" d="M264.874 154.014C260.862 157.837 254.263 161.586 244.205 160.571C225.088 158.644 223.043 140.928 225.126 131.665C226.884 123.85 243.255 111.974 257.599 119.297C260.642 120.85 264.077 118.191 263.476 114.687L256.248 72.6692L210.042 81.9348C206.022 82.7416 202.605 78.778 203.738 74.5822C204.975 69.9995 205.877 63.8964 205.206 56.6369C203.654 39.8682 188.848 34.9373 175.626 38.6172C164.238 41.7869 153.062 62.7744 168.785 79.5862C171.862 82.8749 170.195 88.5581 165.937 89.4136L127.059 97.2247L135.61 146.932C144.925 129.196 163.274 129.89 172.871 144.188C182.503 158.541 179.269 173.825 163.79 177.953C155.871 180.065 149.974 177.935 146.117 175.378C144.099 174.04 141.629 175.82 142.06 178.32L148.962 218.441L187.377 212.075C191.639 211.369 195.08 216.25 193.037 220.263C191.264 223.746 190.104 227.953 190.694 232.686C192.397 246.367 204.153 257.815 217.181 257.233C230.302 256.647 241.682 241.506 237.481 228.741C235.492 222.692 232.138 217.187 229.168 213.073C226.69 209.644 228.475 204.767 232.448 204.108L278.57 196.459L271.697 156.507C271.12 153.155 267.258 151.743 264.874 154.014Z" fill="url(#paint13_linear_107_428)"/>
<path d="M128.442 210.056C118.409 202.561 101.694 201.392 92.1407 201.401C87.9561 201.405 84.373 204.381 83.6409 208.494C81.5178 220.418 75.5043 251.529 74.2224 256.922C73.1702 261.345 72.0217 265.689 71.2839 268.407C70.8432 270.031 71.7935 271.706 73.4185 272.153C81.8824 274.481 96.6554 276.169 102.633 276.79C103.948 276.926 105.02 275.764 104.783 274.467C104.582 273.367 104.684 272.232 105.081 271.184L120.047 231.516C136.153 243.907 148.134 243.129 156.553 238.244C154.184 233.845 152.337 229.341 151.005 224.734C137.272 224.88 128.442 210.056 128.442 210.056Z" fill="#7D97F4"/>
<path d="M172.558 218.243L169.57 215.481C162.764 222.231 156.493 224.677 151.003 224.735C152.335 229.342 154.183 233.846 156.551 238.246C167.645 231.809 172.558 218.243 172.558 218.243Z" fill="url(#paint14_linear_107_428)"/>
<path d="M170.874 218.608L184.508 216.672L195.704 207.455C193.71 206.661 184.01 210.79 184.01 210.79C184.01 210.79 173.142 211.116 170.278 211.634C167.899 212.064 168.863 215.414 169.257 216.537C169.338 216.767 169.395 216.903 169.395 216.903L170.874 218.608Z" fill="url(#paint15_linear_107_428)"/>
<path d="M407.799 150.252C407.799 150.252 381.615 183.718 411.49 217.754L422.722 216.709C422.722 216.709 401.101 182.055 410.731 154.432L426.641 155.591L435.439 149.866L407.799 150.252Z" fill="url(#paint16_linear_107_428)"/>
<path class="puzzle2" d="M453.075 101.282C449.707 103.354 445.583 105.308 440.861 106.415C414.732 112.543 416.301 79.0632 429.091 64.7562C435.635 57.4366 443.986 59.0874 450.627 62.4864C455.509 64.9855 461.299 61.1938 460.967 55.6167L458.254 9.85149L415.429 13.5944C410.636 14.0129 407.962 19.4654 410.414 23.6354C413.24 28.443 415.956 35.0362 416.433 43.0594C417.482 60.7697 394.534 66.7424 387.139 67.8687C380.457 68.8861 353.125 58.3737 367.81 27.5316C369.943 23.0507 366.653 17.955 361.893 18.3706L314.553 22.5062L317.241 67.8386C317.465 71.6188 313.514 74.0291 310.475 72.0258C296.156 62.5838 277.42 73.228 274.636 81.2943C271.335 90.8552 271.407 109.849 291.418 114.141C301.945 116.398 309.374 113.208 314.074 109.633C316.866 107.509 320.788 109.46 321.002 113.076L323.557 156.179L372.395 153.56C377.243 153.299 379.768 147.511 376.753 143.545C372.443 137.873 367.608 130.983 366.214 126.939C363.549 119.201 366.989 102.765 385.266 99.0132C403.71 95.2258 417.963 107.111 418.207 123.966C418.316 131.549 416.869 137.886 415.246 142.559C413.783 146.77 417.1 151.162 421.479 150.927L466.234 148.527L463.767 106.899C463.449 101.519 457.621 98.4844 453.075 101.282Z" fill="url(#paint17_linear_107_428)"/>
<path d="M422.14 314.095C422.14 314.095 443.354 360.251 454.486 379.369C454.486 379.369 456.696 391.398 454.486 395.18L452.602 396.016L461.395 395.755C461.395 395.755 462.176 379.574 461.566 378.671C460.956 377.767 459.735 377.827 459.735 377.827C459.735 377.827 455.966 348.009 445.046 341.647L434.464 305.265L422.14 314.095Z" fill="url(#paint18_linear_107_428)"/>
<path d="M448.845 398.283C448.832 398.495 455.712 398.397 459.448 398.33C460.828 398.304 462.005 397.337 462.298 395.991L465.12 381.191C465.388 379.786 464.494 378.419 463.096 378.1L461.521 377.741C461.521 377.741 459.275 380.817 459.981 383.715C460.687 386.612 461.317 394.115 459.53 394.991C457.743 395.865 452.601 396.019 452.601 396.019C452.601 396.019 448.963 396.377 448.845 398.283Z" fill="url(#paint19_linear_107_428)"/>
<path d="M402.031 398.552C401.335 398.948 401.622 400.008 402.423 399.999C408.676 399.936 422.689 399.739 423.935 399.223C425.542 398.555 423.349 392.788 421.041 390.837L408.294 394.99L402.031 398.552Z" fill="url(#paint20_linear_107_428)"/>
<path d="M398.075 311.151C398.075 311.151 411.784 377.355 415.663 390.269L406.489 396.017C406.489 396.017 411.087 395.236 414.496 394.99C417.905 394.743 421.041 390.837 421.041 390.837L419.941 389.087C419.941 389.087 416.503 323.243 417.34 315.767L398.075 311.151Z" fill="url(#paint21_linear_107_428)"/>
<path d="M364.043 156.73C364.043 156.73 362.152 191.169 393.562 208.768L385.999 225.984C385.999 225.984 357.569 208.818 358.612 162.002C358.643 160.652 358.162 159.338 357.279 158.317L351.235 151.318C348.933 148.651 348.071 145.034 348.928 141.618L349.724 138.444C349.991 137.381 351.202 136.871 352.151 137.419L352.783 137.786C354.795 138.953 356.389 140.721 357.339 142.842L360.306 149.464C361.027 151.071 361.259 151.623 362.076 151.748C363.172 151.916 364.197 151.146 364.448 150.068L364.659 149.167C367.317 151.423 367.201 153.935 364.043 156.73Z" fill="url(#paint22_linear_107_428)"/>
<path d="M392.469 206.187C397.725 207.641 415.527 212.316 426.641 212.125L419.817 250.565L420.36 256.834L398.112 256.735C398.112 256.735 391.849 242.216 386.908 234.977C385.481 232.886 386.543 230.393 387.352 227.995L386.241 227.257C385.109 226.507 384.62 225.094 385.042 223.805L390.46 207.259C390.739 206.422 391.619 205.95 392.469 206.187Z" fill="url(#paint23_linear_107_428)"/>
<path d="M396.329 253.454L396.767 257.253C396.767 257.253 390.48 276.048 399.911 319.949C399.911 319.949 420.337 325.725 437.124 311.902C437.124 311.902 432.389 270.468 431.095 268.537C424.652 258.923 420.36 256.834 420.36 256.834L420.166 252.684C420.166 252.684 402.211 255.924 396.329 253.454Z" fill="url(#paint24_linear_107_428)"/>
<path d="M405.039 209.284C404.961 209.181 409.684 195.05 409.684 195.05L416.45 195.663L419.093 211.694C419.091 211.694 408.488 213.831 405.039 209.284Z" fill="url(#paint25_linear_107_428)"/>
<path d="M414.828 172.767C414.377 173.048 400.372 178.824 403.381 193.339C403.559 194.197 404.132 194.924 404.933 195.28C406.988 196.196 411.412 197.762 416.704 197.225C424.041 196.481 428.848 183.701 428.643 179.982C428.441 176.262 419.299 169.987 414.828 172.767Z" fill="url(#paint26_linear_107_428)"/>
<path d="M419.091 167.124C418.722 167.173 410.998 169.858 414.829 175.445C418.661 181.032 420.098 184.322 418.286 186.776C416.635 189.011 412.979 187.737 413.297 192.389C413.362 193.32 412.959 194.223 412.183 194.746C408.737 197.075 400.33 204.241 408.659 214.462C409.337 215.293 409.476 216.44 408.953 217.376C406.515 221.743 401.39 234.54 419.942 241.639C438.276 248.653 444.895 236.691 446.744 231.909C447.144 230.874 448.164 230.241 449.273 230.294C451.287 230.389 454.143 230.055 454.01 227.366C453.93 225.734 452.911 224.271 451.705 223.099C450.512 221.938 450.747 219.906 452.196 219.084C453.29 218.463 454.259 217.495 454.668 215.983C455.779 211.873 453.561 199.585 441.761 197.502C440.776 197.328 439.746 196.407 439.603 195.419C439.602 195.405 439.599 195.391 439.596 195.375C439.438 194.421 439.761 193.443 440.544 192.872C442.427 191.492 444.845 188.715 442.882 184.259C441.141 180.309 437.803 178.976 435.324 178.552C433.869 178.302 432.911 176.928 433.218 175.485C434.052 171.556 433.323 165.261 419.091 167.124Z" fill="url(#paint27_linear_107_428)"/>
</g>
<rect opacity="0.5" x="32" y="399" width="125" height="1" fill="url(#paint28_linear_107_428)"/>
<rect opacity="0.5" x="379" y="399" width="125" height="1" fill="url(#paint29_linear_107_428)"/>
<defs>
<linearGradient id="paint0_linear_107_428" x1="42.5243" y1="444.479" x2="332.983" y2="130.411" gradientUnits="userSpaceOnUse">
<stop stop-color="#DAE3FE"/>
<stop offset="1" stop-color="#E9EFFD"/>
</linearGradient>
<linearGradient id="paint1_linear_107_428" x1="305.546" y1="225.442" x2="275.864" y2="313.195" gradientUnits="userSpaceOnUse">
<stop stop-color="#09005D"/>
<stop offset="1" stop-color="#1A0F91"/>
</linearGradient>
<linearGradient id="paint2_linear_107_428" x1="205.268" y1="224.555" x2="487.344" y2="-156.164" gradientUnits="userSpaceOnUse">
<stop stop-color="#FF928E"/>
<stop offset="1" stop-color="#FE7062"/>
</linearGradient>
<linearGradient id="paint3_linear_107_428" x1="69.2804" y1="393.191" x2="85.0574" y2="393.191" gradientUnits="userSpaceOnUse">
<stop stop-color="#09005D"/>
<stop offset="1" stop-color="#1A0F91"/>
</linearGradient>
<linearGradient id="paint4_linear_107_428" x1="70.8808" y1="385.873" x2="77.2795" y2="385.873" gradientUnits="userSpaceOnUse">
<stop stop-color="#FEBBBA"/>
<stop offset="1" stop-color="#FF928E"/>
</linearGradient>
<linearGradient id="paint5_linear_107_428" x1="102.832" y1="392.94" x2="127.587" y2="392.94" gradientUnits="userSpaceOnUse">
<stop stop-color="#09005D"/>
<stop offset="1" stop-color="#1A0F91"/>
</linearGradient>
<linearGradient id="paint6_linear_107_428" x1="103.208" y1="383.037" x2="109.571" y2="383.037" gradientUnits="userSpaceOnUse">
<stop stop-color="#FEBBBA"/>
<stop offset="1" stop-color="#FF928E"/>
</linearGradient>
<linearGradient id="paint7_linear_107_428" x1="66.9052" y1="326.693" x2="110.286" y2="326.693" gradientUnits="userSpaceOnUse">
<stop stop-color="#09005D"/>
<stop offset="1" stop-color="#1A0F91"/>
</linearGradient>
<linearGradient id="paint8_linear_107_428" x1="130.999" y1="184.331" x2="154.262" y2="180.083" gradientUnits="userSpaceOnUse">
<stop stop-color="#FEBBBA"/>
<stop offset="1" stop-color="#FF928E"/>
</linearGradient>
<linearGradient id="paint9_linear_107_428" x1="121.161" y1="152.368" x2="88.8804" y2="250.561" gradientUnits="userSpaceOnUse">
<stop stop-color="#FEBBBA"/>
<stop offset="1" stop-color="#FF928E"/>
</linearGradient>
<linearGradient id="paint10_linear_107_428" x1="108.821" y1="171.612" x2="114.137" y2="207.429" gradientUnits="userSpaceOnUse">
<stop stop-color="#FEBBBA"/>
<stop offset="1" stop-color="#FF928E"/>
</linearGradient>
<linearGradient id="paint11_linear_107_428" x1="102.103" y1="188.395" x2="120.369" y2="169.746" gradientUnits="userSpaceOnUse">
<stop stop-color="#09005D"/>
<stop offset="1" stop-color="#1A0F91"/>
</linearGradient>
<linearGradient id="paint12_linear_107_428" x1="102.741" y1="210.458" x2="102.182" y2="185.374" gradientUnits="userSpaceOnUse">
<stop stop-color="#FEBBBA"/>
<stop offset="1" stop-color="#FF928E"/>
</linearGradient>
<linearGradient id="paint13_linear_107_428" x1="235.105" y1="8.90219" x2="66.7736" y2="279.964" gradientUnits="userSpaceOnUse">
<stop stop-color="#9293FF"/>
<stop offset="1" stop-color="#8485FD"/>
</linearGradient>
<linearGradient id="paint14_linear_107_428" x1="189.014" y1="42.6104" x2="174.295" y2="139.634" gradientUnits="userSpaceOnUse">
<stop stop-color="#FEBBBA"/>
<stop offset="1" stop-color="#FF928E"/>
</linearGradient>
<linearGradient id="paint15_linear_107_428" x1="207.353" y1="45.3928" x2="192.634" y2="142.416" gradientUnits="userSpaceOnUse">
<stop stop-color="#FEBBBA"/>
<stop offset="1" stop-color="#FF928E"/>
</linearGradient>
<linearGradient id="paint16_linear_107_428" x1="426.124" y1="145.993" x2="407.363" y2="203.602" gradientUnits="userSpaceOnUse">
<stop stop-color="#FEBBBA"/>
<stop offset="1" stop-color="#FF928E"/>
</linearGradient>
<linearGradient id="paint17_linear_107_428" x1="410.806" y1="-9.16643" x2="337.444" y2="217.111" gradientUnits="userSpaceOnUse">
<stop stop-color="#9293FF"/>
<stop offset="1" stop-color="#8485FD"/>
</linearGradient>
<linearGradient id="paint18_linear_107_428" x1="422.14" y1="350.641" x2="461.798" y2="350.641" gradientUnits="userSpaceOnUse">
<stop stop-color="#FEBBBA"/>
<stop offset="1" stop-color="#FF928E"/>
</linearGradient>
<linearGradient id="paint19_linear_107_428" x1="476.651" y1="262.11" x2="457.079" y2="389.553" gradientUnits="userSpaceOnUse">
<stop stop-color="#09005D"/>
<stop offset="1" stop-color="#1A0F91"/>
</linearGradient>
<linearGradient id="paint20_linear_107_428" x1="435.095" y1="255.726" x2="415.522" y2="383.172" gradientUnits="userSpaceOnUse">
<stop stop-color="#09005D"/>
<stop offset="1" stop-color="#1A0F91"/>
</linearGradient>
<linearGradient id="paint21_linear_107_428" x1="398.075" y1="353.584" x2="421.04" y2="353.584" gradientUnits="userSpaceOnUse">
<stop stop-color="#FEBBBA"/>
<stop offset="1" stop-color="#FF928E"/>
</linearGradient>
<linearGradient id="paint22_linear_107_428" x1="381.788" y1="209.614" x2="421.612" y2="302.461" gradientUnits="userSpaceOnUse">
<stop stop-color="#FEBBBA"/>
<stop offset="1" stop-color="#FF928E"/>
</linearGradient>
<linearGradient id="paint23_linear_107_428" x1="397.871" y1="205.987" x2="481.921" y2="372.75" gradientUnits="userSpaceOnUse">
<stop stop-color="#4F52FF"/>
<stop offset="1" stop-color="#4042E2"/>
</linearGradient>
<linearGradient id="paint24_linear_107_428" x1="377.799" y1="250.021" x2="451.303" y2="333.064" gradientUnits="userSpaceOnUse">
<stop stop-color="#09005D"/>
<stop offset="1" stop-color="#1A0F91"/>
</linearGradient>
<linearGradient id="paint25_linear_107_428" x1="405.037" y1="203.623" x2="419.091" y2="203.623" gradientUnits="userSpaceOnUse">
<stop stop-color="#FEBBBA"/>
<stop offset="1" stop-color="#FF928E"/>
</linearGradient>
<linearGradient id="paint26_linear_107_428" x1="427.372" y1="185.494" x2="529.662" y2="192.462" gradientUnits="userSpaceOnUse">
<stop stop-color="#FEBBBA"/>
<stop offset="1" stop-color="#FF928E"/>
</linearGradient>
<linearGradient id="paint27_linear_107_428" x1="448.482" y1="182.714" x2="327.862" y2="324.216" gradientUnits="userSpaceOnUse">
<stop stop-color="#09005D"/>
<stop offset="1" stop-color="#1A0F91"/>
</linearGradient>
<linearGradient id="paint28_linear_107_428" x1="121.141" y1="398.87" x2="121.135" y2="400.579" gradientUnits="userSpaceOnUse">
<stop stop-color="#9293FF"/>
<stop offset="1" stop-color="#8485FD"/>
</linearGradient>
<linearGradient id="paint29_linear_107_428" x1="468.141" y1="398.87" x2="468.135" y2="400.579" gradientUnits="userSpaceOnUse">
<stop stop-color="#9293FF"/>
<stop offset="1" stop-color="#8485FD"/>
</linearGradient>
<clipPath id="clip0_107_428">
<rect width="506" height="403" fill="white" transform="translate(0 -0.000732422)"/>
</clipPath>
</defs>

<style>

  .puzzle1 {
    animation: 5s ease-in-out infinite rotating;
    transform-origin: 32% 50%;
  }
  .puzzle2 {
    animation: 3s ease-in-out infinite reverse rotating;
    transform-origin: 80% 42%;
  }
  
  @keyframes rotating {
    0% {
      transform: rotate(0);
    }
  
    50% {
      transform: rotate(-4deg);
    }
    100% {
      transform: rotate(0deg);
    }
  }

  .light {
    animation: 5s ease-in-out infinite lighting;
    transform-origin: 32% 50%;
  }
  
  @keyframes lighting {
    0% {
      opacity: 1;
    }
  
    25% {
      opacity: .3;
    }
    40% {
      opacity: .8;
    }
    75% {
      opacity: .0;
    }
    100% {
      opacity: 1;
    }
  }

</style>


</svg>
