<svg width="506" height="380" viewBox="0 0 506 380" fill="none"
  xmlns="http://www.w3.org/2000/svg">
  <g clip-path="url(#clip0_63_4089)">
    <path d="M388.041 322.141C380.388 330.195 373.147 335.39 367.428 339.494C300.183 387.738 220.615 373.675 203.705 370.241C178.734 365.169 130.465 355.366 95.5669 314.332C42.7702 252.249 50.9913 154.44 91.9443 89.8753C99.4351 78.0654 139.005 12.5168 219.429 2.00437C268.101 -4.35791 324.838 8.47386 365.924 42.8924C452.169 115.143 446.029 261.098 388.041 322.141Z" fill="url(#paint0_linear_63_4089)"/>
    <path d="M89.466 73.1567C89.5623 71.4779 91.8507 71.0436 92.5497 72.5731C99.3035 87.3632 118.228 125.591 141.023 143.888C178.141 173.679 208.036 226.792 192.292 259.173C192.292 259.175 78.9349 256.094 89.466 73.1567Z" fill="#BDD0FB"/>
    <path opacity="0.43" d="M95.9632 94.7515C96.0813 95.2509 96.2184 95.654 96.3473 96.0937L96.7545 97.3816L97.596 99.9453C98.1688 101.65 98.7673 103.345 99.3659 105.041C100.575 108.427 101.827 111.799 103.109 115.157C105.687 121.871 108.445 128.514 111.302 135.116C114.151 141.721 117.184 148.246 120.355 154.705C123.531 161.161 126.799 167.573 130.278 173.876C137.208 186.492 144.831 198.741 153.288 210.404C157.577 216.19 162.02 221.867 166.783 227.274C171.582 232.644 176.614 237.813 181.998 242.593C182.115 242.698 182.294 242.687 182.399 242.569C182.5 242.455 182.492 242.281 182.384 242.177L182.381 242.174C177.204 237.207 172.305 231.971 167.672 226.507C163.024 221.054 158.697 215.336 154.524 209.514C150.355 203.688 146.42 197.695 142.622 191.618C138.827 185.538 135.286 179.303 131.78 173.049C124.82 160.51 118.533 147.604 112.607 134.539C109.658 127.999 106.839 121.399 104.139 114.75C102.784 111.428 101.459 108.094 100.175 104.743L98.2896 99.7023L97.3734 97.174L96.9296 95.9064C96.7911 95.4884 96.6351 95.0419 96.5292 94.6714L96.5115 94.6103C96.4681 94.4611 96.3134 94.3742 96.1641 94.4176C96.0148 94.4583 95.9293 94.6063 95.9632 94.7515Z" fill="white"/>
    <path d="M137.588 29.6643C138.135 28.1511 140.352 28.3763 140.576 29.971C142.734 45.3773 149.658 85.5962 165.571 108.593C191.482 146.037 204.405 202.899 181.134 228.301C181.134 228.3 78.0187 194.554 137.588 29.6643Z" fill="#91B3FA"/>
    <path opacity="0.43" d="M137.649 51.2388C137.621 51.73 137.637 52.1358 137.634 52.5742L137.656 53.8662L137.728 56.4475C137.788 58.167 137.873 59.8851 137.96 61.6033C138.145 65.0382 138.371 68.4718 138.631 71.9026C139.161 78.763 139.878 85.6084 140.696 92.4416C141.505 99.2762 142.507 106.088 143.652 112.876C144.803 119.663 146.051 126.435 147.521 133.164C150.433 146.624 154.083 159.938 158.658 172.94C161.015 179.417 163.541 185.833 166.434 192.091C169.373 198.326 172.577 204.437 176.214 210.288C176.294 210.417 176.465 210.457 176.594 210.376C176.72 210.297 176.76 210.133 176.689 210.005L176.687 210.003C173.298 204.035 170.233 197.897 167.478 191.622C164.704 185.353 162.296 178.928 160.061 172.452C157.826 165.972 155.854 159.403 154.03 152.794C152.209 146.183 150.663 139.499 149.153 132.81C146.192 119.413 143.947 105.864 142.075 92.2652C141.154 85.4632 140.369 78.6422 139.705 71.809C139.368 68.393 139.062 64.973 138.799 61.5503L138.443 56.4135L138.291 53.8445L138.23 52.5606C138.217 52.1399 138.195 51.688 138.199 51.3202V51.2578C138.2 51.1071 138.079 50.9823 137.927 50.9809C137.778 50.9796 137.657 51.0949 137.649 51.2388Z" fill="white"/>
    <g opacity="0.3">
      <path opacity="0.3" d="M390.521 66.4307C390.97 66.5012 391.302 66.9002 391.279 67.363C391.229 68.3768 391.133 69.4042 390.996 70.4152C390.929 70.9079 390.476 71.2512 389.983 71.1847C389.978 71.1834 389.971 71.1834 389.965 71.182C389.482 71.1074 389.147 70.6582 389.213 70.1723C389.345 69.2115 389.435 68.2357 389.484 67.2721C389.508 66.7767 389.93 66.394 390.427 66.4198C390.458 66.4225 390.489 66.4266 390.521 66.4307ZM389.258 74.1596C389.294 74.165 389.327 74.1732 389.363 74.1827C389.841 74.3157 390.12 74.8124 389.987 75.2901C389.713 76.2727 389.394 77.2525 389.038 78.2025C388.865 78.668 388.349 78.9028 387.882 78.7305C387.416 78.5567 387.18 78.0383 387.354 77.5742C387.692 76.6703 387.995 75.7393 388.255 74.8056C388.379 74.3632 388.814 74.0904 389.258 74.1596ZM386.325 81.4176C386.424 81.4325 386.522 81.4651 386.616 81.5153C387.051 81.7515 387.214 82.297 386.978 82.734C386.493 83.6284 385.963 84.5132 385.404 85.3642C385.129 85.7781 384.573 85.8921 384.158 85.6207C383.744 85.3479 383.628 84.7901 383.901 84.3748C384.433 83.5673 384.937 82.7272 385.397 81.8777C385.583 81.5343 385.96 81.3606 386.325 81.4176ZM381.842 87.8396C382.005 87.8654 382.164 87.936 382.297 88.0527C382.669 88.3811 382.705 88.9484 382.377 89.3216C381.704 90.0857 380.99 90.8294 380.254 91.5338C379.896 91.8757 379.327 91.8635 378.984 91.5052C378.64 91.147 378.654 90.577 379.012 90.2336C379.711 89.5659 380.39 88.8588 381.029 88.1327C381.238 87.8952 381.549 87.7948 381.842 87.8396ZM376.038 93.1012C376.268 93.1365 376.482 93.2614 376.629 93.4636C376.919 93.8667 376.828 94.4285 376.425 94.719C375.601 95.3134 374.739 95.8807 373.865 96.4045C373.439 96.6597 372.888 96.5226 372.632 96.0965C372.376 95.6703 372.515 95.1193 372.94 94.8628C373.77 94.3647 374.589 93.826 375.372 93.2614C375.574 93.1162 375.813 93.066 376.038 93.1012ZM369.217 96.9474C369.514 96.9935 369.78 97.1876 369.906 97.4835C370.1 97.9408 369.887 98.4688 369.43 98.6628C368.493 99.0605 367.528 99.4242 366.561 99.7404C366.088 99.8951 365.581 99.6386 365.426 99.1663C365.271 98.6954 365.528 98.1865 366 98.0318C366.919 97.7305 367.836 97.3857 368.725 97.0071C368.888 96.9392 369.057 96.9216 369.217 96.9474ZM336.338 93.9929C336.462 94.0119 336.582 94.0567 336.692 94.13C337.5 94.6606 338.341 95.1614 339.194 95.6215C339.631 95.8576 339.794 96.4032 339.558 96.8388C339.321 97.2758 338.777 97.4387 338.34 97.2025C337.443 96.718 336.557 96.1901 335.706 95.6323C335.29 95.3595 335.175 94.8017 335.448 94.3878C335.647 94.0838 336 93.9413 336.338 93.9929ZM361.718 99.184C362.087 99.241 362.395 99.526 362.464 99.9141C362.552 100.403 362.227 100.87 361.738 100.958C360.736 101.138 359.714 101.275 358.702 101.369C358.208 101.412 357.769 101.051 357.725 100.556C357.68 100.062 358.044 99.6237 358.538 99.5789C359.5 99.4907 360.47 99.359 361.422 99.188C361.521 99.1704 361.621 99.169 361.718 99.184ZM343.327 97.5255C343.385 97.535 343.443 97.55 343.502 97.5703C344.408 97.9069 345.341 98.2082 346.273 98.466C346.752 98.599 347.032 99.0944 346.899 99.5721C346.766 100.05 346.271 100.333 345.793 100.198C344.812 99.925 343.829 99.6087 342.876 99.2545C342.411 99.0822 342.173 98.5638 342.345 98.0996C342.497 97.6938 342.913 97.4617 343.327 97.5255ZM353.905 99.6902C354.353 99.7594 354.686 100.158 354.664 100.621C354.64 101.117 354.219 101.499 353.722 101.476C352.707 101.427 351.679 101.334 350.67 101.198C350.663 101.198 350.657 101.197 350.651 101.195C350.169 101.121 349.833 100.673 349.899 100.187C349.965 99.6942 350.417 99.3495 350.91 99.416C351.869 99.545 352.844 99.6332 353.809 99.6793C353.841 99.682 353.874 99.6861 353.905 99.6902Z" fill="#91B3FA"/>
      <path opacity="0.3" d="M331.396 90.0653C331.571 90.0925 331.74 90.1712 331.878 90.3028C332.213 90.6231 332.561 90.9407 332.911 91.2488C333.284 91.5772 333.319 92.1445 332.992 92.5177C332.664 92.8909 332.097 92.9275 331.723 92.5991C331.356 92.2748 330.989 91.9409 330.636 91.6043C330.277 91.261 330.264 90.6923 330.606 90.334C330.818 90.1115 331.115 90.0219 331.396 90.0653Z" fill="#91B3FA"/>
    </g>
    <g opacity="0.3">
      <path opacity="0.3" d="M320.534 64.9039C320.963 64.9704 321.291 65.3409 321.294 65.7874C321.295 66.2502 321.308 66.7225 321.329 67.188C321.352 67.6847 320.968 68.104 320.473 68.1271C319.975 68.1502 319.557 67.7661 319.534 67.2708C319.512 66.7808 319.498 66.2841 319.497 65.7969C319.494 65.3002 319.896 64.8958 320.392 64.8944C320.439 64.8931 320.488 64.8971 320.534 64.9039Z" fill="#91B3FA"/>
      <path opacity="0.3" d="M360.899 30.1258C361.308 30.1896 361.718 30.2601 362.126 30.3388C362.614 30.4325 362.934 30.9021 362.842 31.3906C362.749 31.8792 362.276 32.1995 361.79 32.1058C360.845 31.9253 359.894 31.7842 358.954 31.6851C358.46 31.6322 358.103 31.1898 358.155 30.6971C358.208 30.2031 358.65 29.8448 359.143 29.8978C359.725 29.9575 360.316 30.0348 360.899 30.1258ZM366.718 31.5426C366.768 31.5508 366.817 31.563 366.867 31.5793C367.819 31.8982 368.766 32.2619 369.685 32.6582C370.141 32.855 370.35 33.3843 370.153 33.8389C369.956 34.2949 369.426 34.5053 368.971 34.3071C368.098 33.9298 367.198 33.5851 366.295 33.2825C365.824 33.1251 365.57 32.6148 365.729 32.1452C365.87 31.7231 366.293 31.4761 366.718 31.5426ZM354.417 29.7254C354.836 29.7906 355.162 30.1461 355.176 30.5845C355.192 31.0812 354.801 31.4951 354.306 31.5114C353.357 31.5413 352.396 31.6118 351.449 31.7231C350.956 31.7801 350.509 31.4273 350.451 30.9346C350.394 30.442 350.747 29.9955 351.24 29.9371C352.236 29.8204 353.248 29.7458 354.247 29.7146C354.306 29.7132 354.361 29.7173 354.417 29.7254ZM373.712 34.7848C373.825 34.8025 373.936 34.8418 374.039 34.9043C374.896 35.4241 375.741 35.9859 376.55 36.5763C376.952 36.8681 377.04 37.4313 376.747 37.8316C376.454 38.2333 375.892 38.3215 375.491 38.0284C374.723 37.4679 373.921 36.9346 373.107 36.4406C372.682 36.1827 372.546 35.6303 372.804 35.2056C372.998 34.8853 373.362 34.7306 373.712 34.7848ZM346.792 30.8193C347.135 30.8722 347.431 31.1246 347.525 31.4829C347.65 31.9633 347.361 32.4546 346.88 32.5781C345.961 32.8156 345.04 33.0966 344.14 33.4128C343.671 33.577 343.158 33.3313 342.994 32.8618C342.83 32.3936 343.076 31.8806 343.545 31.7163C344.491 31.3838 345.462 31.088 346.429 30.8383C346.552 30.8071 346.675 30.8016 346.792 30.8193ZM339.593 33.5607C339.867 33.6041 340.118 33.7724 340.255 34.0384C340.482 34.4808 340.307 35.0223 339.866 35.249C339.019 35.6833 338.18 36.1583 337.372 36.6618C336.952 36.9251 336.396 36.7961 336.135 36.374C335.873 35.952 336 35.3983 336.422 35.135C337.272 34.6057 338.154 34.1063 339.046 33.6489C339.22 33.5593 339.411 33.5322 339.593 33.5607ZM333.162 37.8058C333.371 37.8384 333.569 37.9443 333.714 38.1193C334.032 38.5007 333.979 39.068 333.598 39.3855C332.865 39.9949 332.15 40.6409 331.471 41.3073C331.117 41.6547 330.548 41.6506 330.199 41.2964C329.852 40.9422 329.856 40.3736 330.21 40.0248C330.924 39.3245 331.676 38.6432 332.447 38.0026C332.656 37.8303 332.916 37.7678 333.162 37.8058ZM327.81 43.3511C327.956 43.3742 328.097 43.4312 328.22 43.5276C328.614 43.8302 328.686 44.3948 328.383 44.7883C327.801 45.5429 327.246 46.33 326.73 47.128C326.461 47.5447 325.903 47.6655 325.488 47.3968C325.07 47.128 324.951 46.5716 325.219 46.1536C325.762 45.3122 326.347 44.483 326.959 43.6891C327.167 43.4217 327.497 43.3023 327.81 43.3511ZM323.805 49.9387C323.886 49.9509 323.968 49.9753 324.045 50.012C324.496 50.221 324.691 50.7557 324.482 51.2063C324.082 52.068 323.713 52.9583 323.387 53.8527C323.216 54.3195 322.699 54.5584 322.235 54.3888C321.768 54.2178 321.529 53.702 321.699 53.2352C322.043 52.2933 322.431 51.3569 322.852 50.4503C323.025 50.0771 323.42 49.879 323.805 49.9387ZM321.347 57.2401C321.365 57.2428 321.384 57.2469 321.401 57.251C321.886 57.3568 322.194 57.8359 322.087 58.3218C321.937 59.0058 321.807 59.7033 321.699 60.3941C321.659 60.6438 321.624 60.8949 321.59 61.1446C321.525 61.6373 321.071 61.982 320.58 61.9168C320.081 61.8598 319.743 61.3984 319.808 60.9071C319.843 60.6438 319.881 60.3819 319.922 60.1186C320.034 59.3912 320.173 58.6583 320.33 57.9377C320.434 57.4695 320.881 57.1682 321.347 57.2401Z" fill="#91B3FA"/>
      <path opacity="0.3" d="M379.835 39.5023C380.011 39.5294 380.181 39.6095 380.319 39.7425C380.669 40.0804 381.02 40.4319 381.359 40.7875C381.702 41.1471 381.689 41.7158 381.33 42.0578C380.971 42.4011 380.402 42.3875 380.06 42.0293C379.737 41.6913 379.404 41.3575 379.072 41.0372C378.715 40.6925 378.704 40.1238 379.049 39.7669C379.259 39.547 379.555 39.4588 379.835 39.5023Z" fill="#91B3FA"/>
    </g>

    <g class="gear">

      <path d="M377.032 49.617C376.941 49.4623 376.763 49.3822 376.587 49.4175L371.573 50.4232C369.928 48.6928 367.994 47.2108 365.821 46.064L365.43 40.9693C365.416 40.7902 365.29 40.6409 365.118 40.5948L359.182 39.0449C359.009 39.0001 358.825 39.0693 358.726 39.2186L355.894 43.4719C353.437 43.4095 351.026 43.7569 348.745 44.4612L344.863 41.1335C344.727 41.0168 344.532 40.9992 344.377 41.0901L339.085 44.1912C338.93 44.2821 338.85 44.4613 338.886 44.6363L339.891 49.6496C338.161 51.2945 336.679 53.2284 335.532 55.4012L330.437 55.792C330.257 55.8056 330.108 55.9318 330.062 56.1042L328.512 62.039C328.467 62.2127 328.536 62.3959 328.686 62.495L332.939 65.3273C332.877 67.7837 333.224 70.194 333.929 72.4754L330.599 76.3568C330.483 76.4925 330.465 76.688 330.556 76.8427L333.657 82.1342C333.748 82.2889 333.926 82.3689 334.103 82.3337L339.116 81.328C340.761 83.0584 342.695 84.5404 344.868 85.6872L345.259 90.7819C345.273 90.961 345.399 91.1103 345.572 91.1564L351.507 92.7063C351.681 92.7511 351.864 92.6819 351.963 92.5326L354.796 88.2793C357.252 88.3417 359.663 87.9943 361.944 87.2899L365.826 90.6177C365.962 90.7344 366.157 90.752 366.312 90.6611L371.604 87.56C371.759 87.4691 371.839 87.2913 371.804 87.1149L370.798 82.1016C372.528 80.4567 374.011 78.5228 375.157 76.35L380.253 75.9592C380.432 75.9456 380.581 75.8194 380.627 75.647L382.177 69.7122C382.222 69.5385 382.153 69.3553 382.003 69.2562L377.75 66.4239C377.812 63.9675 377.465 61.5572 376.76 59.2758L380.088 55.3944C380.205 55.2587 380.223 55.0632 380.132 54.9085L377.032 49.617Z" fill="#91B3FA"/>
      <path d="M356.297 59.7847C359.267 60.2475 361.535 62.8342 361.51 65.9272C361.482 69.3268 358.694 72.0696 355.294 72.0425C353.646 72.0289 352.104 71.3748 350.949 70.2008C349.794 69.0269 349.166 67.473 349.179 65.8267C349.206 62.4271 351.996 59.6843 355.396 59.7114C355.701 59.7142 356.002 59.7399 356.297 59.7847ZM354.606 70.5469C354.835 70.5822 355.068 70.6012 355.305 70.6039C357.911 70.6256 360.05 68.522 360.07 65.9163C360.092 63.3092 357.988 61.1717 355.381 61.1514C352.775 61.1297 350.636 63.2332 350.615 65.839C350.604 67.1011 351.088 68.2927 351.972 69.1925C352.693 69.924 353.611 70.3922 354.606 70.5469Z" fill="#BDD0FB"/>
      <path d="M357.541 50.9674C358.052 51.0475 358.561 51.152 359.067 51.285C359.226 51.3271 359.384 51.3705 359.543 51.418C360.322 51.6487 361.081 51.9405 361.81 52.2893C361.819 52.2947 361.83 52.2988 361.84 52.3029C361.868 52.3164 361.895 52.33 361.924 52.3436C361.978 52.3707 362.033 52.3979 362.087 52.425C362.229 52.4969 362.304 52.6516 362.281 52.8009C362.275 52.8376 362.263 52.8742 362.246 52.9081C362.156 53.0859 361.94 53.1551 361.762 53.0669C360.85 52.6055 359.883 52.2404 358.885 51.9812C353.934 50.6878 348.9 52.1386 345.401 55.3849C343.454 57.1899 341.982 59.5513 341.264 62.305C341.137 62.7881 341.037 63.274 340.961 63.7598C340.452 67.0333 341.078 70.3556 342.776 73.2531C344.726 76.5808 347.854 78.9503 351.587 79.9248C359.295 81.9361 367.197 77.3055 369.208 69.6023C369.332 69.1273 369.432 68.6483 369.507 68.1665C369.831 66.0778 369.696 63.9417 369.103 61.9114C369.088 61.8585 369.085 61.8056 369.093 61.7553C369.113 61.6223 369.21 61.5056 369.347 61.4649C369.538 61.4093 369.738 61.5178 369.793 61.7092C370.418 63.8413 370.56 66.0833 370.218 68.2764C370.139 68.7826 370.035 69.2861 369.905 69.7842C367.793 77.8728 359.492 82.7327 351.405 80.6223C347.487 79.5991 344.202 77.1114 342.155 73.6181C340.373 70.5768 339.715 67.0889 340.25 63.6526C340.33 63.1423 340.436 62.6321 340.567 62.1258C341.591 58.2078 344.079 54.9235 347.572 52.8756C350.615 51.0896 354.105 50.4313 357.541 50.9674Z" fill="#BDD0FB"/>


    </g>

    <g opacity="0.3">
      <path opacity="0.3" d="M424.478 47.7442C424.716 47.7808 424.91 47.9695 424.943 48.2205C425.004 48.6874 425.053 49.1637 425.086 49.6333C425.108 49.9387 424.879 50.2047 424.572 50.2264C424.265 50.2494 424.001 50.0174 423.979 49.712C423.946 49.2642 423.902 48.8109 423.842 48.3644C423.801 48.0604 424.016 47.7822 424.32 47.7415C424.374 47.7347 424.427 47.736 424.478 47.7442Z" fill="#91B3FA"/>
      <path opacity="0.3" d="M424.645 52.0124C424.924 52.0558 425.129 52.3028 425.114 52.5905C425.072 53.4007 424.986 54.2191 424.861 55.0198C424.836 55.1881 424.807 55.3577 424.777 55.5274C424.723 55.83 424.42 56.0173 424.134 55.978C423.832 55.925 423.63 55.636 423.685 55.3347C423.713 55.1732 423.74 55.0117 423.766 54.8502C423.885 54.0861 423.965 53.3057 424.008 52.5335C424.024 52.2268 424.284 51.992 424.591 52.0083C424.609 52.0069 424.628 52.0083 424.645 52.0124ZM423.638 57.688C423.664 57.692 423.691 57.6975 423.716 57.7056C424.009 57.7952 424.175 58.106 424.084 58.3991C423.796 59.3396 423.446 60.2706 423.047 61.1663C422.922 61.4459 422.592 61.5707 422.314 61.4472C422.034 61.3224 421.908 60.994 422.033 60.7144C422.414 59.8607 422.748 58.9718 423.022 58.0747C423.105 57.806 423.37 57.6459 423.638 57.688ZM421.285 62.9496C421.354 62.9605 421.423 62.9849 421.487 63.0229C421.749 63.1817 421.833 63.5237 421.674 63.7856C421.165 64.6257 420.598 65.4427 419.987 66.2149C419.797 66.4565 419.448 66.4958 419.207 66.3058C418.967 66.1158 418.926 65.767 419.116 65.5268C419.698 64.7912 420.238 64.0122 420.724 63.2115C420.844 63.012 421.069 62.9157 421.285 62.9496ZM417.708 67.473C417.822 67.4906 417.931 67.5435 418.018 67.6317C418.232 67.8502 418.231 68.2017 418.012 68.4175C417.311 69.1083 416.562 69.7611 415.782 70.3596C415.539 70.5455 415.191 70.4994 415.003 70.2565C414.816 70.0135 414.862 69.6647 415.105 69.4775C415.848 68.9088 416.563 68.2845 417.231 67.6263C417.364 67.4974 417.54 67.4458 417.708 67.473ZM413.137 70.9852C413.296 71.0097 413.443 71.1033 413.531 71.2526C413.687 71.5172 413.599 71.8565 413.334 72.0126C412.487 72.5107 411.601 72.9626 410.701 73.3535C410.42 73.477 410.093 73.3467 409.971 73.0657C409.848 72.7848 409.977 72.4577 410.258 72.3356C411.117 71.9624 411.962 71.5322 412.771 71.0558C412.885 70.9866 413.014 70.9662 413.137 70.9852ZM407.852 73.2802C408.057 73.3127 408.236 73.4593 408.3 73.6724C408.387 73.9669 408.218 74.275 407.924 74.3618C406.98 74.64 406.011 74.8612 405.044 75.02C404.74 75.0689 404.456 74.864 404.406 74.5613C404.356 74.2587 404.562 73.9737 404.863 73.9235C405.786 73.7715 406.71 73.5611 407.609 73.2965C407.69 73.272 407.773 73.268 407.852 73.2802ZM402.166 74.2139C402.423 74.2532 402.625 74.4717 402.634 74.7405C402.647 75.0472 402.408 75.305 402.101 75.3172C401.122 75.3552 400.128 75.3322 399.146 75.2494C398.841 75.2182 398.614 74.9535 398.64 74.6482C398.666 74.3428 398.935 74.1162 399.24 74.142C400.176 74.222 401.125 74.2437 402.058 74.2071C402.096 74.2071 402.132 74.2085 402.166 74.2139ZM393.638 72.9572C393.67 72.9626 393.702 72.9694 393.733 72.9802C394.499 73.2422 395.293 73.4675 396.092 73.6493C396.213 73.6778 396.333 73.7036 396.452 73.728C396.752 73.7918 396.945 74.085 396.882 74.3849C396.82 74.6862 396.521 74.8857 396.225 74.8151C396.098 74.788 395.972 74.7608 395.845 74.731C395.011 74.541 394.179 74.3048 393.375 74.0293C393.085 73.9302 392.93 73.614 393.03 73.3236C393.116 73.0685 393.376 72.9165 393.638 72.9572Z" fill="#91B3FA"/>
    </g>
    <g opacity="0.3">
      <path opacity="0.3" d="M404.529 27.6096C404.829 27.6557 405.035 27.9353 404.993 28.2366C404.95 28.5406 404.669 28.7509 404.365 28.7075C403.452 28.5772 402.522 28.5012 401.602 28.4836C401.297 28.4741 401.052 28.2244 401.057 27.9177C401.064 27.6109 401.318 27.368 401.623 27.3734C402.588 27.3938 403.563 27.4725 404.52 27.6082C404.524 27.6082 404.526 27.6096 404.529 27.6096ZM407.312 28.1782C407.332 28.1809 407.351 28.185 407.37 28.1904C408.304 28.4402 409.232 28.7496 410.128 29.1092C410.413 29.2232 410.55 29.5462 410.436 29.8312C410.322 30.1162 409.998 30.2533 409.714 30.1407C408.859 29.7973 407.973 29.5028 407.082 29.2639C406.786 29.1852 406.61 28.8799 406.69 28.584C406.765 28.3072 407.035 28.1348 407.312 28.1782ZM398.86 27.4956C399.103 27.5336 399.3 27.7304 399.327 27.9869C399.358 28.2909 399.137 28.5637 398.831 28.5962C397.912 28.6912 396.992 28.8432 396.095 29.0468C395.795 29.1133 395.498 28.9274 395.43 28.6288C395.362 28.3302 395.549 28.0317 395.848 27.9638C396.789 27.7494 397.754 27.5906 398.717 27.4915C398.766 27.4861 398.815 27.4874 398.86 27.4956ZM412.575 30.294C412.638 30.3035 412.7 30.3239 412.758 30.3564C413.605 30.8233 414.432 31.3485 415.215 31.9144C415.463 32.0936 415.519 32.441 415.34 32.6894C415.161 32.9364 414.813 32.992 414.565 32.8129C413.818 32.2727 413.03 31.7733 412.222 31.3268C411.953 31.1789 411.856 30.8409 412.005 30.5722C412.119 30.3646 412.351 30.2587 412.575 30.294ZM393.333 28.7537C393.527 28.7835 393.699 28.9165 393.77 29.1147C393.875 29.4037 393.724 29.7213 393.436 29.8258C392.569 30.1379 391.712 30.5057 390.889 30.921C390.614 31.0594 390.28 30.9482 390.142 30.6754C390.004 30.4012 390.115 30.0674 390.388 29.9289C391.251 29.4947 392.149 29.1079 393.059 28.7808C393.151 28.7482 393.245 28.7401 393.333 28.7537ZM388.269 31.3024C388.418 31.3254 388.557 31.4082 388.646 31.5439C388.816 31.7991 388.747 32.1438 388.492 32.3134C387.722 32.8251 386.978 33.3883 386.279 33.9854C386.046 34.1849 385.696 34.1578 385.496 33.9244C385.297 33.6909 385.324 33.3408 385.557 33.1427C386.29 32.5157 387.071 31.9253 387.877 31.3892C387.996 31.3092 388.136 31.282 388.269 31.3024ZM383.961 34.9911C384.066 35.0074 384.166 35.0535 384.25 35.1309C384.477 35.3385 384.492 35.6887 384.284 35.9153C383.66 36.5952 383.072 37.3213 382.537 38.0704C382.359 38.3188 382.012 38.3772 381.762 38.1994C381.512 38.0216 381.454 37.6742 381.633 37.4245C382.194 36.6387 382.81 35.8787 383.464 35.1648C383.596 35.0209 383.783 34.9626 383.961 34.9911Z" fill="#91B3FA"/>
      <path opacity="0.3" d="M417.19 33.6367C417.296 33.653 417.397 33.7004 417.482 33.7792C417.829 34.1022 418.17 34.4387 418.493 34.7767C418.704 34.9979 418.696 35.3494 418.475 35.5625C418.252 35.7728 417.902 35.766 417.689 35.5448C417.381 35.2232 417.057 34.9029 416.726 34.5935C416.502 34.3845 416.488 34.033 416.697 33.809C416.827 33.6665 417.013 33.6082 417.19 33.6367Z" fill="#91B3FA"/>
    </g>

    <g class="gear2">
      <path d="M415.63 40.6517C415.569 40.5486 415.45 40.4943 415.333 40.5187L411.978 41.1919C410.877 40.0342 409.584 39.0422 408.129 38.2754L407.867 34.8662C407.857 34.7468 407.773 34.6464 407.658 34.6152L403.686 33.5783C403.57 33.5484 403.447 33.5946 403.381 33.695L401.485 36.5409C399.841 36.4989 398.227 36.7309 396.7 37.2032L394.103 34.9762C394.012 34.8988 393.881 34.8866 393.777 34.9477L390.236 37.0227C390.132 37.0838 390.078 37.2032 390.103 37.3199L390.776 40.6748C389.618 41.7754 388.626 43.0688 387.859 44.5237L384.45 44.7856C384.33 44.7951 384.23 44.8792 384.199 44.9946L383.162 48.9656C383.132 49.0823 383.178 49.2044 383.278 49.2709L386.124 51.1669C386.082 52.8104 386.314 54.424 386.787 55.9508L384.56 58.5484C384.482 58.6393 384.47 58.7696 384.531 58.8727L386.606 62.4135C386.667 62.5167 386.787 62.5709 386.904 62.5465L390.259 61.8734C391.359 63.031 392.653 64.0231 394.108 64.7899L394.37 68.199C394.379 68.3184 394.464 68.4189 394.579 68.4501L398.55 69.4869C398.666 69.5168 398.789 69.4707 398.856 69.3702L400.752 66.5243C402.395 66.5664 404.009 66.3343 405.536 65.862L408.134 68.0891C408.225 68.1678 408.355 68.1787 408.46 68.1176L412.001 66.0425C412.104 65.9814 412.158 65.862 412.134 65.7453L411.461 62.3904C412.618 61.2898 413.611 59.9964 414.377 58.5416L417.787 58.2797C417.906 58.2702 418.007 58.186 418.037 58.0707L419.074 54.0997C419.103 53.983 419.057 53.8608 418.957 53.7943L416.111 51.8984C416.153 50.2549 415.921 48.6412 415.448 47.1144L417.676 44.5169C417.754 44.4259 417.765 44.2957 417.704 44.1912L415.63 40.6517Z" fill="#91B3FA"/>
      <path d="M401.773 47.3832C402.658 47.5216 403.472 47.9369 404.111 48.587C404.898 49.3863 405.326 50.4449 405.316 51.5673C405.297 53.8825 403.399 55.75 401.083 55.7323C398.765 55.7092 396.899 53.8133 396.918 51.498C396.927 50.3757 397.372 49.3253 398.172 48.5381C398.971 47.751 400.03 47.3235 401.152 47.333C401.361 47.3343 401.569 47.352 401.773 47.3832ZM400.641 54.5842C400.789 54.6072 400.939 54.6195 401.093 54.6208C402.796 54.6344 404.193 53.2596 404.208 51.5564C404.214 50.7313 403.899 49.9523 403.321 49.3646C402.742 48.7756 401.969 48.4499 401.144 48.4418C400.319 48.435 399.54 48.7498 398.952 49.328C398.363 49.9075 398.036 50.6797 398.029 51.5048C398.016 53.056 399.153 54.3521 400.641 54.5842Z" fill="#BDD0FB"/>
      <path d="M402.648 41.2462C402.995 41.3005 403.343 41.3724 403.689 41.4633C404.378 41.6425 405.049 41.8935 405.686 42.207C405.714 42.222 405.743 42.2355 405.771 42.2505C405.991 42.3618 406.105 42.5993 406.07 42.8313C406.062 42.887 406.042 42.944 406.017 42.9969C405.878 43.271 405.544 43.3782 405.272 43.2412C404.68 42.9426 404.053 42.7065 403.409 42.5382C403.374 42.5287 403.339 42.5205 403.304 42.511C401.775 42.1283 400.21 42.1392 398.725 42.5232C397.919 42.7309 397.136 43.0498 396.395 43.4746C396.39 43.4787 396.383 43.4814 396.377 43.4855C396.358 43.4963 396.341 43.5072 396.323 43.518C394.169 44.7802 392.634 46.8064 392.003 49.2221C391.921 49.5342 391.856 49.8491 391.807 50.164C391.478 52.2838 391.883 54.4335 392.983 56.3105C394.245 58.4642 396.271 59.9978 398.687 60.6289C401.102 61.2586 403.621 60.9125 405.775 59.6504C407.929 58.3882 409.464 56.362 410.095 53.9463C410.175 53.6396 410.241 53.3288 410.288 53.0167C410.498 51.665 410.41 50.282 410.026 48.967C410.003 48.8855 409.998 48.8041 410.01 48.7254C410.042 48.5191 410.189 48.34 410.402 48.2775C410.697 48.192 411.005 48.3603 411.092 48.6548C411.522 50.126 411.621 51.6731 411.385 53.185C411.33 53.5337 411.259 53.8812 411.169 54.2245C410.463 56.928 408.746 59.1944 406.336 60.6058C403.925 62.0172 401.11 62.4095 398.406 61.701C395.703 60.9953 393.436 59.2799 392.025 56.8682C390.795 54.7701 390.34 52.3639 390.709 49.993C390.764 49.6415 390.837 49.2886 390.928 48.9398C392.293 43.7067 397.414 40.4319 402.648 41.2462Z" fill="#BDD0FB"/>

    </g>
    <path d="M286.332 379.667H170.12V208.594C170.12 205.564 172.576 203.109 175.606 203.109H280.845C283.876 203.109 286.331 205.565 286.331 208.594V379.667H286.332Z" fill="url(#paint1_linear_63_4089)"/>
    <path d="M256.812 379.667H140.597V208.594C140.597 205.564 143.054 203.109 146.084 203.109H251.323C254.354 203.109 256.809 205.565 256.809 208.594V379.667H256.812Z" fill="url(#paint2_linear_63_4089)"/>
    <path opacity="0.43" d="M148.39 236.16C148.008 236.16 147.699 235.851 147.699 235.47V222.943C147.699 216.224 154.063 210.757 161.885 210.757H184.203C184.584 210.757 184.894 211.067 184.894 211.448C184.894 211.83 184.584 212.139 184.203 212.139H161.885C154.824 212.139 149.08 216.985 149.08 222.943V235.47C149.08 235.852 148.771 236.16 148.39 236.16Z" fill="white"/>
    <path opacity="0.43" d="M148.39 249.443C148.008 249.443 147.699 249.133 147.699 248.752V243.649C147.699 243.268 148.008 242.958 148.39 242.958C148.771 242.958 149.08 243.268 149.08 243.649V248.752C149.08 249.133 148.771 249.443 148.39 249.443Z" fill="white"/>
    <path d="M167.455 380H82.1489V260.782C82.1489 257.751 84.6056 255.296 87.635 255.296H161.969C165 255.296 167.455 257.753 167.455 260.782V380Z" fill="#7D97F4"/>
    <path d="M142.306 380H57V260.782C57 257.751 59.4567 255.296 62.4861 255.296H136.82C139.851 255.296 142.306 257.753 142.306 260.782V380Z" fill="#91B3FA"/>
    <path d="M64.0414 290.891C63.66 290.891 63.3506 290.582 63.3506 290.2V275.421C63.3506 267.562 69.7461 261.167 77.6061 261.167H100.036C100.418 261.167 100.727 261.476 100.727 261.858C100.727 262.239 100.418 262.549 100.036 262.549H77.6061C70.5075 262.549 64.7336 268.323 64.7336 275.42V290.199C64.7323 290.582 64.4228 290.891 64.0414 290.891Z" fill="#BDD0FB"/>
    <path d="M64.0414 306.562C63.66 306.562 63.3506 306.253 63.3506 305.871V299.85C63.3506 299.468 63.66 299.159 64.0414 299.159C64.4228 299.159 64.7323 299.468 64.7323 299.85V305.871C64.7323 306.253 64.4228 306.562 64.0414 306.562Z" fill="#BDD0FB"/>
    <path d="M264.044 205.344C264.165 205.344 264.289 205.337 264.412 205.322C266.162 205.121 267.417 203.54 267.215 201.791L247.202 27.6558C247.001 25.9078 245.417 24.6551 243.67 24.8533C241.921 25.0541 240.665 26.6352 240.867 28.3845L260.88 202.521C261.068 204.145 262.445 205.344 264.044 205.344Z" fill="#7D97F4"/>
    <path d="M154.034 205.345C155.493 205.345 156.81 204.337 157.142 202.853L196.19 28.717C196.575 26.9988 195.495 25.2943 193.777 24.9088C192.062 24.5261 190.354 25.6037 189.968 27.3218L150.919 201.458C150.534 203.176 151.614 204.881 153.333 205.266C153.567 205.319 153.802 205.345 154.034 205.345Z" fill="#7D97F4"/>
    <path d="M219.976 205.344C221.736 205.344 223.164 203.916 223.164 202.156V116.217C223.164 114.457 221.736 113.029 219.976 113.029C218.216 113.029 216.788 114.457 216.788 116.217V202.156C216.788 203.916 218.216 205.344 219.976 205.344Z" fill="#7D97F4"/>
    <path d="M283.78 8.53765L272.571 149.708C272.333 152.693 269.805 154.973 266.809 154.9L149.737 152.045C146.324 151.962 143.766 148.889 144.304 145.518L166.717 4.75393C167.161 1.96636 169.597 -0.0639241 172.419 0.00121876L278.288 2.45222C281.526 2.52686 284.037 5.309 283.78 8.53765Z" fill="url(#paint3_linear_63_4089)"/>
    <path opacity="0.97" d="M273.981 6.33771L175.806 4.06585C172.985 4.00071 170.548 6.031 170.104 8.81857L148.957 141.648C148.421 145.019 150.978 148.09 154.39 148.174L263.135 150.826C266.129 150.899 268.659 148.619 268.897 145.634L279.474 12.4245C279.73 9.1945 277.219 6.41371 273.981 6.33771Z" fill="white"/>
    <path d="M222.991 15.2813L272.47 18.0403C272.978 18.0688 273.361 18.5099 273.317 19.0161L273.249 19.8101C273.207 20.3013 272.778 20.6664 272.287 20.6311L222.875 17.0768C222.375 17.0401 222 16.6018 222.042 16.101C222.085 15.6178 222.505 15.2541 222.991 15.2813Z" fill="#91B3FA"/>
    <path d="M221.688 20.2403L221.659 20.5796C221.617 21.075 221.984 21.512 222.479 21.554L271.832 25.7897C272.328 25.8317 272.765 25.4653 272.807 24.97L272.835 24.6307C272.877 24.1353 272.511 23.6983 272.016 23.6562L222.662 19.4206C222.167 19.3772 221.731 19.745 221.688 20.2403Z" fill="#91B3FA"/>
    <path d="M236.288 25.9498L236.276 26.099C236.234 26.5944 236.6 27.0314 237.096 27.0735L271.47 30.0239C271.965 30.066 272.402 29.6996 272.444 29.2042L272.504 28.5053C272.548 28.0045 272.172 27.5648 271.669 27.5295L237.249 25.13C236.758 25.0948 236.33 25.4598 236.288 25.9498Z" fill="#91B3FA"/>
    <path d="M222.259 123.807C222.251 123.157 221.628 122.551 220.54 122.027C221.801 121.44 222.523 120.767 222.513 120.057C222.485 117.913 215.812 116.261 207.607 116.368C199.403 116.475 192.775 118.299 192.802 120.444C192.81 121.094 193.433 121.699 194.522 122.223C193.261 122.812 192.539 123.485 192.548 124.193C192.557 124.843 193.18 125.449 194.268 125.973C193.007 126.56 192.285 127.235 192.295 127.943C192.303 128.593 192.926 129.199 194.014 129.722C192.753 130.311 192.031 130.985 192.041 131.693C192.053 132.642 193.367 133.493 195.537 134.139C195.461 134.833 195.426 135.599 195.437 136.447C195.491 140.399 199.703 143.778 205.55 144.173C211.397 144.568 216.742 140.708 217.065 136.77C217.144 135.805 217.16 134.951 217.125 134.19C219.986 133.445 221.767 132.419 221.752 131.306C221.744 130.656 221.121 130.051 220.032 129.527C221.293 128.938 222.015 128.265 222.005 127.556C221.997 126.906 221.374 126.301 220.286 125.777C221.548 125.188 222.269 124.515 222.259 123.807Z" fill="url(#paint4_linear_63_4089)"/>
    <path d="M202.523 135.463C200.1 135.299 197.895 134.972 196.085 134.497C195.981 134.47 195.917 134.362 195.946 134.257C195.973 134.152 196.08 134.088 196.186 134.117C199.016 134.859 202.836 135.239 206.945 135.185C210.307 135.141 213.469 134.813 216.093 134.236C216.199 134.213 216.303 134.28 216.326 134.386C216.349 134.491 216.283 134.596 216.177 134.619C213.529 135.201 210.338 135.532 206.95 135.577C205.425 135.597 203.937 135.558 202.523 135.463Z" fill="#7D97F4"/>
    <path d="M202.817 131.712C199.669 131.499 196.875 131.013 194.928 130.314C194.826 130.277 194.773 130.165 194.809 130.063C194.846 129.961 194.959 129.908 195.061 129.945C197.835 130.941 202.371 131.499 207.197 131.436C211.971 131.374 216.465 130.71 219.216 129.66C219.318 129.622 219.43 129.672 219.47 129.774C219.508 129.876 219.458 129.988 219.356 130.028C216.563 131.094 212.018 131.768 207.201 131.83C205.7 131.848 204.224 131.807 202.817 131.712Z" fill="#7D97F4"/>
    <path d="M203.031 127.962C199.631 127.733 196.68 127.183 194.721 126.388C194.621 126.347 194.572 126.232 194.613 126.131C194.653 126.031 194.767 125.982 194.869 126.023C197.593 127.13 202.298 127.751 207.451 127.684C212.225 127.622 216.717 126.958 219.47 125.908C219.572 125.87 219.684 125.92 219.724 126.022C219.762 126.123 219.711 126.236 219.61 126.275C216.816 127.342 212.272 128.015 207.455 128.078C205.93 128.099 204.442 128.059 203.031 127.962Z" fill="#7D97F4"/>
    <path d="M203.31 124.214C200.613 124.032 198.176 123.648 196.297 123.095C196.193 123.064 196.133 122.956 196.164 122.851C196.195 122.747 196.304 122.687 196.408 122.718C199.233 123.549 203.351 123.993 207.705 123.937C212.436 123.876 216.906 123.22 219.661 122.183C219.763 122.145 219.876 122.197 219.914 122.299C219.952 122.401 219.9 122.513 219.798 122.551C217.002 123.603 212.483 124.268 207.709 124.329C206.201 124.349 204.72 124.309 203.31 124.214Z" fill="#7D97F4"/>
    <path d="M188.51 102.514C187.756 98.9369 186.295 95.5441 184.22 92.5339C179.776 86.0834 172.693 73.0996 172.865 56.0417C173.116 31.2304 195.874 20.338 215.765 23.3685C235.656 26.399 254.387 42.6264 250.674 65.4725C248.388 79.5298 239.744 89.726 233.431 95.4911C229.423 99.1514 226.427 103.764 224.629 108.886C222.427 115.155 217.678 122.831 207.637 122.641C194.644 122.392 190.08 109.957 188.51 102.514Z" fill="url(#paint5_linear_63_4089)"/>
    <path d="M211.279 117.933L221.354 72.8852C221.561 71.9542 222.068 71.3543 222.483 71.5443C222.898 71.7343 223.067 72.6436 222.859 73.5733C222.854 73.5977 222.847 73.6289 222.84 73.6533L211.82 118.212C211.738 118.548 211.55 118.75 211.404 118.664C211.26 118.583 211.207 118.259 211.279 117.933Z" fill="url(#paint6_linear_63_4089)"/>
    <path d="M203.989 117.804L200.065 71.8104C199.984 70.8604 199.564 70.1981 199.127 70.3297C198.69 70.4627 198.401 71.3394 198.482 72.2908C198.485 72.3166 198.488 72.3478 198.491 72.3722L203.416 118.008C203.453 118.351 203.612 118.576 203.769 118.512C203.921 118.45 204.017 118.136 203.989 117.804Z" fill="url(#paint7_linear_63_4089)"/>
    <path class="light" d="M221.568 68.9739C221.409 68.6767 221.006 68.541 220.666 68.6727L216.645 70.2307L215.553 66.2854C215.494 66.0792 215.341 65.8905 215.112 65.7765C214.676 65.5621 214.129 65.691 213.889 66.0642L213.881 66.0764L210.281 71.7032L207.869 63.1844L207.865 63.1708C207.806 62.9632 207.664 62.7705 207.45 62.6334C206.969 62.328 206.302 62.4122 205.958 62.8234L201.061 68.6889C200.862 68.9292 200.901 69.2725 201.167 69.4774C201.449 69.6973 201.88 69.6797 202.127 69.4381L206.369 65.3042L209.387 73.4579L209.389 73.4647C209.438 73.595 209.537 73.7131 209.681 73.7931C210.004 73.9723 210.428 73.8922 210.627 73.6154L214.426 68.3469L215.528 71.2159L215.538 71.2417C215.546 71.2621 215.556 71.2824 215.566 71.3028C215.725 71.6 216.128 71.7344 216.469 71.6027L221.241 69.7543C221.579 69.6199 221.726 69.2725 221.568 68.9739Z" fill="white"/>
    <path opacity="0.69" d="M233.955 89.9974C233.694 89.9798 233.438 89.8821 233.225 89.7002C232.697 89.2497 232.633 88.4571 233.083 87.9278C234.375 86.4132 235.571 84.8389 236.638 83.2497C237.025 82.6729 237.805 82.5196 238.382 82.9064C238.959 83.2931 239.112 84.0735 238.726 84.6503C237.604 86.3196 236.35 87.9712 234.997 89.5591C234.728 89.8739 234.339 90.0232 233.955 89.9974Z" fill="white"/>
    <path opacity="0.69" d="M240.382 80.5056C240.215 80.4947 240.048 80.45 239.89 80.3672C239.274 80.0482 239.032 79.2896 239.351 78.6735C247.824 62.2846 242.468 47.7116 242.412 47.5664C242.166 46.9177 242.492 46.1916 243.142 45.9459C243.792 45.7003 244.517 46.0274 244.763 46.6761C245.003 47.3126 250.567 62.4542 241.584 79.8284C241.347 80.2871 240.866 80.5382 240.382 80.5056Z" fill="white"/>
    <path class="hand" d="M152.475 107.46C152.607 107.878 151.082 108.516 150.185 106.804C150.154 105.985 149.654 102.471 150.144 101.803C152.754 98.2462 157.814 93.7852 157.814 93.7852C158.669 94.6294 157.965 95.4572 157.965 95.4572L155.511 98.0141C156.024 98.9424 156.651 99.7254 156.944 100.846C157.167 101.696 157.031 102.604 156.601 103.378C156.171 104.154 155.582 105.162 155.027 105.952C153.975 107.449 152.475 107.46 152.475 107.46Z" fill="url(#paint8_linear_63_4089)"/>
    <path class="hand" d="M154.438 99.6752L152.201 101.571L151.499 103.459L153.493 105.671C153.493 105.671 154.163 101.925 154.661 101.115C155.161 100.304 154.902 99.9114 154.438 99.6752Z" fill="url(#paint9_linear_63_4089)"/>
    <path d="M108.538 247.091C108.538 247.091 107.974 250.29 107.697 253.456C107.588 254.693 108.542 255.768 109.784 255.82C114.001 255.995 123.022 256.337 126.259 256.193C126.746 256.171 127.064 255.673 126.883 255.221C126.733 254.843 126.441 254.536 126.07 254.365L111.17 247.517L108.538 247.091Z" fill="url(#paint10_linear_63_4089)"/>
    <path d="M108.074 245.213L108.529 249.038C108.529 249.038 111.139 250.253 112.921 248.885L111.841 244.621L108.074 245.213Z" fill="url(#paint11_linear_63_4089)"/>
    <path d="M108.416 173.279C108.22 174.277 107.363 223.14 112.587 245.036C112.673 245.393 112.491 245.762 112.152 245.901C111.351 246.228 109.78 246.701 107.898 246.765C107.314 246.784 106.792 246.405 106.628 245.846C105.135 240.766 97.9803 215.312 97.0465 190.996C96.0041 163.826 97.0465 190.07 97.0465 190.07L97.6587 173.276L108.416 173.279Z" fill="url(#paint12_linear_63_4089)"/>
    <path d="M91.3975 248.76C91.3975 248.76 90.4976 250.375 89.6276 254.666C89.4702 255.441 90.0117 256.184 90.799 256.26C92.1915 256.397 94.3347 256.573 96.0516 256.561C96.8429 256.556 97.4605 255.866 97.3655 255.08C97.1754 253.514 96.5823 250.944 94.7527 248.942L91.3975 248.76Z" fill="url(#paint13_linear_63_4089)"/>
    <path d="M90.6077 243.839L91.6691 249.625C91.6691 249.625 92.7182 250.405 94.7935 249.839L94.2872 243.614L90.6077 243.839Z" fill="url(#paint14_linear_63_4089)"/>
    <path d="M87.741 174.778C83.4683 200.558 88.668 238.496 90.4216 245.921C90.5288 246.376 90.8953 246.724 91.3568 246.8C92.1399 246.931 93.428 247.037 94.6984 246.667C95.1354 246.54 95.4435 246.146 95.4612 245.69C95.696 239.688 95.2725 202.834 99.2534 188.27C99.4556 187.531 99.9062 186.888 100.529 186.444L108.255 180.952L108.847 172.075L87.741 174.778Z" fill="url(#paint15_linear_63_4089)"/>
    <path d="M114.964 125.931C102.161 125.719 88.0341 129.292 88.0341 129.292C84.2174 151.557 87.3663 177.239 87.3663 177.239C97.2785 179.838 108.458 175.649 108.458 175.649C110.106 166.344 117.792 140.152 117.792 140.152C124.048 139.376 129.2 137.571 133.444 135.185C130.207 131.434 128.682 126.659 128.019 123.838C123.493 125.244 118.912 125.996 114.964 125.931Z" fill="url(#paint16_linear_63_4089)"/>
    <path class="hand" d="M152.78 107.074C151.522 105.556 149.931 106.274 149.931 106.274C148.047 114.232 138.169 120.684 128.02 123.838C128.682 126.659 130.209 131.434 133.445 135.185C150.288 125.716 152.78 107.074 152.78 107.074Z" fill="url(#paint17_linear_63_4089)"/>
    <path d="M92.9447 141.687L88.034 129.291C88.034 129.291 76.0751 137.415 74.1084 147.717C76.3683 147.884 80.4795 148.471 84.5038 150.503C85.3887 145.639 92.9447 141.687 92.9447 141.687Z" fill="url(#paint18_linear_63_4089)"/>
    <path d="M101.995 115.538L97.9219 127.318C97.854 127.513 97.9341 127.729 98.116 127.829C99.2262 128.443 103.227 130.218 108.049 127.162C108.551 126.843 108.893 126.324 108.969 125.734L110.288 115.539H101.995V115.538Z" fill="url(#paint19_linear_63_4089)"/>
    <path d="M84.5052 150.503C84.5052 150.503 80.3248 169.358 84.1116 179.957C79.4698 182.109 80.3276 181.704 80.3276 181.704C80.3276 181.704 71.1456 154.877 74.1099 147.717C79.9543 147.097 82.8534 148.667 84.5052 150.503Z" fill="url(#paint20_linear_63_4089)"/>
    <path d="M84.1117 179.957C84.1117 179.957 86.5033 183.053 86.3119 184.285C86.1205 185.517 86.0744 186.021 86.0744 186.021C86.0744 186.021 84.8718 185.198 84.9478 184.148C85.1148 187.481 86.2304 191.272 85.2166 191.088C84.2027 190.905 78.95 186.066 80.1376 180.906C82.8332 179.034 83.5878 179.238 84.1117 179.957Z" fill="url(#paint21_linear_63_4089)"/>
    <path d="M108.893 103.599C109.026 103.785 113.19 118.297 113.19 118.297L104.852 120.498L98.8625 107.33C98.8625 107.33 106.659 100.496 108.893 103.599Z" fill="url(#paint22_linear_63_4089)"/>
    <path d="M102.173 108.304C101.968 108.63 101.926 109.029 102.058 109.39L104.631 116.464C104.67 116.572 104.722 116.672 104.79 116.764C105.16 117.273 106.471 118.799 107.993 117.363C109.289 116.139 110.497 115.033 111.626 114.697C112.286 114.502 112.976 114.894 113.161 115.555C113.547 116.918 114.269 119.685 114.566 122.232C114.641 122.871 114.205 123.456 113.574 123.58C111.909 123.906 108.639 124.444 105.859 124.294C105.403 124.269 104.999 123.995 104.805 123.583C103.95 121.761 101.531 116.665 100.627 115.333C99.7869 114.094 97.7903 114.113 96.8755 114.193C96.528 114.224 96.1874 114.11 95.9281 113.876C95.1518 113.177 93.8746 111.562 95.7096 109.604C96.1657 109.117 96.1317 108.345 95.654 107.878C94.7989 107.043 93.9696 105.625 95.3635 103.862C96.7751 102.076 98.6427 102.254 99.8615 102.649C100.4 102.824 101.018 102.642 101.329 102.17C101.467 101.959 101.691 101.801 102.052 101.798C102.732 101.792 103.278 101.277 103.276 100.597C103.274 99.431 103.723 98.0046 105.707 97.3654C109.348 96.1955 111.658 99.701 111.907 102.33C112.157 104.96 108.138 106.004 105.768 105.849C104.027 105.734 102.736 107.407 102.173 108.304Z" fill="url(#paint23_linear_63_4089)"/>
    <path d="M101.602 117.937C101.602 117.937 100.969 113.374 99.0661 113.168C97.1632 112.962 95.3282 114.541 97.242 117.087C99.6226 120.255 101.602 117.937 101.602 117.937Z" fill="url(#paint24_linear_63_4089)"/>
    <path d="M384.69 380H278.959V230.926C278.959 227.895 281.416 225.44 284.446 225.44H379.202C382.233 225.44 384.689 227.897 384.689 230.926V380H384.69Z" fill="#7D97F4"/>
    <path d="M353.521 380H247.791V230.926C247.791 227.895 250.248 225.44 253.277 225.44H348.034C351.065 225.44 353.52 227.897 353.52 230.926V380H353.521Z" fill="#91B3FA"/>
    <path d="M256.518 269.393C256.137 269.393 255.827 269.083 255.827 268.702V250.385C255.827 240.735 263.679 232.884 273.329 232.884H301.131C301.512 232.884 301.821 233.194 301.821 233.575C301.821 233.956 301.512 234.266 301.131 234.266H273.329C264.441 234.266 257.209 241.497 257.209 250.385V268.702C257.209 269.083 256.9 269.393 256.518 269.393Z" fill="#BDD0FB"/>
    <path d="M256.518 288.815C256.137 288.815 255.827 288.505 255.827 288.124V280.661C255.827 280.28 256.137 279.97 256.518 279.97C256.9 279.97 257.209 280.28 257.209 280.661V288.124C257.209 288.505 256.9 288.815 256.518 288.815Z" fill="#BDD0FB"/>
    <path d="M435 380H329.27V308.677C329.27 305.646 331.726 303.191 334.756 303.191H429.513C432.543 303.191 434.999 305.647 434.999 308.677V380H435Z" fill="url(#paint25_linear_63_4089)"/>
    <path d="M403.83 380H298.1V308.677C298.1 305.646 300.556 303.191 303.586 303.191H398.343C401.373 303.191 403.829 305.647 403.829 308.677V380H403.83Z" fill="url(#paint26_linear_63_4089)"/>
    <path d="M305.616 345.877C305.235 345.877 304.925 345.568 304.925 345.186V326.869C304.925 317.22 312.777 309.369 322.427 309.369H350.229C350.61 309.369 350.919 309.678 350.919 310.059C350.919 310.441 350.61 310.75 350.229 310.75H322.427C313.539 310.75 306.307 317.981 306.307 326.869V345.186C306.308 345.569 305.999 345.877 305.616 345.877Z" fill="#7D97F4"/>
    <path d="M305.616 365.301C305.235 365.301 304.925 364.991 304.925 364.61V357.147C304.925 356.766 305.235 356.456 305.616 356.456C305.998 356.456 306.307 356.766 306.307 357.147V364.61C306.308 364.991 305.999 365.301 305.616 365.301Z" fill="#7D97F4"/>
    <path d="M385.132 238.385C385.132 238.385 385.136 239.713 389.425 239.629C391.817 239.583 396.252 239.061 398.758 242.802C400.051 244.733 402.408 245.616 404.619 244.895C410.125 243.102 419.34 241.787 425.071 250.025C429.447 256.313 427.289 260.621 424.113 263.336C421.78 265.329 421.317 268.81 423.209 271.226C425.024 273.543 425.757 276.91 422.479 281.516C415.135 291.838 396.176 279.088 396.176 279.088L378.475 249.064L385.132 238.385Z" fill="url(#paint27_linear_63_4089)"/>
    <path d="M420.679 260.049C420.624 260.049 420.567 260.035 420.511 260.007C420.483 259.992 420.472 259.956 420.487 259.929C420.502 259.901 420.535 259.89 420.564 259.905C420.797 260.027 421.053 259.728 421.165 259.534C422.715 256.869 422.38 253.145 420.352 250.48C419.137 248.884 417.499 247.805 415.74 247.442C414.49 247.184 413.205 247.288 411.994 247.416C409.943 247.634 407.88 247.954 405.863 248.369C405.699 248.403 405.533 248.437 405.369 248.472C404.183 248.721 402.956 248.979 401.725 248.983C401.717 248.983 401.709 248.983 401.702 248.983C400.123 248.983 398.74 248.524 397.805 247.689C397.222 247.169 396.79 246.494 396.372 245.839C395.87 245.055 395.353 244.243 394.578 243.726C394.55 243.709 394.544 243.673 394.561 243.646C394.579 243.619 394.614 243.614 394.641 243.63C395.435 244.161 395.961 244.982 396.47 245.776C396.884 246.423 397.311 247.092 397.883 247.601C398.796 248.417 400.152 248.865 401.702 248.865C401.71 248.865 401.717 248.865 401.725 248.865C402.944 248.862 404.165 248.605 405.346 248.357C405.51 248.322 405.676 248.288 405.84 248.254C407.861 247.839 409.928 247.517 411.983 247.3C413.201 247.171 414.497 247.066 415.765 247.328C417.551 247.696 419.213 248.79 420.446 250.409C422.502 253.111 422.839 256.887 421.267 259.593C421.131 259.821 420.911 260.049 420.679 260.049Z" fill="white"/>
    <path d="M420.701 258.761C420.697 258.761 420.694 258.761 420.69 258.759C420.659 258.754 420.639 258.723 420.644 258.692C420.977 256.927 420.841 255.285 420.252 253.942C419.565 252.375 418.213 251.225 416.724 250.938C416.693 250.933 416.673 250.902 416.678 250.87C416.685 250.839 416.715 250.817 416.746 250.824C418.272 251.117 419.655 252.294 420.356 253.894C420.955 255.259 421.093 256.925 420.757 258.712C420.753 258.742 420.728 258.761 420.701 258.761Z" fill="white"/>
    <path d="M336.589 332.712C336.633 332.695 360.147 291.518 363.325 287.644C363.86 286.992 364.686 286.66 365.524 286.76L372.087 287.542L379.798 304.221L366.953 296.74C368.223 305.531 351.722 318.593 346.063 323.361C345.489 323.844 345.441 324.711 345.96 325.254L348.22 327.62C344.51 331.379 340.229 333.793 335.399 334.91L336.589 332.712Z" fill="url(#paint28_linear_63_4089)"/>
    <path d="M346.912 326.342C346.912 326.342 348.353 326.808 348.842 328.092C349.075 328.707 348.824 329.403 348.289 329.786C345.915 331.486 338.082 336.978 334.468 338.053C334.172 338.141 333.89 337.873 333.956 337.571C334.142 336.731 334.742 335.055 336.675 332.602L336.501 332.952C336.281 333.396 336.765 333.858 337.196 333.614C339.615 332.25 344.539 329.264 346.912 326.342Z" fill="url(#paint29_linear_63_4089)"/>
    <path d="M345.748 342.818C345.788 342.792 349.315 334.294 349.355 334.268C352.589 314.576 360.482 297.711 362.809 293.273C363.202 292.527 363.944 292.034 364.784 291.962L371.37 291.4L382.297 306.174L368.203 301.448C371.227 309.799 357.71 325.931 353.133 331.744C352.669 332.334 352.798 333.192 353.416 333.618L356.107 335.477C353.235 339.91 349.532 343.14 345.028 345.211L345.748 342.818Z" fill="url(#paint30_linear_63_4089)"/>
    <path d="M354.568 334.491C354.568 334.491 356.074 334.655 356.813 335.814C357.166 336.369 357.06 337.101 356.615 337.584C354.633 339.729 348.075 346.693 344.753 348.477C344.481 348.624 344.151 348.418 344.155 348.11C344.167 347.251 344.414 345.486 345.811 342.692L345.712 343.071C345.587 343.55 346.154 343.904 346.526 343.578C348.618 341.754 352.835 337.832 354.568 334.491Z" fill="url(#paint31_linear_63_4089)"/>
    <path d="M402.197 288.288C402.197 288.288 408.156 297.149 408.644 301.191C409.133 305.232 406.997 306.63 400.761 307.146C382.205 308.679 373.057 303.119 373.057 303.119C371.788 295.026 370.884 292.968 360.282 288.566C360.282 288.566 373.692 289.63 376.39 288.584C379.09 287.536 402.197 288.288 402.197 288.288Z" fill="url(#paint32_linear_63_4089)"/>
    <path d="M386.085 287.116C386.085 287.116 379.147 280.51 375.732 276.135C373.886 273.769 373.307 270.656 374.16 267.78C375.72 262.528 378.49 257.087 378.742 256.241C379.129 254.943 386.909 254.997 386.909 254.997C386.909 254.997 402.217 264.932 408.232 281.759L401.477 283.861C401.477 283.861 397.48 277.157 393.531 272.894C393.531 272.894 400.365 281.92 400.606 285.616L386.085 287.116Z" fill="url(#paint33_linear_63_4089)"/>
    <path d="M377.803 248.988C377.885 249.258 379.915 255.988 380.074 256.128C380.233 256.268 384.527 256.498 386.548 255.117L382.423 245.992L377.803 248.988Z" fill="url(#paint34_linear_63_4089)"/>
    <path d="M372.867 289.721L378.08 284.05L384.101 285.67C384.101 285.67 391.119 286.757 395.137 285.67C399.154 284.583 399.154 284.583 399.154 284.583L408.233 281.758L409.658 285.787C410.021 286.81 409.657 287.946 408.772 288.575C407.986 289.132 407.066 289.746 406.48 290.002C405.284 290.525 378.939 290.168 378.939 290.168L372.867 289.721Z" fill="url(#paint35_linear_63_4089)"/>
    <path d="M390.123 291.966C390.105 291.967 390.086 291.967 390.067 291.967L366.09 291.942C365.497 291.942 365.018 291.46 365.018 290.867C365.018 290.274 365.501 289.784 366.093 289.795L390.07 289.82C390.663 289.82 391.142 290.302 391.142 290.895C391.141 291.471 390.69 291.939 390.123 291.966Z" fill="url(#paint36_linear_63_4089)"/>
    <path d="M344.535 270.198H364.504C365.977 270.198 367.318 271.047 367.946 272.38L377.179 291.952H352.362C351.413 291.952 350.56 291.373 350.211 290.489L343.051 272.378C342.637 271.332 343.408 270.198 344.535 270.198Z" fill="url(#paint37_linear_63_4089)"/>
    <path d="M358.603 280.234C359.036 281.578 358.716 282.884 357.889 283.15C357.063 283.416 356.04 282.542 355.608 281.198C355.175 279.854 355.495 278.548 356.321 278.282C357.148 278.016 358.17 278.89 358.603 280.234Z" fill="url(#paint38_linear_63_4089)"/>
    <path d="M373.966 239.852C373.966 239.852 372.143 243.118 373.358 248.485C374.573 253.852 377.366 254.589 379.293 253.486C381.221 252.382 383.783 250.324 384.546 245.65C385.31 240.976 376.438 235.737 373.966 239.852Z" fill="url(#paint39_linear_63_4089)"/>
    <path d="M381.069 244.991C381.069 244.991 378.638 237.649 373.492 241.552L372.947 243.325C372.947 243.325 368.594 241.597 370.475 237.686C372.356 233.773 376.926 232.23 381.454 235.343C385.982 238.458 388.363 241.05 387.733 244.72C387.103 248.39 384.461 246.846 384.461 246.846C384.461 246.846 384.201 244.075 382.947 243.462C381.694 242.848 381.515 244.907 381.515 244.907L381.069 244.991Z" fill="url(#paint40_linear_63_4089)"/>
    <path d="M382.139 245.185C382.139 245.185 380.868 241.418 383.17 241.518C385.471 241.619 384.178 245.128 383.589 246.397L382.139 245.185Z" fill="url(#paint41_linear_63_4089)"/>
    <path d="M369.918 191.484C370.658 192.58 373.599 217.371 374.059 226.526C374.091 227.145 373.595 227.662 372.975 227.662C372.44 227.662 371.986 227.272 371.903 226.745L366.522 192.274L369.918 191.484Z" fill="#91B3FA"/>
    <path d="M346.271 191.484C345.531 192.58 342.59 217.371 342.13 226.526C342.098 227.145 342.594 227.662 343.214 227.662C343.749 227.662 344.203 227.272 344.286 226.745L349.667 192.274L346.271 191.484Z" fill="#91B3FA"/>
    <path d="M374.368 189.549L374.37 189.819C374.388 191.764 372.712 193.36 370.615 193.395L345.749 193.819C343.681 193.854 341.957 192.36 341.857 190.445L341.843 190.198C341.739 188.202 343.434 186.519 345.591 186.481L370.467 186.034C372.596 185.996 374.35 187.576 374.368 189.549Z" fill="#7D97F4"/>
    <path d="M325.993 225.625C330.414 225.625 332.37 225.246 333.244 224.9C333.074 225.626 332.427 226.199 331.611 226.199H315.974C315.447 226.199 315.114 225.695 315.241 225.238C317.023 225.382 320.808 225.625 325.993 225.625Z" fill="#7D97F4"/>
    <path d="M315.24 225.239C315.266 225.147 315.303 225.058 315.368 224.973C316.56 223.453 318.953 221.065 322.207 221.111C326.976 221.178 328.638 221.696 332.344 221.14L333.218 224.037C333.307 224.333 333.309 224.627 333.245 224.902C332.371 225.248 330.415 225.626 325.994 225.626C320.808 225.625 317.023 225.382 315.24 225.239Z" fill="url(#paint42_linear_63_4089)"/>
    <path d="M331.27 218.017L332.344 221.666C332.344 221.666 329.967 222.748 327.875 221.879L327.466 218.717L331.27 218.017Z" fill="url(#paint43_linear_63_4089)"/>
    <path d="M298.86 223.327C302.306 226.096 304.066 227.027 304.963 227.305C304.378 227.762 303.518 227.802 302.88 227.29L290.69 217.497C290.28 217.167 290.335 216.569 290.717 216.293C292.018 217.52 294.818 220.08 298.86 223.327Z" fill="#7D97F4"/>
    <path d="M290.717 216.293C290.795 216.238 290.88 216.191 290.983 216.167C292.86 215.733 296.214 215.378 298.723 217.454C302.398 220.492 303.371 221.935 306.606 223.824L305.48 226.62C305.365 226.905 305.183 227.134 304.962 227.306C304.065 227.027 302.304 226.096 298.858 223.329C294.818 220.08 292.018 217.52 290.717 216.293Z" fill="url(#paint44_linear_63_4089)"/>
    <path d="M354.224 176.442C354.224 176.442 327.76 178.603 322.331 181.158C316.902 183.714 326.761 219.529 326.761 219.529C326.761 219.529 328.239 220.24 331.528 219.218C331.528 219.218 328.155 192.787 330.665 187.056L359.318 182.37L354.224 176.442Z" fill="url(#paint45_linear_63_4089)"/>
    <path d="M309.236 218.793C308.99 219.017 306.607 223.824 306.607 223.824C306.607 223.824 303.953 223.25 303.412 221.571L305.799 217.232L309.236 218.793Z" fill="url(#paint46_linear_63_4089)"/>
    <path d="M370.163 176.221C370.163 176.221 371.025 178.296 370.989 181.054C370.941 184.867 367.874 187.961 364.066 188.151L332.781 189.578C332.12 189.608 331.561 190.065 331.395 190.706C330.659 193.549 327.067 202.281 309.501 219.704C309.034 220.168 308.305 220.247 307.748 219.895L305.248 218.315C304.986 218.15 304.902 217.805 305.058 217.538L323.274 186.435C324.231 184.856 325.769 183.715 327.558 183.259L354.222 176.443L370.163 176.221Z" fill="url(#paint47_linear_63_4089)"/>
    <path d="M339.332 127.636C339.332 127.636 342.683 133.562 346.101 136.432L339.038 140.372C339.038 140.372 337.446 134.099 333.811 132.263L339.332 127.636Z" fill="url(#paint48_linear_63_4089)"/>
    <path d="M370.732 176.442C370.732 176.442 362.285 178.499 354.224 176.442C354.224 176.442 342.944 161.28 338.58 157.153C338.58 157.153 331.619 168.136 316.126 169.693L315.261 167.762C315.261 167.762 327.596 162.077 331.394 153.339C335.191 144.603 336.717 140.877 340.171 138.598C342.322 137.178 343.61 136.209 344.277 135.679C344.642 135.388 345.144 135.356 345.542 135.599C349.208 137.834 366.459 149.648 370.732 176.442Z" fill="url(#paint49_linear_63_4089)"/>
    <path d="M317.057 166.753L315.313 166.289L310.018 165.064C309.38 164.916 308.711 165.028 308.157 165.377L303.605 168.241L316.179 168.219L317.057 166.753Z" fill="url(#paint50_linear_63_4089)"/>
    <path d="M334.012 118.751C334.012 118.751 330.754 124.165 330.19 127.157C329.625 130.15 328.717 132.02 332.122 133.085C335.528 134.152 338.693 132.802 340.68 130.009C340.68 130.009 343.783 125.711 343.473 123.741C343.163 121.775 334.012 118.751 334.012 118.751Z" fill="url(#paint51_linear_63_4089)"/>
    <path d="M339.773 127.693L339.332 127.635C339.332 127.635 341.638 124.15 340.129 123.287C338.62 122.422 332.47 120.301 331.403 117.88C330.373 115.546 331.913 112.907 333.77 112.358C333.888 112.322 334.012 112.393 334.054 112.507L334.162 112.801C334.237 113.002 334.519 113.01 334.605 112.814C334.686 112.626 334.954 112.62 335.038 112.804C335.366 113.53 336.353 114.769 339.31 115.727C343.507 117.087 346.121 119.203 345.8 122.183C345.779 122.372 345.967 122.502 346.14 122.426C346.484 122.274 347.004 122.251 347.608 122.911C348.658 124.059 347.836 126.571 344.968 128.349C344.832 128.433 344.807 128.626 344.928 128.73C345.357 129.098 345.961 129.916 344.02 130.647C342.035 131.393 340.951 131.141 340.552 130.98C340.445 130.937 340.383 130.826 340.406 130.712L340.916 128.099C340.942 127.963 340.85 127.835 340.713 127.817L339.773 127.693Z" fill="url(#paint52_linear_63_4089)"/>
    <path d="M339.593 128.231C339.593 128.231 341.03 124.687 342.54 125.933C344.049 127.179 341.144 129.931 339.803 129.895L339.593 128.231Z" fill="url(#paint53_linear_63_4089)"/>
    <path d="M321.914 170.707C321.894 170.708 321.874 170.708 321.852 170.708L294.991 170.681C294.328 170.681 293.79 170.142 293.79 169.48C293.791 168.816 294.332 168.269 294.994 168.281L321.855 168.309C322.518 168.309 323.056 168.847 323.056 169.51C323.054 170.152 322.549 170.675 321.914 170.707Z" fill="url(#paint54_linear_63_4089)"/>
    <path d="M284.589 144.404C284.599 144.422 284.608 144.441 284.616 144.46L295.918 168.824C296.198 169.427 295.937 170.141 295.336 170.419C294.735 170.699 294.01 170.438 293.741 169.833L282.439 145.468C282.16 144.865 282.42 144.151 283.022 143.873C283.604 143.605 284.292 143.842 284.589 144.404Z" fill="url(#paint55_linear_63_4089)"/>
    <path d="M309.972 172C310.089 172.486 321.297 214.516 324.139 225.173C324.466 226.401 323.552 227.606 322.295 227.606C321.418 227.606 320.654 227.002 320.442 226.142L308 175.704L309.972 172Z" fill="#7D97F4"/>
    <path d="M303.816 172.056C303.7 172.542 292.491 214.572 289.649 225.229C289.322 226.457 290.237 227.662 291.494 227.662C292.37 227.662 293.135 227.058 293.346 226.198L305.788 175.759L303.816 172.056Z" fill="#7D97F4"/>
    <path d="M303.35 170.681H310.33V176.286C310.33 177.092 309.684 177.745 308.889 177.745H307.932V190.335C307.932 190.944 307.443 191.44 306.841 191.44C306.238 191.44 305.749 190.946 305.749 190.335V177.745H305.263C304.207 177.745 303.351 176.878 303.351 175.81V170.681H303.35Z" fill="#7D97F4"/>
    <path d="M327.493 169.335H288.516C287.972 169.335 287.495 169.708 287.36 170.241L286.815 172.375C286.62 173.143 287.195 173.891 287.978 173.885L327.972 173.653C328.747 173.649 329.313 172.909 329.123 172.149L328.649 170.248C328.518 169.711 328.04 169.335 327.493 169.335Z" fill="#7D97F4"/>
  </g>
  <defs>
    <linearGradient id="paint0_linear_63_4089" x1="479.691" y1="485.292" x2="146.584" y2="71.5523" gradientUnits="userSpaceOnUse">
      <stop stop-color="#DAE3FE"/>
      <stop offset="1" stop-color="#E9EFFD"/>
    </linearGradient>
    <linearGradient id="paint1_linear_63_4089" x1="423.152" y1="105.774" x2="327.544" y2="197.605" gradientUnits="userSpaceOnUse">
      <stop stop-color="#FF928E"/>
      <stop offset="1" stop-color="#FE7062"/>
    </linearGradient>
    <linearGradient id="paint2_linear_63_4089" x1="167.829" y1="327.888" x2="331.501" y2="143.384" gradientUnits="userSpaceOnUse">
      <stop stop-color="#FF928E"/>
      <stop offset="1" stop-color="#FE7062"/>
    </linearGradient>
    <linearGradient id="paint3_linear_63_4089" x1="144.233" y1="77.4515" x2="283.798" y2="77.4515" gradientUnits="userSpaceOnUse">
      <stop stop-color="#4F52FF"/>
      <stop offset="1" stop-color="#4042E2"/>
    </linearGradient>
    <linearGradient id="paint4_linear_63_4089" x1="208.119" y1="114.292" x2="206.386" y2="138.146" gradientUnits="userSpaceOnUse">
      <stop stop-color="#4F52FF"/>
      <stop offset="1" stop-color="#4042E2"/>
    </linearGradient>
    <linearGradient id="paint5_linear_63_4089" x1="197.594" y1="133.147" x2="219.703" y2="17.7514" gradientUnits="userSpaceOnUse">
      <stop stop-color="#FF928E"/>
      <stop offset="1" stop-color="#FE7062"/>
    </linearGradient>
    <linearGradient id="paint6_linear_63_4089" x1="229.631" y1="40.2109" x2="208.961" y2="130.926" gradientUnits="userSpaceOnUse">
      <stop stop-color="#E1473D"/>
      <stop offset="1" stop-color="#E9605A"/>
    </linearGradient>
    <linearGradient id="paint7_linear_63_4089" x1="214.464" y1="36.755" x2="193.794" y2="127.47" gradientUnits="userSpaceOnUse">
      <stop stop-color="#E1473D"/>
      <stop offset="1" stop-color="#E9605A"/>
    </linearGradient>
    <linearGradient id="paint8_linear_63_4089" x1="156.271" y1="94.3557" x2="147.721" y2="118.787" gradientUnits="userSpaceOnUse">
      <stop stop-color="#FEBBBA"/>
      <stop offset="1" stop-color="#FF928E"/>
    </linearGradient>
    <linearGradient id="paint9_linear_63_4089" x1="149.702" y1="109.964" x2="156.142" y2="96.9712" gradientUnits="userSpaceOnUse">
      <stop stop-color="#FEBBBA"/>
      <stop offset="1" stop-color="#FF928E"/>
    </linearGradient>
    <linearGradient id="paint10_linear_63_4089" x1="125.786" y1="242.671" x2="71.2268" y2="302.022" gradientUnits="userSpaceOnUse">
      <stop stop-color="#09005D"/>
      <stop offset="1" stop-color="#1A0F91"/>
    </linearGradient>
    <linearGradient id="paint11_linear_63_4089" x1="108.075" y1="247.078" x2="112.922" y2="247.078" gradientUnits="userSpaceOnUse">
      <stop stop-color="#FEBBBA"/>
      <stop offset="1" stop-color="#FF928E"/>
    </linearGradient>
    <linearGradient id="paint12_linear_63_4089" x1="130.083" y1="175.556" x2="83.6586" y2="238.484" gradientUnits="userSpaceOnUse">
      <stop stop-color="#09005D"/>
      <stop offset="1" stop-color="#1A0F91"/>
    </linearGradient>
    <linearGradient id="paint13_linear_63_4089" x1="113.545" y1="231.418" x2="58.986" y2="290.769" gradientUnits="userSpaceOnUse">
      <stop stop-color="#09005D"/>
      <stop offset="1" stop-color="#1A0F91"/>
    </linearGradient>
    <linearGradient id="paint14_linear_63_4089" x1="90.6074" y1="246.83" x2="94.7922" y2="246.83" gradientUnits="userSpaceOnUse">
      <stop stop-color="#FEBBBA"/>
      <stop offset="1" stop-color="#FF928E"/>
    </linearGradient>
    <linearGradient id="paint15_linear_63_4089" x1="121.808" y1="169.452" x2="75.3837" y2="232.38" gradientUnits="userSpaceOnUse">
      <stop stop-color="#09005D"/>
      <stop offset="1" stop-color="#1A0F91"/>
    </linearGradient>
    <linearGradient id="paint16_linear_63_4089" x1="-566.832" y1="1368.56" x2="-535.277" y2="1310.98" gradientUnits="userSpaceOnUse">
      <stop stop-color="#FF928E"/>
      <stop offset="1" stop-color="#FE7062"/>
    </linearGradient>
    <linearGradient id="paint17_linear_63_4089" x1="148.962" y1="91.7978" x2="140.412" y2="116.229" gradientUnits="userSpaceOnUse">
      <stop stop-color="#FEBBBA"/>
      <stop offset="1" stop-color="#FF928E"/>
    </linearGradient>
    <linearGradient id="paint18_linear_63_4089" x1="-582.898" y1="1359.76" x2="-551.343" y2="1302.17" gradientUnits="userSpaceOnUse">
      <stop stop-color="#FF928E"/>
      <stop offset="1" stop-color="#FE7062"/>
    </linearGradient>
    <linearGradient id="paint19_linear_63_4089" x1="97.898" y1="122.218" x2="110.287" y2="122.218" gradientUnits="userSpaceOnUse">
      <stop stop-color="#FEBBBA"/>
      <stop offset="1" stop-color="#FF928E"/>
    </linearGradient>
    <linearGradient id="paint20_linear_63_4089" x1="87.5243" y1="213.303" x2="77.4542" y2="140.974" gradientUnits="userSpaceOnUse">
      <stop stop-color="#FEBBBA"/>
      <stop offset="1" stop-color="#FF928E"/>
    </linearGradient>
    <linearGradient id="paint21_linear_63_4089" x1="86.325" y1="206.345" x2="78.289" y2="148.626" gradientUnits="userSpaceOnUse">
      <stop stop-color="#FEBBBA"/>
      <stop offset="1" stop-color="#FF928E"/>
    </linearGradient>
    <linearGradient id="paint22_linear_63_4089" x1="106.193" y1="105.666" x2="105.524" y2="134.381" gradientUnits="userSpaceOnUse">
      <stop stop-color="#FEBBBA"/>
      <stop offset="1" stop-color="#FF928E"/>
    </linearGradient>
    <linearGradient id="paint23_linear_63_4089" x1="98.6716" y1="117.86" x2="115.463" y2="105.77" gradientUnits="userSpaceOnUse">
      <stop stop-color="#09005D"/>
      <stop offset="1" stop-color="#1A0F91"/>
    </linearGradient>
    <linearGradient id="paint24_linear_63_4089" x1="96.2064" y1="135.213" x2="99.1528" y2="115.529" gradientUnits="userSpaceOnUse">
      <stop stop-color="#FEBBBA"/>
      <stop offset="1" stop-color="#FF928E"/>
    </linearGradient>
    <linearGradient id="paint25_linear_63_4089" x1="485.765" y1="249.858" x2="379.926" y2="345.123" gradientUnits="userSpaceOnUse">
      <stop stop-color="#4F52FF"/>
      <stop offset="1" stop-color="#4042E2"/>
    </linearGradient>
    <linearGradient id="paint26_linear_63_4089" x1="400.711" y1="267.557" x2="241.58" y2="510.601" gradientUnits="userSpaceOnUse">
      <stop stop-color="#4F52FF"/>
      <stop offset="1" stop-color="#4042E2"/>
    </linearGradient>
    <linearGradient id="paint27_linear_63_4089" x1="369.916" y1="242.638" x2="424.005" y2="270.58" gradientUnits="userSpaceOnUse">
      <stop stop-color="#09005D"/>
      <stop offset="1" stop-color="#1A0F91"/>
    </linearGradient>
    <linearGradient id="paint28_linear_63_4089" x1="330.953" y1="298.219" x2="368.024" y2="319.38" gradientUnits="userSpaceOnUse">
      <stop stop-color="#FEBBBA"/>
      <stop offset="1" stop-color="#FF928E"/>
    </linearGradient>
    <linearGradient id="paint29_linear_63_4089" x1="335.799" y1="319.374" x2="352.495" y2="359.788" gradientUnits="userSpaceOnUse">
      <stop stop-color="#09005D"/>
      <stop offset="1" stop-color="#1A0F91"/>
    </linearGradient>
    <linearGradient id="paint30_linear_63_4089" x1="334.539" y1="303.495" x2="207.701" y2="224.085" gradientUnits="userSpaceOnUse">
      <stop stop-color="#FEBBBA"/>
      <stop offset="1" stop-color="#FF928E"/>
    </linearGradient>
    <linearGradient id="paint31_linear_63_4089" x1="342.275" y1="329.918" x2="366.804" y2="366.113" gradientUnits="userSpaceOnUse">
      <stop stop-color="#09005D"/>
      <stop offset="1" stop-color="#1A0F91"/>
    </linearGradient>
    <linearGradient id="paint32_linear_63_4089" x1="374.036" y1="275.12" x2="419.692" y2="357.661" gradientUnits="userSpaceOnUse">
      <stop stop-color="#09005D"/>
      <stop offset="1" stop-color="#1A0F91"/>
    </linearGradient>
    <linearGradient id="paint33_linear_63_4089" x1="373.312" y1="257.813" x2="460.699" y2="342.114" gradientUnits="userSpaceOnUse">
      <stop stop-color="#FF928E"/>
      <stop offset="1" stop-color="#FE7062"/>
    </linearGradient>
    <linearGradient id="paint34_linear_63_4089" x1="384.258" y1="265.418" x2="381.74" y2="249.257" gradientUnits="userSpaceOnUse">
      <stop stop-color="#FEBBBA"/>
      <stop offset="1" stop-color="#FF928E"/>
    </linearGradient>
    <linearGradient id="paint35_linear_63_4089" x1="395.884" y1="286.023" x2="432.814" y2="286.023" gradientUnits="userSpaceOnUse">
      <stop stop-color="#FEBBBA"/>
      <stop offset="1" stop-color="#FF928E"/>
    </linearGradient>
    <linearGradient id="paint36_linear_63_4089" x1="394.191" y1="285.596" x2="375.157" y2="291.84" gradientUnits="userSpaceOnUse">
      <stop stop-color="#09005D"/>
      <stop offset="1" stop-color="#1A0F91"/>
    </linearGradient>
    <linearGradient id="paint37_linear_63_4089" x1="368.043" y1="273.117" x2="354.337" y2="287.605" gradientUnits="userSpaceOnUse">
      <stop stop-color="#09005D"/>
      <stop offset="1" stop-color="#1A0F91"/>
    </linearGradient>
    <linearGradient id="paint38_linear_63_4089" x1="359.756" y1="276.724" x2="353.537" y2="286.09" gradientUnits="userSpaceOnUse">
      <stop stop-color="#4F52FF"/>
      <stop offset="1" stop-color="#4042E2"/>
    </linearGradient>
    <linearGradient id="paint39_linear_63_4089" x1="380.75" y1="258.487" x2="374.921" y2="220.039" gradientUnits="userSpaceOnUse">
      <stop stop-color="#FEBBBA"/>
      <stop offset="1" stop-color="#FF928E"/>
    </linearGradient>
    <linearGradient id="paint40_linear_63_4089" x1="370.255" y1="235.705" x2="426.753" y2="264.891" gradientUnits="userSpaceOnUse">
      <stop stop-color="#09005D"/>
      <stop offset="1" stop-color="#1A0F91"/>
    </linearGradient>
    <linearGradient id="paint41_linear_63_4089" x1="385.349" y1="257.79" x2="379.52" y2="219.342" gradientUnits="userSpaceOnUse">
      <stop stop-color="#FEBBBA"/>
      <stop offset="1" stop-color="#FF928E"/>
    </linearGradient>
    <linearGradient id="paint42_linear_63_4089" x1="315.24" y1="223.367" x2="333.288" y2="223.367" gradientUnits="userSpaceOnUse">
      <stop stop-color="#09005D"/>
      <stop offset="1" stop-color="#1A0F91"/>
    </linearGradient>
    <linearGradient id="paint43_linear_63_4089" x1="332.343" y1="220.117" x2="327.465" y2="220.117" gradientUnits="userSpaceOnUse">
      <stop stop-color="#FEBBBA"/>
      <stop offset="1" stop-color="#FF928E"/>
    </linearGradient>
    <linearGradient id="paint44_linear_63_4089" x1="290.718" y1="221.57" x2="306.607" y2="221.57" gradientUnits="userSpaceOnUse">
      <stop stop-color="#09005D"/>
      <stop offset="1" stop-color="#1A0F91"/>
    </linearGradient>
    <linearGradient id="paint45_linear_63_4089" x1="359.319" y1="198.106" x2="320.7" y2="198.106" gradientUnits="userSpaceOnUse">
      <stop stop-color="#09005D"/>
      <stop offset="1" stop-color="#1A0F91"/>
    </linearGradient>
    <linearGradient id="paint46_linear_63_4089" x1="309.236" y1="220.528" x2="303.412" y2="220.528" gradientUnits="userSpaceOnUse">
      <stop stop-color="#FEBBBA"/>
      <stop offset="1" stop-color="#FF928E"/>
    </linearGradient>
    <linearGradient id="paint47_linear_63_4089" x1="324.239" y1="182.017" x2="366.632" y2="230.087" gradientUnits="userSpaceOnUse">
      <stop stop-color="#09005D"/>
      <stop offset="1" stop-color="#1A0F91"/>
    </linearGradient>
    <linearGradient id="paint48_linear_63_4089" x1="341.588" y1="138.462" x2="338.717" y2="131.222" gradientUnits="userSpaceOnUse">
      <stop stop-color="#FEBBBA"/>
      <stop offset="1" stop-color="#FF928E"/>
    </linearGradient>
    <linearGradient id="paint49_linear_63_4089" x1="335.83" y1="184.267" x2="355.638" y2="150.635" gradientUnits="userSpaceOnUse">
      <stop stop-color="#FF928E"/>
      <stop offset="1" stop-color="#FE7062"/>
    </linearGradient>
    <linearGradient id="paint50_linear_63_4089" x1="317.056" y1="166.62" x2="303.603" y2="166.62" gradientUnits="userSpaceOnUse">
      <stop stop-color="#FEBBBA"/>
      <stop offset="1" stop-color="#FF928E"/>
    </linearGradient>
    <linearGradient id="paint51_linear_63_4089" x1="332.821" y1="123.738" x2="345.672" y2="136.557" gradientUnits="userSpaceOnUse">
      <stop stop-color="#FEBBBA"/>
      <stop offset="1" stop-color="#FF928E"/>
    </linearGradient>
    <linearGradient id="paint52_linear_63_4089" x1="344" y1="116.428" x2="328.863" y2="131.387" gradientUnits="userSpaceOnUse">
      <stop stop-color="#09005D"/>
      <stop offset="1" stop-color="#1A0F91"/>
    </linearGradient>
    <linearGradient id="paint53_linear_63_4089" x1="334.899" y1="121.654" x2="347.751" y2="134.474" gradientUnits="userSpaceOnUse">
      <stop stop-color="#FEBBBA"/>
      <stop offset="1" stop-color="#FF928E"/>
    </linearGradient>
    <linearGradient id="paint54_linear_63_4089" x1="2537.33" y1="-3069.14" x2="2611.89" y2="-3177.9" gradientUnits="userSpaceOnUse">
      <stop stop-color="#09005D"/>
      <stop offset="1" stop-color="#1A0F91"/>
    </linearGradient>
    <linearGradient id="paint55_linear_63_4089" x1="-729.518" y1="-15.0773" x2="-859.587" y2="-36.8305" gradientUnits="userSpaceOnUse">
      <stop stop-color="#09005D"/>
      <stop offset="1" stop-color="#1A0F91"/>
    </linearGradient>
    <clipPath id="clip0_63_4089">
      <rect width="506" height="380" fill="white"/>
    </clipPath>
  </defs>



  <style>


  .light {
    animation: 3s ease-in-out infinite lighter;
  }
  
  @keyframes lighter {
    0% {
      opacity: 1;
    }
    25% {
      opacity: .3;
    }
    50% {
      opacity: .9;
    }
    80% {
      opacity: 0;
    }
    100% {
      opacity: 1;
    }
  }

  .gear {
  animation: 5s linear infinite gearing;
  transform-origin: 70% 18%;
}

.gear2 {
  animation: 5s linear infinite reverse gearing;
  transform-origin: 79% 14%;
}

@keyframes gearing {
  0% {
    transform: rotate(0);
  }

  100% {
    transform: rotate(360deg);
  }
}

.hand {
  animation: 5s ease-in-out infinite handing;
  transform-origin: 32% 50%;
}

@keyframes handing {
  0% {
    transform: rotate(0);
  }

  50% {
    transform: rotate(-3deg);
  }
  100% {
    transform: rotate(0deg);
  }
  }



  </style>
</svg>
